G04 MADE WITH FRITZING*
G04 WWW.FRITZING.ORG*
G04 DOUBLE SIDED*
G04 HOLES PLATED*
G04 CONTOUR ON CENTER OF CONTOUR VECTOR*
%ASAXBY*%
%FSLAX23Y23*%
%MOIN*%
%OFA0B0*%
%SFA1.0B1.0*%
%ADD10C,0.039370*%
%ADD11C,0.078000*%
%ADD12C,0.079370*%
%ADD13C,0.075000*%
%ADD14C,0.024000*%
%LNCOPPER0*%
G90*
G70*
G54D10*
X2886Y1577D03*
X2836Y1517D03*
G54D11*
X1486Y3807D03*
X1386Y3807D03*
X1286Y3807D03*
X1186Y3807D03*
X1486Y207D03*
X1486Y207D03*
X1586Y207D03*
X1086Y807D03*
X1086Y807D03*
X1186Y807D03*
X286Y207D03*
X286Y207D03*
X386Y207D03*
X1086Y207D03*
X1086Y207D03*
X1186Y207D03*
X1086Y507D03*
X1086Y507D03*
X1186Y507D03*
X686Y207D03*
X686Y207D03*
X786Y207D03*
X686Y507D03*
X686Y507D03*
X786Y507D03*
X1086Y1107D03*
X1086Y1107D03*
X1186Y1107D03*
X1486Y1107D03*
X1486Y1107D03*
X1586Y1107D03*
X286Y1107D03*
X286Y1107D03*
X386Y1107D03*
X286Y807D03*
X286Y807D03*
X386Y807D03*
X686Y1107D03*
X686Y1107D03*
X786Y1107D03*
X686Y807D03*
X686Y807D03*
X786Y807D03*
X286Y507D03*
X286Y507D03*
X386Y507D03*
X1626Y1907D03*
X1626Y1907D03*
X1626Y1807D03*
X1626Y2107D03*
X1626Y2107D03*
X1626Y2007D03*
X1626Y2307D03*
X1626Y2307D03*
X1626Y2207D03*
X286Y3407D03*
X286Y3407D03*
X286Y3507D03*
X1626Y2507D03*
X1626Y2507D03*
X1626Y2407D03*
X1486Y807D03*
X1486Y807D03*
X1586Y807D03*
X1486Y507D03*
X1486Y507D03*
X1586Y507D03*
X3486Y207D03*
X3486Y207D03*
X3586Y207D03*
X3486Y507D03*
X3486Y507D03*
X3586Y507D03*
X3486Y807D03*
X3486Y807D03*
X3586Y807D03*
G54D12*
X3486Y1107D03*
X3486Y1107D03*
X3586Y1107D03*
G54D11*
X3086Y207D03*
X3086Y207D03*
X3186Y207D03*
X3086Y507D03*
X3086Y507D03*
X3186Y507D03*
X3086Y807D03*
X3086Y807D03*
X3186Y807D03*
X3086Y1107D03*
X3086Y1107D03*
X3186Y1107D03*
X2686Y207D03*
X2686Y207D03*
X2786Y207D03*
X2686Y507D03*
X2686Y507D03*
X2786Y507D03*
X2686Y807D03*
X2686Y807D03*
X2786Y807D03*
X2686Y1107D03*
X2686Y1107D03*
X2786Y1107D03*
X2286Y207D03*
X2286Y207D03*
X2386Y207D03*
X2286Y507D03*
X2286Y507D03*
X2386Y507D03*
X2286Y807D03*
X2286Y807D03*
X2386Y807D03*
X2286Y1107D03*
X2286Y1107D03*
X2386Y1107D03*
X1186Y3407D03*
X1186Y3307D03*
X1186Y3207D03*
X1186Y3107D03*
X1186Y3007D03*
X1186Y2907D03*
X1186Y2807D03*
X1186Y2707D03*
X1186Y2607D03*
X1186Y2507D03*
X1186Y2407D03*
X1186Y2307D03*
X1186Y2207D03*
X1186Y2107D03*
X1186Y2007D03*
X1186Y1907D03*
X1186Y1807D03*
X586Y3407D03*
X586Y3307D03*
X586Y3207D03*
X586Y3107D03*
X586Y3007D03*
X586Y2907D03*
X586Y2807D03*
X586Y2707D03*
X586Y2607D03*
X586Y2507D03*
X586Y2407D03*
X586Y2307D03*
X586Y2207D03*
X586Y2107D03*
X586Y2007D03*
G54D12*
X2286Y3407D03*
X2286Y3307D03*
X2286Y3207D03*
X2286Y3107D03*
X2286Y3007D03*
X2286Y2907D03*
X2286Y2807D03*
X2286Y2707D03*
X2286Y2607D03*
X2286Y2507D03*
X2286Y2407D03*
X2286Y2307D03*
X2286Y2207D03*
X2286Y2107D03*
X2286Y2007D03*
G54D11*
X2886Y3407D03*
X2886Y3307D03*
X2886Y3207D03*
X2886Y3107D03*
X2886Y3007D03*
X2886Y2907D03*
X2886Y2807D03*
X2886Y2707D03*
X2886Y2607D03*
X2886Y2507D03*
X2886Y2407D03*
X2886Y2307D03*
X2886Y2207D03*
X2886Y2107D03*
X2886Y2007D03*
X2886Y1907D03*
X2886Y1807D03*
G54D13*
X1956Y3607D03*
X1956Y3107D03*
X1856Y3607D03*
X1856Y3107D03*
X3186Y3257D03*
X3686Y3257D03*
X3186Y2897D03*
X3686Y2897D03*
X3186Y1697D03*
X3686Y1697D03*
X3186Y1997D03*
X3686Y1997D03*
X3186Y2797D03*
X3686Y2797D03*
X3186Y2697D03*
X3686Y2697D03*
X3186Y2597D03*
X3686Y2597D03*
X3186Y2497D03*
X3686Y2497D03*
X3186Y2397D03*
X3686Y2397D03*
X3186Y2297D03*
X3686Y2297D03*
X3186Y2197D03*
X3686Y2197D03*
X3186Y2097D03*
X3686Y2097D03*
X3186Y1897D03*
X3686Y1897D03*
X3186Y1797D03*
X3686Y1797D03*
G54D11*
X1986Y607D03*
X1986Y507D03*
X1986Y407D03*
X1986Y307D03*
X1986Y207D03*
X1986Y107D03*
X1986Y907D03*
X1986Y807D03*
X1986Y707D03*
X1986Y1207D03*
X1986Y1107D03*
X1986Y1007D03*
G54D10*
X2466Y3107D03*
X2546Y3107D03*
X2626Y3107D03*
X2706Y3107D03*
X2746Y3637D03*
G54D14*
X2836Y1627D02*
X2836Y1536D01*
D02*
X2736Y1706D02*
X2836Y1627D01*
D02*
X2736Y1888D02*
X2736Y1706D01*
D02*
X2863Y1988D02*
X2736Y1888D01*
D02*
X2886Y1657D02*
X2796Y1727D01*
D02*
X2796Y1727D02*
X2796Y1837D01*
D02*
X2796Y1837D02*
X2863Y1889D01*
D02*
X2886Y1596D02*
X2886Y1657D01*
D02*
X2916Y3107D02*
X3286Y3107D01*
D02*
X3286Y3107D02*
X3397Y2968D01*
D02*
X3397Y2968D02*
X3396Y1427D01*
D02*
X3396Y1427D02*
X3687Y1268D01*
D02*
X3687Y1268D02*
X3686Y917D01*
D02*
X3686Y917D02*
X3606Y829D01*
D02*
X3287Y3008D02*
X3336Y2947D01*
D02*
X3336Y2947D02*
X3336Y1398D01*
D02*
X2916Y3007D02*
X3287Y3008D01*
D02*
X3336Y1398D02*
X3586Y1258D01*
D02*
X3586Y1258D02*
X3586Y1138D01*
D02*
X2777Y2358D02*
X2787Y3187D01*
D02*
X2407Y1977D02*
X2777Y2358D01*
D02*
X2407Y1707D02*
X2407Y1977D01*
D02*
X2287Y1597D02*
X2407Y1707D01*
D02*
X2287Y1318D02*
X2287Y1597D01*
D02*
X2787Y3187D02*
X2887Y3306D01*
D02*
X2887Y3306D02*
X2906Y3284D01*
D02*
X2286Y1137D02*
X2287Y1318D01*
D02*
X2367Y87D02*
X2303Y182D01*
D02*
X2685Y88D02*
X2367Y87D01*
D02*
X2686Y177D02*
X2685Y88D01*
D02*
X2685Y88D02*
X2686Y177D01*
D02*
X3087Y88D02*
X2685Y88D01*
D02*
X3086Y177D02*
X3087Y88D01*
D02*
X3087Y88D02*
X3086Y177D01*
D02*
X3397Y87D02*
X3087Y88D01*
D02*
X3468Y183D02*
X3397Y87D01*
D02*
X2396Y3107D02*
X2756Y3508D01*
D02*
X3327Y3508D02*
X3466Y3387D01*
D02*
X2756Y3508D02*
X3327Y3508D01*
D02*
X2317Y3107D02*
X2396Y3107D01*
D02*
X3466Y3387D02*
X3466Y1457D01*
D02*
X3466Y1457D02*
X3756Y1298D01*
D02*
X3756Y1298D02*
X3757Y727D01*
D02*
X3757Y727D02*
X3605Y531D01*
D02*
X2367Y3207D02*
X2687Y3566D01*
D02*
X3349Y3570D02*
X3526Y3417D01*
D02*
X3816Y557D02*
X3603Y232D01*
D02*
X3817Y1327D02*
X3816Y557D01*
D02*
X3527Y1488D02*
X3817Y1327D01*
D02*
X3526Y3417D02*
X3527Y1488D01*
D02*
X2687Y3566D02*
X3349Y3570D01*
D02*
X2317Y3207D02*
X2367Y3207D01*
D02*
X2148Y1208D02*
X2016Y1207D01*
D02*
X2287Y1318D02*
X2148Y1208D01*
D02*
X2136Y906D02*
X2016Y907D01*
D02*
X2261Y824D02*
X2136Y906D01*
D02*
X2116Y607D02*
X2260Y522D01*
D02*
X2016Y607D02*
X2116Y607D01*
D02*
X2107Y308D02*
X2260Y222D01*
D02*
X2016Y307D02*
X2107Y308D01*
D02*
X1986Y2597D02*
X1986Y1387D01*
D02*
X2086Y2707D02*
X1986Y2597D01*
D02*
X1986Y1387D02*
X1876Y1297D01*
D02*
X1876Y1297D02*
X1875Y1107D01*
D02*
X1875Y1107D02*
X1964Y1027D01*
D02*
X2256Y2707D02*
X2086Y2707D01*
D02*
X1936Y2647D02*
X1936Y1407D01*
D02*
X1896Y708D02*
X1956Y707D01*
D02*
X1826Y807D02*
X1896Y708D01*
D02*
X1826Y1317D02*
X1826Y807D01*
D02*
X1936Y1407D02*
X1826Y1317D01*
D02*
X2086Y2807D02*
X1936Y2647D01*
D02*
X2256Y2807D02*
X2086Y2807D01*
D02*
X1886Y2697D02*
X1886Y1437D01*
D02*
X1896Y407D02*
X1956Y407D01*
D02*
X2086Y2907D02*
X1886Y2697D01*
D02*
X1886Y1437D02*
X1777Y1347D01*
D02*
X1777Y1347D02*
X1776Y638D01*
D02*
X1776Y638D02*
X1896Y407D01*
D02*
X2256Y2907D02*
X2086Y2907D01*
D02*
X1836Y2747D02*
X1836Y1467D01*
D02*
X1876Y107D02*
X1956Y107D01*
D02*
X1726Y387D02*
X1876Y107D01*
D02*
X1727Y1377D02*
X1726Y387D01*
D02*
X1836Y1467D02*
X1727Y1377D01*
D02*
X2086Y3007D02*
X1836Y2747D01*
D02*
X2256Y3007D02*
X2086Y3007D01*
D02*
X2286Y837D02*
X2286Y1077D01*
D02*
X2286Y537D02*
X2286Y777D01*
D02*
X2286Y237D02*
X2286Y477D01*
D02*
X2686Y837D02*
X2686Y1077D01*
D02*
X3086Y837D02*
X3086Y1077D01*
D02*
X3086Y537D02*
X3086Y777D01*
D02*
X3086Y237D02*
X3086Y477D01*
D02*
X3486Y837D02*
X3486Y1076D01*
D02*
X3486Y537D02*
X3486Y777D01*
D02*
X3486Y237D02*
X3486Y477D01*
D02*
X2686Y537D02*
X2686Y777D01*
D02*
X2686Y237D02*
X2686Y477D01*
D02*
X2707Y2388D02*
X2437Y2107D01*
D02*
X2437Y2107D02*
X2317Y2107D01*
D02*
X2706Y3088D02*
X2707Y2388D01*
D02*
X2435Y2206D02*
X2317Y2207D01*
D02*
X2626Y2407D02*
X2435Y2206D01*
D02*
X2626Y3088D02*
X2626Y2407D01*
D02*
X2546Y2437D02*
X2426Y2308D01*
D02*
X2426Y2308D02*
X2317Y2307D01*
D02*
X2546Y3088D02*
X2546Y2437D01*
D02*
X2467Y2448D02*
X2426Y2407D01*
D02*
X2426Y2407D02*
X2317Y2407D01*
D02*
X2466Y3088D02*
X2467Y2448D01*
D02*
X2606Y3707D02*
X2729Y3646D01*
D02*
X387Y3706D02*
X2606Y3707D01*
D02*
X286Y3608D02*
X387Y3706D01*
D02*
X286Y3537D02*
X286Y3608D01*
D02*
X556Y3407D02*
X316Y3407D01*
D02*
X286Y837D02*
X286Y1077D01*
D02*
X286Y537D02*
X286Y777D01*
D02*
X286Y237D02*
X286Y477D01*
D02*
X686Y837D02*
X686Y1077D01*
D02*
X686Y537D02*
X686Y777D01*
D02*
X686Y237D02*
X686Y477D01*
D02*
X1086Y837D02*
X1086Y1077D01*
D02*
X1086Y537D02*
X1086Y777D01*
D02*
X1086Y237D02*
X1086Y477D01*
D02*
X1486Y837D02*
X1486Y1077D01*
D02*
X1486Y537D02*
X1486Y777D01*
D02*
X1486Y237D02*
X1486Y477D01*
D02*
X686Y107D02*
X365Y107D01*
D02*
X365Y107D02*
X305Y183D01*
D02*
X686Y177D02*
X686Y107D01*
D02*
X686Y107D02*
X686Y177D01*
D02*
X1086Y107D02*
X686Y107D01*
D02*
X1086Y177D02*
X1086Y107D01*
D02*
X1086Y107D02*
X1086Y177D01*
D02*
X1426Y106D02*
X1086Y107D01*
D02*
X1471Y181D02*
X1426Y106D01*
D02*
X207Y2958D02*
X561Y3191D01*
D02*
X206Y1617D02*
X207Y2958D01*
D02*
X786Y1307D02*
X206Y1617D01*
D02*
X786Y1137D02*
X786Y1307D01*
D02*
X867Y898D02*
X806Y830D01*
D02*
X867Y1358D02*
X867Y898D01*
D02*
X277Y1666D02*
X867Y1358D01*
D02*
X277Y2916D02*
X277Y1666D01*
D02*
X561Y3091D02*
X277Y2916D01*
D02*
X926Y666D02*
X806Y530D01*
D02*
X926Y1416D02*
X926Y666D01*
D02*
X347Y1718D02*
X926Y1416D01*
D02*
X347Y2856D02*
X347Y1718D01*
D02*
X561Y2991D02*
X347Y2856D01*
D02*
X986Y417D02*
X807Y229D01*
D02*
X986Y1477D02*
X986Y417D01*
D02*
X416Y1767D02*
X986Y1477D01*
D02*
X416Y2796D02*
X416Y1767D01*
D02*
X561Y2891D02*
X416Y2796D01*
D02*
X286Y1476D02*
X286Y1137D01*
D02*
X125Y1566D02*
X286Y1476D01*
D02*
X125Y2997D02*
X125Y1566D01*
D02*
X561Y3290D02*
X125Y2997D01*
D02*
X2007Y3408D02*
X1216Y3407D01*
D02*
X2256Y3307D02*
X2127Y3307D01*
D02*
X2127Y3307D02*
X2007Y3408D01*
G04 End of Copper0*
M02*