G04 MADE WITH FRITZING*
G04 WWW.FRITZING.ORG*
G04 DOUBLE SIDED*
G04 HOLES PLATED*
G04 CONTOUR ON CENTER OF CONTOUR VECTOR*
%ASAXBY*%
%FSLAX23Y23*%
%MOIN*%
%OFA0B0*%
%SFA1.0B1.0*%
%ADD10C,0.039370*%
%ADD11C,0.078000*%
%ADD12C,0.079370*%
%ADD13C,0.075000*%
%ADD14C,0.024000*%
%LNCOPPER1*%
G90*
G70*
G54D10*
X2886Y1577D03*
X2836Y1517D03*
G54D11*
X1486Y3807D03*
X1386Y3807D03*
X1286Y3807D03*
X1186Y3807D03*
X1486Y207D03*
X1486Y207D03*
X1586Y207D03*
X1086Y807D03*
X1086Y807D03*
X1186Y807D03*
X286Y207D03*
X286Y207D03*
X386Y207D03*
X1086Y207D03*
X1086Y207D03*
X1186Y207D03*
X1086Y507D03*
X1086Y507D03*
X1186Y507D03*
X686Y207D03*
X686Y207D03*
X786Y207D03*
X686Y507D03*
X686Y507D03*
X786Y507D03*
X1086Y1107D03*
X1086Y1107D03*
X1186Y1107D03*
X1486Y1107D03*
X1486Y1107D03*
X1586Y1107D03*
X286Y1107D03*
X286Y1107D03*
X386Y1107D03*
X286Y807D03*
X286Y807D03*
X386Y807D03*
X686Y1107D03*
X686Y1107D03*
X786Y1107D03*
X686Y807D03*
X686Y807D03*
X786Y807D03*
X286Y507D03*
X286Y507D03*
X386Y507D03*
X1626Y1907D03*
X1626Y1907D03*
X1626Y1807D03*
X1626Y2107D03*
X1626Y2107D03*
X1626Y2007D03*
X1626Y2307D03*
X1626Y2307D03*
X1626Y2207D03*
X286Y3407D03*
X286Y3407D03*
X286Y3507D03*
X1626Y2507D03*
X1626Y2507D03*
X1626Y2407D03*
X1486Y807D03*
X1486Y807D03*
X1586Y807D03*
X1486Y507D03*
X1486Y507D03*
X1586Y507D03*
X3486Y207D03*
X3486Y207D03*
X3586Y207D03*
X3486Y507D03*
X3486Y507D03*
X3586Y507D03*
X3486Y807D03*
X3486Y807D03*
X3586Y807D03*
G54D12*
X3486Y1107D03*
X3486Y1107D03*
X3586Y1107D03*
G54D11*
X3086Y207D03*
X3086Y207D03*
X3186Y207D03*
X3086Y507D03*
X3086Y507D03*
X3186Y507D03*
X3086Y807D03*
X3086Y807D03*
X3186Y807D03*
X3086Y1107D03*
X3086Y1107D03*
X3186Y1107D03*
X2686Y207D03*
X2686Y207D03*
X2786Y207D03*
X2686Y507D03*
X2686Y507D03*
X2786Y507D03*
X2686Y807D03*
X2686Y807D03*
X2786Y807D03*
X2686Y1107D03*
X2686Y1107D03*
X2786Y1107D03*
X2286Y207D03*
X2286Y207D03*
X2386Y207D03*
X2286Y507D03*
X2286Y507D03*
X2386Y507D03*
X2286Y807D03*
X2286Y807D03*
X2386Y807D03*
X2286Y1107D03*
X2286Y1107D03*
X2386Y1107D03*
X1186Y3407D03*
X1186Y3307D03*
X1186Y3207D03*
X1186Y3107D03*
X1186Y3007D03*
X1186Y2907D03*
X1186Y2807D03*
X1186Y2707D03*
X1186Y2607D03*
X1186Y2507D03*
X1186Y2407D03*
X1186Y2307D03*
X1186Y2207D03*
X1186Y2107D03*
X1186Y2007D03*
X1186Y1907D03*
X1186Y1807D03*
X586Y3407D03*
X586Y3307D03*
X586Y3207D03*
X586Y3107D03*
X586Y3007D03*
X586Y2907D03*
X586Y2807D03*
X586Y2707D03*
X586Y2607D03*
X586Y2507D03*
X586Y2407D03*
X586Y2307D03*
X586Y2207D03*
X586Y2107D03*
X586Y2007D03*
G54D12*
X2286Y3407D03*
X2286Y3307D03*
X2286Y3207D03*
X2286Y3107D03*
X2286Y3007D03*
X2286Y2907D03*
X2286Y2807D03*
X2286Y2707D03*
X2286Y2607D03*
X2286Y2507D03*
X2286Y2407D03*
X2286Y2307D03*
X2286Y2207D03*
X2286Y2107D03*
X2286Y2007D03*
G54D11*
X2886Y3407D03*
X2886Y3307D03*
X2886Y3207D03*
X2886Y3107D03*
X2886Y3007D03*
X2886Y2907D03*
X2886Y2807D03*
X2886Y2707D03*
X2886Y2607D03*
X2886Y2507D03*
X2886Y2407D03*
X2886Y2307D03*
X2886Y2207D03*
X2886Y2107D03*
X2886Y2007D03*
X2886Y1907D03*
X2886Y1807D03*
G54D13*
X1956Y3607D03*
X1956Y3107D03*
X1856Y3607D03*
X1856Y3107D03*
X3186Y3257D03*
X3686Y3257D03*
X3186Y2897D03*
X3686Y2897D03*
X3186Y1697D03*
X3686Y1697D03*
X3186Y1997D03*
X3686Y1997D03*
X3186Y2797D03*
X3686Y2797D03*
X3186Y2697D03*
X3686Y2697D03*
X3186Y2597D03*
X3686Y2597D03*
X3186Y2497D03*
X3686Y2497D03*
X3186Y2397D03*
X3686Y2397D03*
X3186Y2297D03*
X3686Y2297D03*
X3186Y2197D03*
X3686Y2197D03*
X3186Y2097D03*
X3686Y2097D03*
X3186Y1897D03*
X3686Y1897D03*
X3186Y1797D03*
X3686Y1797D03*
G54D11*
X1986Y607D03*
X1986Y507D03*
X1986Y407D03*
X1986Y307D03*
X1986Y207D03*
X1986Y107D03*
X1986Y907D03*
X1986Y807D03*
X1986Y707D03*
X1986Y1207D03*
X1986Y1107D03*
X1986Y1007D03*
G54D10*
X2466Y3107D03*
X2546Y3107D03*
X2626Y3107D03*
X2706Y3107D03*
X2746Y3637D03*
G54D14*
X1286Y3307D02*
X1216Y3307D01*
D02*
X1286Y3777D02*
X1286Y3307D01*
D02*
X1186Y3777D02*
X1186Y3437D01*
D02*
X3276Y1267D02*
X2853Y1508D01*
D02*
X2806Y3367D02*
X2862Y3325D01*
D02*
X3577Y3407D02*
X2916Y3407D01*
D02*
X1386Y3197D02*
X1296Y3106D01*
D02*
X1446Y3117D02*
X1336Y3007D01*
D02*
X1446Y3547D02*
X1446Y3117D01*
D02*
X1486Y3677D02*
X1446Y3547D01*
D02*
X1296Y3106D02*
X1216Y3107D01*
D02*
X1336Y3007D02*
X1216Y3007D01*
D02*
X1486Y3777D02*
X1486Y3677D01*
D02*
X1386Y3777D02*
X1386Y3197D01*
D02*
X3686Y3305D02*
X3577Y3407D01*
D02*
X2915Y2597D02*
X3159Y2507D01*
D02*
X2915Y2697D02*
X3159Y2607D01*
D02*
X2915Y2797D02*
X3159Y2707D01*
D02*
X2915Y2897D02*
X3159Y2807D01*
D02*
X3686Y3286D02*
X3686Y3305D01*
D02*
X3686Y2626D02*
X3686Y2668D01*
D02*
X3686Y2726D02*
X3686Y2768D01*
D02*
X2915Y1797D02*
X3159Y1707D01*
D02*
X2915Y1897D02*
X3159Y1807D01*
D02*
X2915Y1997D02*
X3159Y1907D01*
D02*
X2915Y2097D02*
X3159Y2007D01*
D02*
X2915Y2197D02*
X3159Y2107D01*
D02*
X2915Y2297D02*
X3159Y2207D01*
D02*
X2915Y2397D02*
X3159Y2307D01*
D02*
X2915Y2497D02*
X3159Y2407D01*
D02*
X3686Y1926D02*
X3686Y1968D01*
D02*
X3686Y2026D02*
X3686Y2068D01*
D02*
X3686Y2126D02*
X3686Y2168D01*
D02*
X3686Y2226D02*
X3686Y2268D01*
D02*
X3686Y2326D02*
X3686Y2368D01*
D02*
X3686Y2426D02*
X3686Y2468D01*
D02*
X3686Y2526D02*
X3686Y2568D01*
D02*
X2436Y1287D02*
X2466Y1187D01*
D02*
X2466Y1187D02*
X2466Y1047D01*
D02*
X2466Y1047D02*
X2396Y836D01*
D02*
X2436Y2338D02*
X2436Y1287D01*
D02*
X2386Y2398D02*
X2386Y1137D01*
D02*
X2865Y2785D02*
X2436Y2338D01*
D02*
X2865Y2886D02*
X2386Y2398D01*
D02*
X3686Y1726D02*
X3686Y1768D01*
D02*
X3686Y1826D02*
X3686Y1868D01*
D02*
X2686Y2098D02*
X2686Y1387D01*
D02*
X2686Y1387D02*
X2917Y1257D01*
D02*
X2917Y1257D02*
X2916Y797D01*
D02*
X2916Y797D02*
X2799Y535D01*
D02*
X2865Y2285D02*
X2686Y2098D01*
D02*
X2637Y2147D02*
X2637Y1357D01*
D02*
X2637Y1357D02*
X2866Y1217D01*
D02*
X2866Y1217D02*
X2867Y1056D01*
D02*
X2867Y1056D02*
X2796Y836D01*
D02*
X2865Y2385D02*
X2637Y2147D01*
D02*
X2586Y2188D02*
X2587Y1317D01*
D02*
X2587Y1317D02*
X2786Y1198D01*
D02*
X2786Y1198D02*
X2786Y1137D01*
D02*
X2866Y2485D02*
X2586Y2188D01*
D02*
X2536Y1307D02*
X2587Y1167D01*
D02*
X2486Y1297D02*
X2526Y1158D01*
D02*
X2526Y1158D02*
X2526Y796D01*
D02*
X2587Y1167D02*
X2586Y496D01*
D02*
X2526Y796D02*
X2399Y534D01*
D02*
X2586Y496D02*
X2403Y232D01*
D02*
X2536Y2237D02*
X2536Y1307D01*
D02*
X2487Y2287D02*
X2486Y1297D01*
D02*
X2866Y2585D02*
X2536Y2237D01*
D02*
X2866Y2685D02*
X2487Y2287D01*
D02*
X2736Y2047D02*
X2736Y1428D01*
D02*
X2787Y1997D02*
X2786Y1467D01*
D02*
X3387Y507D02*
X3203Y232D01*
D02*
X3386Y1367D02*
X3387Y507D01*
D02*
X2886Y1657D02*
X3386Y1367D01*
D02*
X2886Y1777D02*
X2886Y1657D01*
D02*
X3336Y797D02*
X3200Y534D01*
D02*
X3337Y1317D02*
X3336Y797D01*
D02*
X2903Y1568D02*
X3337Y1317D01*
D02*
X3276Y1267D02*
X3276Y1057D01*
D02*
X3276Y1057D02*
X3196Y835D01*
D02*
X2786Y1467D02*
X3187Y1237D01*
D02*
X3187Y1237D02*
X3186Y1137D01*
D02*
X2866Y2085D02*
X2787Y1997D01*
D02*
X2736Y1428D02*
X2967Y1297D01*
D02*
X2967Y1297D02*
X2967Y508D01*
D02*
X2967Y508D02*
X2802Y233D01*
D02*
X2866Y2185D02*
X2736Y2047D01*
D02*
X2126Y3106D02*
X2028Y3007D01*
D02*
X2136Y3207D02*
X2028Y3107D01*
D02*
X2028Y3107D02*
X1985Y3107D01*
D02*
X2028Y3007D02*
X1946Y3007D01*
D02*
X1946Y3007D02*
X1875Y3086D01*
D02*
X1776Y3527D02*
X1836Y3587D01*
D02*
X2087Y806D02*
X2016Y807D01*
D02*
X2087Y1107D02*
X2087Y806D01*
D02*
X1776Y2846D02*
X1776Y3527D01*
D02*
X2087Y2538D02*
X1776Y2846D01*
D02*
X2087Y1107D02*
X2087Y2538D01*
D02*
X2016Y1107D02*
X2087Y1107D01*
D02*
X2256Y3107D02*
X2126Y3106D01*
D02*
X2256Y3207D02*
X2136Y3207D01*
D02*
X1885Y3607D02*
X1928Y3607D01*
D02*
X2126Y3307D02*
X2256Y3307D01*
D02*
X1985Y3607D02*
X2017Y3607D01*
D02*
X2017Y3607D02*
X2067Y3547D01*
D02*
X2067Y3547D02*
X2067Y3357D01*
D02*
X2067Y3357D02*
X2126Y3307D01*
D02*
X2913Y3121D02*
X3161Y3244D01*
D02*
X2915Y2997D02*
X3159Y2907D01*
D02*
X3686Y2826D02*
X3686Y2868D01*
D02*
X3686Y3228D02*
X3686Y2926D01*
D02*
X2087Y207D02*
X2016Y207D01*
D02*
X2087Y508D02*
X2087Y207D01*
D02*
X2087Y508D02*
X2016Y507D01*
D02*
X2087Y806D02*
X2087Y508D01*
D02*
X1216Y2107D02*
X1287Y2106D01*
D02*
X1216Y2007D02*
X1287Y2007D01*
D02*
X1216Y1907D02*
X1287Y1907D01*
D02*
X1216Y1807D02*
X1596Y1807D01*
D02*
X1376Y2007D02*
X1596Y2007D01*
D02*
X1456Y2208D02*
X1596Y2207D01*
D02*
X1287Y2007D02*
X1456Y2208D01*
D02*
X1287Y1907D02*
X1376Y2007D01*
D02*
X1627Y2648D02*
X1537Y2746D01*
D02*
X1766Y2376D02*
X1766Y2587D01*
D02*
X1537Y2746D02*
X1537Y3626D01*
D02*
X1537Y3626D02*
X1727Y3857D01*
D02*
X1727Y3857D02*
X2346Y3858D01*
D02*
X2346Y3858D02*
X2706Y3488D01*
D02*
X2706Y3488D02*
X2706Y3126D01*
D02*
X1626Y2537D02*
X1627Y2648D01*
D02*
X1766Y2587D02*
X1596Y2766D01*
D02*
X1596Y2766D02*
X1597Y3617D01*
D02*
X1597Y3617D02*
X1756Y3796D01*
D02*
X1756Y3796D02*
X2326Y3798D01*
D02*
X2326Y3798D02*
X2626Y3488D01*
D02*
X2626Y3488D02*
X2626Y3126D01*
D02*
X1653Y2320D02*
X1766Y2376D01*
D02*
X1856Y2238D02*
X1856Y2587D01*
D02*
X1856Y2587D02*
X1656Y2787D01*
D02*
X1656Y2787D02*
X1657Y3608D01*
D02*
X1657Y3608D02*
X1777Y3737D01*
D02*
X1777Y3737D02*
X2307Y3737D01*
D02*
X2307Y3737D02*
X2546Y3488D01*
D02*
X2546Y3488D02*
X2546Y3126D01*
D02*
X1652Y2122D02*
X1856Y2238D01*
D02*
X1916Y2097D02*
X1917Y2617D01*
D02*
X1917Y2617D02*
X1717Y2818D01*
D02*
X1717Y2818D02*
X1716Y3587D01*
D02*
X1716Y3587D02*
X1796Y3677D01*
D02*
X1796Y3677D02*
X2286Y3677D01*
D02*
X2286Y3677D02*
X2466Y3488D01*
D02*
X2466Y3488D02*
X2466Y3126D01*
D02*
X1651Y1924D02*
X1916Y2097D01*
D02*
X226Y2218D02*
X226Y1278D01*
D02*
X386Y1167D02*
X386Y1137D01*
D02*
X296Y2156D02*
X296Y1308D01*
D02*
X366Y2116D02*
X467Y2208D01*
D02*
X467Y2208D02*
X556Y2207D01*
D02*
X366Y1338D02*
X366Y2116D01*
D02*
X537Y1216D02*
X366Y1338D01*
D02*
X537Y657D02*
X537Y1216D01*
D02*
X408Y528D02*
X537Y657D01*
D02*
X477Y898D02*
X408Y828D01*
D02*
X477Y1187D02*
X477Y898D01*
D02*
X296Y1308D02*
X477Y1187D01*
D02*
X467Y2307D02*
X296Y2156D01*
D02*
X556Y2307D02*
X467Y2307D01*
D02*
X226Y1278D02*
X386Y1167D01*
D02*
X457Y2407D02*
X226Y2218D01*
D02*
X556Y2407D02*
X457Y2407D01*
D02*
X2806Y3607D02*
X2806Y3367D01*
D02*
X2763Y3629D02*
X2806Y3607D01*
D02*
X1547Y2407D02*
X1596Y2407D01*
D02*
X1287Y2106D02*
X1547Y2407D01*
D02*
X836Y2427D02*
X836Y1597D01*
D02*
X936Y2287D02*
X936Y1678D01*
D02*
X1036Y2167D02*
X1157Y2199D01*
D02*
X1036Y1757D02*
X1036Y2167D01*
D02*
X1797Y1386D02*
X1036Y1757D01*
D02*
X1796Y537D02*
X1797Y1386D01*
D02*
X1602Y232D02*
X1796Y537D01*
D02*
X987Y2228D02*
X1158Y2296D01*
D02*
X987Y1717D02*
X987Y2228D01*
D02*
X1736Y1337D02*
X987Y1717D01*
D02*
X1736Y737D02*
X1736Y1337D01*
D02*
X1603Y532D02*
X1736Y737D01*
D02*
X1676Y907D02*
X1606Y829D01*
D02*
X1676Y1297D02*
X1676Y907D01*
D02*
X936Y1678D02*
X1676Y1297D01*
D02*
X1159Y2394D02*
X936Y2287D01*
D02*
X887Y2356D02*
X1159Y2494D01*
D02*
X886Y1637D02*
X887Y2356D01*
D02*
X1586Y1277D02*
X886Y1637D01*
D02*
X1586Y1137D02*
X1586Y1277D01*
D02*
X1386Y496D02*
X1203Y232D01*
D02*
X1386Y1317D02*
X1386Y496D01*
D02*
X836Y1597D02*
X1386Y1317D01*
D02*
X1160Y2593D02*
X836Y2427D01*
D02*
X1326Y717D02*
X1326Y1287D01*
D02*
X1326Y1287D02*
X787Y1558D01*
D02*
X787Y1558D02*
X787Y2487D01*
D02*
X787Y2487D02*
X1160Y2693D01*
D02*
X1203Y532D02*
X1326Y717D01*
D02*
X1268Y938D02*
X1202Y833D01*
D02*
X1266Y1247D02*
X1268Y938D01*
D02*
X736Y1517D02*
X1266Y1247D01*
D02*
X737Y2547D02*
X736Y1517D01*
D02*
X1160Y2792D02*
X737Y2547D01*
D02*
X686Y2617D02*
X686Y1477D01*
D02*
X1160Y2892D02*
X686Y2617D01*
D02*
X686Y1477D02*
X1187Y1227D01*
D02*
X1187Y1227D02*
X1186Y1137D01*
D02*
X437Y2057D02*
X437Y1368D01*
D02*
X597Y408D02*
X408Y228D01*
D02*
X597Y1246D02*
X597Y408D01*
D02*
X437Y1368D02*
X597Y1246D01*
D02*
X487Y2106D02*
X437Y2057D01*
D02*
X556Y2107D02*
X487Y2106D01*
G04 End of Copper1*
M02*