G04 MADE WITH FRITZING*
G04 WWW.FRITZING.ORG*
G04 DOUBLE SIDED*
G04 HOLES PLATED*
G04 CONTOUR ON CENTER OF CONTOUR VECTOR*
%ASAXBY*%
%FSLAX23Y23*%
%MOIN*%
%OFA0B0*%
%SFA1.0B1.0*%
%ADD10C,0.008*%
%LNCONTOUR*%
G90*
G70*
G54D10*
X377Y3937D02*
X378Y3937D01*
X379Y3937D01*
X380Y3937D01*
X381Y3937D01*
X382Y3937D01*
X383Y3937D01*
X384Y3937D01*
X385Y3937D01*
X386Y3937D01*
X387Y3937D01*
X388Y3937D01*
X389Y3937D01*
X390Y3937D01*
X391Y3937D01*
X392Y3937D01*
X393Y3937D01*
X394Y3937D01*
X395Y3937D01*
X396Y3937D01*
X397Y3937D01*
X398Y3937D01*
X399Y3937D01*
X400Y3937D01*
X401Y3937D01*
X402Y3937D01*
X403Y3937D01*
X404Y3937D01*
X405Y3937D01*
X406Y3937D01*
X407Y3937D01*
X408Y3937D01*
X409Y3937D01*
X410Y3937D01*
X411Y3937D01*
X412Y3937D01*
X413Y3937D01*
X414Y3937D01*
X415Y3937D01*
X416Y3937D01*
X417Y3937D01*
X418Y3937D01*
X419Y3937D01*
X420Y3937D01*
X421Y3937D01*
X422Y3937D01*
X423Y3937D01*
X424Y3937D01*
X425Y3937D01*
X426Y3937D01*
X427Y3937D01*
X428Y3937D01*
X429Y3937D01*
X430Y3937D01*
X431Y3937D01*
X432Y3937D01*
X433Y3937D01*
X434Y3937D01*
X435Y3937D01*
X436Y3937D01*
X437Y3937D01*
X438Y3937D01*
X439Y3937D01*
X440Y3937D01*
X441Y3937D01*
X442Y3937D01*
X443Y3937D01*
X444Y3937D01*
X445Y3937D01*
X446Y3937D01*
X447Y3937D01*
X448Y3937D01*
X449Y3937D01*
X450Y3937D01*
X451Y3937D01*
X452Y3937D01*
X453Y3937D01*
X454Y3937D01*
X455Y3937D01*
X456Y3937D01*
X457Y3937D01*
X458Y3937D01*
X459Y3937D01*
X460Y3937D01*
X461Y3937D01*
X462Y3937D01*
X463Y3937D01*
X464Y3937D01*
X465Y3937D01*
X466Y3937D01*
X467Y3937D01*
X468Y3937D01*
X469Y3937D01*
X470Y3937D01*
X471Y3937D01*
X472Y3937D01*
X473Y3937D01*
X474Y3937D01*
X475Y3937D01*
X476Y3937D01*
X477Y3937D01*
X478Y3937D01*
X479Y3937D01*
X480Y3937D01*
X481Y3937D01*
X482Y3937D01*
X483Y3937D01*
X484Y3937D01*
X485Y3937D01*
X486Y3937D01*
X487Y3937D01*
X488Y3937D01*
X489Y3937D01*
X490Y3937D01*
X491Y3937D01*
X492Y3937D01*
X493Y3937D01*
X494Y3937D01*
X495Y3937D01*
X496Y3937D01*
X497Y3937D01*
X498Y3937D01*
X499Y3937D01*
X500Y3937D01*
X501Y3937D01*
X502Y3937D01*
X503Y3937D01*
X504Y3937D01*
X505Y3937D01*
X506Y3937D01*
X507Y3937D01*
X508Y3937D01*
X509Y3937D01*
X510Y3937D01*
X511Y3937D01*
X512Y3937D01*
X513Y3937D01*
X514Y3937D01*
X515Y3937D01*
X516Y3937D01*
X517Y3937D01*
X518Y3937D01*
X519Y3937D01*
X520Y3937D01*
X521Y3937D01*
X522Y3937D01*
X523Y3937D01*
X524Y3937D01*
X525Y3937D01*
X526Y3937D01*
X527Y3937D01*
X528Y3937D01*
X529Y3937D01*
X530Y3937D01*
X531Y3937D01*
X532Y3937D01*
X533Y3937D01*
X534Y3937D01*
X535Y3937D01*
X536Y3937D01*
X537Y3937D01*
X538Y3937D01*
X539Y3937D01*
X540Y3937D01*
X541Y3937D01*
X542Y3937D01*
X543Y3937D01*
X544Y3937D01*
X545Y3937D01*
X546Y3937D01*
X547Y3937D01*
X548Y3937D01*
X549Y3937D01*
X550Y3937D01*
X551Y3937D01*
X552Y3937D01*
X553Y3937D01*
X554Y3937D01*
X555Y3937D01*
X556Y3937D01*
X557Y3937D01*
X558Y3937D01*
X559Y3937D01*
X560Y3937D01*
X561Y3937D01*
X562Y3937D01*
X563Y3937D01*
X564Y3937D01*
X565Y3937D01*
X566Y3937D01*
X567Y3937D01*
X568Y3937D01*
X569Y3937D01*
X570Y3937D01*
X571Y3937D01*
X572Y3937D01*
X573Y3937D01*
X574Y3937D01*
X575Y3937D01*
X576Y3937D01*
X577Y3937D01*
X578Y3937D01*
X579Y3937D01*
X580Y3937D01*
X581Y3937D01*
X582Y3937D01*
X583Y3937D01*
X584Y3937D01*
X585Y3937D01*
X586Y3937D01*
X587Y3937D01*
X588Y3937D01*
X589Y3937D01*
X590Y3937D01*
X591Y3937D01*
X592Y3937D01*
X593Y3937D01*
X594Y3937D01*
X595Y3937D01*
X596Y3937D01*
X597Y3937D01*
X598Y3937D01*
X599Y3937D01*
X600Y3937D01*
X601Y3937D01*
X602Y3937D01*
X603Y3937D01*
X604Y3937D01*
X605Y3937D01*
X606Y3937D01*
X607Y3937D01*
X608Y3937D01*
X609Y3937D01*
X610Y3937D01*
X611Y3937D01*
X612Y3937D01*
X613Y3937D01*
X614Y3937D01*
X615Y3937D01*
X616Y3937D01*
X617Y3937D01*
X618Y3937D01*
X619Y3937D01*
X620Y3937D01*
X621Y3937D01*
X622Y3937D01*
X623Y3937D01*
X624Y3937D01*
X625Y3937D01*
X626Y3937D01*
X627Y3937D01*
X628Y3937D01*
X629Y3937D01*
X630Y3937D01*
X631Y3937D01*
X632Y3937D01*
X633Y3937D01*
X634Y3937D01*
X635Y3937D01*
X636Y3937D01*
X637Y3937D01*
X638Y3937D01*
X639Y3937D01*
X640Y3937D01*
X641Y3937D01*
X642Y3937D01*
X643Y3937D01*
X644Y3937D01*
X645Y3937D01*
X646Y3937D01*
X647Y3937D01*
X648Y3937D01*
X649Y3937D01*
X650Y3937D01*
X651Y3937D01*
X652Y3937D01*
X653Y3937D01*
X654Y3937D01*
X655Y3937D01*
X656Y3937D01*
X657Y3937D01*
X658Y3937D01*
X659Y3937D01*
X660Y3937D01*
X661Y3937D01*
X662Y3937D01*
X663Y3937D01*
X664Y3937D01*
X665Y3937D01*
X666Y3937D01*
X667Y3937D01*
X668Y3937D01*
X669Y3937D01*
X670Y3937D01*
X671Y3937D01*
X672Y3937D01*
X673Y3937D01*
X674Y3937D01*
X675Y3937D01*
X676Y3937D01*
X677Y3937D01*
X678Y3937D01*
X679Y3937D01*
X680Y3937D01*
X681Y3937D01*
X682Y3937D01*
X683Y3937D01*
X684Y3937D01*
X685Y3937D01*
X686Y3937D01*
X687Y3937D01*
X688Y3937D01*
X689Y3937D01*
X690Y3937D01*
X691Y3937D01*
X692Y3937D01*
X693Y3937D01*
X694Y3937D01*
X695Y3937D01*
X696Y3937D01*
X697Y3937D01*
X698Y3937D01*
X699Y3937D01*
X700Y3937D01*
X701Y3937D01*
X702Y3937D01*
X703Y3937D01*
X704Y3937D01*
X705Y3937D01*
X706Y3937D01*
X707Y3937D01*
X708Y3937D01*
X709Y3937D01*
X710Y3937D01*
X711Y3937D01*
X712Y3937D01*
X713Y3937D01*
X714Y3937D01*
X715Y3937D01*
X716Y3937D01*
X717Y3937D01*
X718Y3937D01*
X719Y3937D01*
X720Y3937D01*
X721Y3937D01*
X722Y3937D01*
X723Y3937D01*
X724Y3937D01*
X725Y3937D01*
X726Y3937D01*
X727Y3937D01*
X728Y3937D01*
X729Y3937D01*
X730Y3937D01*
X731Y3937D01*
X732Y3937D01*
X733Y3937D01*
X734Y3937D01*
X735Y3937D01*
X736Y3937D01*
X737Y3937D01*
X738Y3937D01*
X739Y3937D01*
X740Y3937D01*
X741Y3937D01*
X742Y3937D01*
X743Y3937D01*
X744Y3937D01*
X745Y3937D01*
X746Y3937D01*
X747Y3937D01*
X748Y3937D01*
X749Y3937D01*
X750Y3937D01*
X751Y3937D01*
X752Y3937D01*
X753Y3937D01*
X754Y3937D01*
X755Y3937D01*
X756Y3937D01*
X757Y3937D01*
X758Y3937D01*
X759Y3937D01*
X760Y3937D01*
X761Y3937D01*
X762Y3937D01*
X763Y3937D01*
X764Y3937D01*
X765Y3937D01*
X766Y3937D01*
X767Y3937D01*
X768Y3937D01*
X769Y3937D01*
X770Y3937D01*
X771Y3937D01*
X772Y3937D01*
X773Y3937D01*
X774Y3937D01*
X775Y3937D01*
X776Y3937D01*
X777Y3937D01*
X778Y3937D01*
X779Y3937D01*
X780Y3937D01*
X781Y3937D01*
X782Y3937D01*
X783Y3937D01*
X784Y3937D01*
X785Y3937D01*
X786Y3937D01*
X787Y3937D01*
X788Y3937D01*
X789Y3937D01*
X790Y3937D01*
X791Y3937D01*
X792Y3937D01*
X793Y3937D01*
X794Y3937D01*
X795Y3937D01*
X796Y3937D01*
X797Y3937D01*
X798Y3937D01*
X799Y3937D01*
X800Y3937D01*
X801Y3937D01*
X802Y3937D01*
X803Y3937D01*
X804Y3937D01*
X805Y3937D01*
X806Y3937D01*
X807Y3937D01*
X808Y3937D01*
X809Y3937D01*
X810Y3937D01*
X811Y3937D01*
X812Y3937D01*
X813Y3937D01*
X814Y3937D01*
X815Y3937D01*
X816Y3937D01*
X817Y3937D01*
X818Y3937D01*
X819Y3937D01*
X820Y3937D01*
X821Y3937D01*
X822Y3937D01*
X823Y3937D01*
X824Y3937D01*
X825Y3937D01*
X826Y3937D01*
X827Y3937D01*
X828Y3937D01*
X829Y3937D01*
X830Y3937D01*
X831Y3937D01*
X832Y3937D01*
X833Y3937D01*
X834Y3937D01*
X835Y3937D01*
X836Y3937D01*
X837Y3937D01*
X838Y3937D01*
X839Y3937D01*
X840Y3937D01*
X841Y3937D01*
X842Y3937D01*
X843Y3937D01*
X844Y3937D01*
X845Y3937D01*
X846Y3937D01*
X847Y3937D01*
X848Y3937D01*
X849Y3937D01*
X850Y3937D01*
X851Y3937D01*
X852Y3937D01*
X853Y3937D01*
X854Y3937D01*
X855Y3937D01*
X856Y3937D01*
X857Y3937D01*
X858Y3937D01*
X859Y3937D01*
X860Y3937D01*
X861Y3937D01*
X862Y3937D01*
X863Y3937D01*
X864Y3937D01*
X865Y3937D01*
X866Y3937D01*
X867Y3937D01*
X868Y3937D01*
X869Y3937D01*
X870Y3937D01*
X871Y3937D01*
X872Y3937D01*
X873Y3937D01*
X874Y3937D01*
X875Y3937D01*
X876Y3937D01*
X877Y3937D01*
X878Y3937D01*
X879Y3937D01*
X880Y3937D01*
X881Y3937D01*
X882Y3937D01*
X883Y3937D01*
X884Y3937D01*
X885Y3937D01*
X886Y3937D01*
X887Y3937D01*
X888Y3937D01*
X889Y3937D01*
X890Y3937D01*
X891Y3937D01*
X892Y3937D01*
X893Y3937D01*
X894Y3937D01*
X895Y3937D01*
X896Y3937D01*
X897Y3937D01*
X898Y3937D01*
X899Y3937D01*
X900Y3937D01*
X901Y3937D01*
X902Y3937D01*
X903Y3937D01*
X904Y3937D01*
X905Y3937D01*
X906Y3937D01*
X907Y3937D01*
X908Y3937D01*
X909Y3937D01*
X910Y3937D01*
X911Y3937D01*
X912Y3937D01*
X913Y3937D01*
X914Y3937D01*
X915Y3937D01*
X916Y3937D01*
X917Y3937D01*
X918Y3937D01*
X919Y3937D01*
X920Y3937D01*
X921Y3937D01*
X922Y3937D01*
X923Y3937D01*
X924Y3937D01*
X925Y3937D01*
X926Y3937D01*
X927Y3937D01*
X928Y3937D01*
X929Y3937D01*
X930Y3937D01*
X931Y3937D01*
X932Y3937D01*
X933Y3937D01*
X934Y3937D01*
X935Y3937D01*
X936Y3937D01*
X937Y3937D01*
X938Y3937D01*
X939Y3937D01*
X940Y3937D01*
X941Y3937D01*
X942Y3937D01*
X943Y3937D01*
X944Y3937D01*
X945Y3937D01*
X946Y3937D01*
X947Y3937D01*
X948Y3937D01*
X949Y3937D01*
X950Y3937D01*
X951Y3937D01*
X952Y3937D01*
X953Y3937D01*
X954Y3937D01*
X955Y3937D01*
X956Y3937D01*
X957Y3937D01*
X958Y3937D01*
X959Y3937D01*
X960Y3937D01*
X961Y3937D01*
X962Y3937D01*
X963Y3937D01*
X964Y3937D01*
X965Y3937D01*
X966Y3937D01*
X967Y3937D01*
X968Y3937D01*
X969Y3937D01*
X970Y3937D01*
X971Y3937D01*
X972Y3937D01*
X973Y3937D01*
X974Y3937D01*
X975Y3937D01*
X976Y3937D01*
X977Y3937D01*
X978Y3937D01*
X979Y3937D01*
X980Y3937D01*
X981Y3937D01*
X982Y3937D01*
X983Y3937D01*
X984Y3937D01*
X985Y3937D01*
X986Y3937D01*
X987Y3937D01*
X988Y3937D01*
X989Y3937D01*
X990Y3937D01*
X991Y3937D01*
X992Y3937D01*
X993Y3937D01*
X994Y3937D01*
X995Y3937D01*
X996Y3937D01*
X997Y3937D01*
X998Y3937D01*
X999Y3937D01*
X1000Y3937D01*
X1001Y3937D01*
X1002Y3937D01*
X1003Y3937D01*
X1004Y3937D01*
X1005Y3937D01*
X1006Y3937D01*
X1007Y3937D01*
X1008Y3937D01*
X1009Y3937D01*
X1010Y3937D01*
X1011Y3937D01*
X1012Y3937D01*
X1013Y3937D01*
X1014Y3937D01*
X1015Y3937D01*
X1016Y3937D01*
X1017Y3937D01*
X1018Y3937D01*
X1019Y3937D01*
X1020Y3937D01*
X1021Y3937D01*
X1022Y3937D01*
X1023Y3937D01*
X1024Y3937D01*
X1025Y3937D01*
X1026Y3937D01*
X1027Y3937D01*
X1028Y3937D01*
X1029Y3937D01*
X1030Y3937D01*
X1031Y3937D01*
X1032Y3937D01*
X1033Y3937D01*
X1034Y3937D01*
X1035Y3937D01*
X1036Y3937D01*
X1037Y3937D01*
X1038Y3937D01*
X1039Y3937D01*
X1040Y3937D01*
X1041Y3937D01*
X1042Y3937D01*
X1043Y3937D01*
X1044Y3937D01*
X1045Y3937D01*
X1046Y3937D01*
X1047Y3937D01*
X1048Y3937D01*
X1049Y3937D01*
X1050Y3937D01*
X1051Y3937D01*
X1052Y3937D01*
X1053Y3937D01*
X1054Y3937D01*
X1055Y3937D01*
X1056Y3937D01*
X1057Y3937D01*
X1058Y3937D01*
X1059Y3937D01*
X1060Y3937D01*
X1061Y3937D01*
X1062Y3937D01*
X1063Y3937D01*
X1064Y3937D01*
X1065Y3937D01*
X1066Y3937D01*
X1067Y3937D01*
X1068Y3937D01*
X1069Y3937D01*
X1070Y3937D01*
X1071Y3937D01*
X1072Y3937D01*
X1073Y3937D01*
X1074Y3937D01*
X1075Y3937D01*
X1076Y3937D01*
X1077Y3937D01*
X1078Y3937D01*
X1079Y3937D01*
X1080Y3937D01*
X1081Y3937D01*
X1082Y3937D01*
X1083Y3937D01*
X1084Y3937D01*
X1085Y3937D01*
X1086Y3937D01*
X1087Y3937D01*
X1088Y3937D01*
X1089Y3937D01*
X1090Y3937D01*
X1091Y3937D01*
X1092Y3937D01*
X1093Y3937D01*
X1094Y3937D01*
X1095Y3937D01*
X1096Y3937D01*
X1097Y3937D01*
X1098Y3937D01*
X1099Y3937D01*
X1100Y3937D01*
X1101Y3937D01*
X1102Y3937D01*
X1103Y3937D01*
X1104Y3937D01*
X1105Y3937D01*
X1106Y3937D01*
X1107Y3937D01*
X1108Y3937D01*
X1109Y3937D01*
X1110Y3937D01*
X1111Y3937D01*
X1112Y3937D01*
X1113Y3937D01*
X1114Y3937D01*
X1115Y3937D01*
X1116Y3937D01*
X1117Y3937D01*
X1118Y3937D01*
X1119Y3937D01*
X1120Y3937D01*
X1121Y3937D01*
X1122Y3937D01*
X1123Y3937D01*
X1124Y3937D01*
X1125Y3937D01*
X1126Y3937D01*
X1127Y3937D01*
X1128Y3937D01*
X1129Y3937D01*
X1130Y3937D01*
X1131Y3937D01*
X1132Y3937D01*
X1133Y3937D01*
X1134Y3937D01*
X1135Y3937D01*
X1136Y3937D01*
X1137Y3937D01*
X1138Y3937D01*
X1139Y3937D01*
X1140Y3937D01*
X1141Y3937D01*
X1142Y3937D01*
X1143Y3937D01*
X1144Y3937D01*
X1145Y3937D01*
X1146Y3937D01*
X1147Y3937D01*
X1148Y3937D01*
X1149Y3937D01*
X1150Y3937D01*
X1151Y3937D01*
X1152Y3937D01*
X1153Y3937D01*
X1154Y3937D01*
X1155Y3937D01*
X1156Y3937D01*
X1157Y3937D01*
X1158Y3937D01*
X1159Y3937D01*
X1160Y3937D01*
X1161Y3937D01*
X1162Y3937D01*
X1163Y3937D01*
X1164Y3937D01*
X1165Y3937D01*
X1166Y3937D01*
X1167Y3937D01*
X1168Y3937D01*
X1169Y3937D01*
X1170Y3937D01*
X1171Y3937D01*
X1172Y3937D01*
X1173Y3937D01*
X1174Y3937D01*
X1175Y3937D01*
X1176Y3937D01*
X1177Y3937D01*
X1178Y3937D01*
X1179Y3937D01*
X1180Y3937D01*
X1181Y3937D01*
X1182Y3937D01*
X1183Y3937D01*
X1184Y3937D01*
X1185Y3937D01*
X1186Y3937D01*
X1187Y3937D01*
X1188Y3937D01*
X1189Y3937D01*
X1190Y3937D01*
X1191Y3937D01*
X1192Y3937D01*
X1193Y3937D01*
X1194Y3937D01*
X1195Y3937D01*
X1196Y3937D01*
X1197Y3937D01*
X1198Y3937D01*
X1199Y3937D01*
X1200Y3937D01*
X1201Y3937D01*
X1202Y3937D01*
X1203Y3937D01*
X1204Y3937D01*
X1205Y3937D01*
X1206Y3937D01*
X1207Y3937D01*
X1208Y3937D01*
X1209Y3937D01*
X1210Y3937D01*
X1211Y3937D01*
X1212Y3937D01*
X1213Y3937D01*
X1214Y3937D01*
X1215Y3937D01*
X1216Y3937D01*
X1217Y3937D01*
X1218Y3937D01*
X1219Y3937D01*
X1220Y3937D01*
X1221Y3937D01*
X1222Y3937D01*
X1223Y3937D01*
X1224Y3937D01*
X1225Y3937D01*
X1226Y3937D01*
X1227Y3937D01*
X1228Y3937D01*
X1229Y3937D01*
X1230Y3937D01*
X1231Y3937D01*
X1232Y3937D01*
X1233Y3937D01*
X1234Y3937D01*
X1235Y3937D01*
X1236Y3937D01*
X1237Y3937D01*
X1238Y3937D01*
X1239Y3937D01*
X1240Y3937D01*
X1241Y3937D01*
X1242Y3937D01*
X1243Y3937D01*
X1244Y3937D01*
X1245Y3937D01*
X1246Y3937D01*
X1247Y3937D01*
X1248Y3937D01*
X1249Y3937D01*
X1250Y3937D01*
X1251Y3937D01*
X1252Y3937D01*
X1253Y3937D01*
X1254Y3937D01*
X1255Y3937D01*
X1256Y3937D01*
X1257Y3937D01*
X1258Y3937D01*
X1259Y3937D01*
X1260Y3937D01*
X1261Y3937D01*
X1262Y3937D01*
X1263Y3937D01*
X1264Y3937D01*
X1265Y3937D01*
X1266Y3937D01*
X1267Y3937D01*
X1268Y3937D01*
X1269Y3937D01*
X1270Y3937D01*
X1271Y3937D01*
X1272Y3937D01*
X1273Y3937D01*
X1274Y3937D01*
X1275Y3937D01*
X1276Y3937D01*
X1277Y3937D01*
X1278Y3937D01*
X1279Y3937D01*
X1280Y3937D01*
X1281Y3937D01*
X1282Y3937D01*
X1283Y3937D01*
X1284Y3937D01*
X1285Y3937D01*
X1286Y3937D01*
X1287Y3937D01*
X1288Y3937D01*
X1289Y3937D01*
X1290Y3937D01*
X1291Y3937D01*
X1292Y3937D01*
X1293Y3937D01*
X1294Y3937D01*
X1295Y3937D01*
X1296Y3937D01*
X1297Y3937D01*
X1298Y3937D01*
X1299Y3937D01*
X1300Y3937D01*
X1301Y3937D01*
X1302Y3937D01*
X1303Y3937D01*
X1304Y3937D01*
X1305Y3937D01*
X1306Y3937D01*
X1307Y3937D01*
X1308Y3937D01*
X1309Y3937D01*
X1310Y3937D01*
X1311Y3937D01*
X1312Y3937D01*
X1313Y3937D01*
X1314Y3937D01*
X1315Y3937D01*
X1316Y3937D01*
X1317Y3937D01*
X1318Y3937D01*
X1319Y3937D01*
X1320Y3937D01*
X1321Y3937D01*
X1322Y3937D01*
X1323Y3937D01*
X1324Y3937D01*
X1325Y3937D01*
X1326Y3937D01*
X1327Y3937D01*
X1328Y3937D01*
X1329Y3937D01*
X1330Y3937D01*
X1331Y3937D01*
X1332Y3937D01*
X1333Y3937D01*
X1334Y3937D01*
X1335Y3937D01*
X1336Y3937D01*
X1337Y3937D01*
X1338Y3937D01*
X1339Y3937D01*
X1340Y3937D01*
X1341Y3937D01*
X1342Y3937D01*
X1343Y3937D01*
X1344Y3937D01*
X1345Y3937D01*
X1346Y3937D01*
X1347Y3937D01*
X1348Y3937D01*
X1349Y3937D01*
X1350Y3937D01*
X1351Y3937D01*
X1352Y3937D01*
X1353Y3937D01*
X1354Y3937D01*
X1355Y3937D01*
X1356Y3937D01*
X1357Y3937D01*
X1358Y3937D01*
X1359Y3937D01*
X1360Y3937D01*
X1361Y3937D01*
X1362Y3937D01*
X1363Y3937D01*
X1364Y3937D01*
X1365Y3937D01*
X1366Y3937D01*
X1367Y3937D01*
X1368Y3937D01*
X1369Y3937D01*
X1370Y3937D01*
X1371Y3937D01*
X1372Y3937D01*
X1373Y3937D01*
X1374Y3937D01*
X1375Y3937D01*
X1376Y3937D01*
X1377Y3937D01*
X1378Y3937D01*
X1379Y3937D01*
X1380Y3937D01*
X1381Y3937D01*
X1382Y3937D01*
X1383Y3937D01*
X1384Y3937D01*
X1385Y3937D01*
X1386Y3937D01*
X1387Y3937D01*
X1388Y3937D01*
X1389Y3937D01*
X1390Y3937D01*
X1391Y3937D01*
X1392Y3937D01*
X1393Y3937D01*
X1394Y3937D01*
X1395Y3937D01*
X1396Y3937D01*
X1397Y3937D01*
X1398Y3937D01*
X1399Y3937D01*
X1400Y3937D01*
X1401Y3937D01*
X1402Y3937D01*
X1403Y3937D01*
X1404Y3937D01*
X1405Y3937D01*
X1406Y3937D01*
X1407Y3937D01*
X1408Y3937D01*
X1409Y3937D01*
X1410Y3937D01*
X1411Y3937D01*
X1412Y3937D01*
X1413Y3937D01*
X1414Y3937D01*
X1415Y3937D01*
X1416Y3937D01*
X1417Y3937D01*
X1418Y3937D01*
X1419Y3937D01*
X1420Y3937D01*
X1421Y3937D01*
X1422Y3937D01*
X1423Y3937D01*
X1424Y3937D01*
X1425Y3937D01*
X1426Y3937D01*
X1427Y3937D01*
X1428Y3937D01*
X1429Y3937D01*
X1430Y3937D01*
X1431Y3937D01*
X1432Y3937D01*
X1433Y3937D01*
X1434Y3937D01*
X1435Y3937D01*
X1436Y3937D01*
X1437Y3937D01*
X1438Y3937D01*
X1439Y3937D01*
X1440Y3937D01*
X1441Y3937D01*
X1442Y3937D01*
X1443Y3937D01*
X1444Y3937D01*
X1445Y3937D01*
X1446Y3937D01*
X1447Y3937D01*
X1448Y3937D01*
X1449Y3937D01*
X1450Y3937D01*
X1451Y3937D01*
X1452Y3937D01*
X1453Y3937D01*
X1454Y3937D01*
X1455Y3937D01*
X1456Y3937D01*
X1457Y3937D01*
X1458Y3937D01*
X1459Y3937D01*
X1460Y3937D01*
X1461Y3937D01*
X1462Y3937D01*
X1463Y3937D01*
X1464Y3937D01*
X1465Y3937D01*
X1466Y3937D01*
X1467Y3937D01*
X1468Y3937D01*
X1469Y3937D01*
X1470Y3937D01*
X1471Y3937D01*
X1472Y3937D01*
X1473Y3937D01*
X1474Y3937D01*
X1475Y3937D01*
X1476Y3937D01*
X1477Y3937D01*
X1478Y3937D01*
X1479Y3937D01*
X1480Y3937D01*
X1481Y3937D01*
X1482Y3937D01*
X1483Y3937D01*
X1484Y3937D01*
X1485Y3937D01*
X1486Y3937D01*
X1487Y3937D01*
X1488Y3937D01*
X1489Y3937D01*
X1490Y3937D01*
X1491Y3937D01*
X1492Y3937D01*
X1493Y3937D01*
X1494Y3937D01*
X1495Y3937D01*
X1496Y3937D01*
X1497Y3937D01*
X1498Y3937D01*
X1499Y3937D01*
X1500Y3937D01*
X1501Y3937D01*
X1502Y3937D01*
X1503Y3937D01*
X1504Y3937D01*
X1505Y3937D01*
X1506Y3937D01*
X1507Y3937D01*
X1508Y3937D01*
X1509Y3937D01*
X1510Y3937D01*
X1511Y3937D01*
X1512Y3937D01*
X1513Y3937D01*
X1514Y3937D01*
X1515Y3937D01*
X1516Y3937D01*
X1517Y3937D01*
X1518Y3937D01*
X1519Y3937D01*
X1520Y3937D01*
X1521Y3937D01*
X1522Y3937D01*
X1523Y3937D01*
X1524Y3937D01*
X1525Y3937D01*
X1526Y3937D01*
X1527Y3937D01*
X1528Y3937D01*
X1529Y3937D01*
X1530Y3937D01*
X1531Y3937D01*
X1532Y3937D01*
X1533Y3937D01*
X1534Y3937D01*
X1535Y3937D01*
X1536Y3937D01*
X1537Y3937D01*
X1538Y3937D01*
X1539Y3937D01*
X1540Y3937D01*
X1541Y3937D01*
X1542Y3937D01*
X1543Y3937D01*
X1544Y3937D01*
X1545Y3937D01*
X1546Y3937D01*
X1547Y3937D01*
X1548Y3937D01*
X1549Y3937D01*
X1550Y3937D01*
X1551Y3937D01*
X1552Y3937D01*
X1553Y3937D01*
X1554Y3937D01*
X1555Y3937D01*
X1556Y3937D01*
X1557Y3937D01*
X1558Y3937D01*
X1559Y3937D01*
X1560Y3937D01*
X1561Y3937D01*
X1562Y3937D01*
X1563Y3937D01*
X1564Y3937D01*
X1565Y3937D01*
X1566Y3937D01*
X1567Y3937D01*
X1568Y3937D01*
X1569Y3937D01*
X1570Y3937D01*
X1571Y3937D01*
X1572Y3937D01*
X1573Y3937D01*
X1574Y3937D01*
X1575Y3937D01*
X1576Y3937D01*
X1577Y3937D01*
X1578Y3937D01*
X1579Y3937D01*
X1580Y3937D01*
X1581Y3937D01*
X1582Y3937D01*
X1583Y3937D01*
X1584Y3937D01*
X1585Y3937D01*
X1586Y3937D01*
X1587Y3937D01*
X1588Y3937D01*
X1589Y3937D01*
X1590Y3937D01*
X1591Y3937D01*
X1592Y3937D01*
X1593Y3937D01*
X1594Y3937D01*
X1595Y3937D01*
X1596Y3937D01*
X1597Y3937D01*
X1598Y3937D01*
X1599Y3937D01*
X1600Y3937D01*
X1601Y3937D01*
X1602Y3937D01*
X1603Y3937D01*
X1604Y3937D01*
X1605Y3937D01*
X1606Y3937D01*
X1607Y3937D01*
X1608Y3937D01*
X1609Y3937D01*
X1610Y3937D01*
X1611Y3937D01*
X1612Y3937D01*
X1613Y3937D01*
X1614Y3937D01*
X1615Y3937D01*
X1616Y3937D01*
X1617Y3937D01*
X1618Y3937D01*
X1619Y3937D01*
X1620Y3937D01*
X1621Y3937D01*
X1622Y3937D01*
X1623Y3937D01*
X1624Y3937D01*
X1625Y3937D01*
X1626Y3937D01*
X1627Y3937D01*
X1628Y3937D01*
X1629Y3937D01*
X1630Y3937D01*
X1631Y3937D01*
X1632Y3937D01*
X1633Y3937D01*
X1634Y3937D01*
X1635Y3937D01*
X1636Y3937D01*
X1637Y3937D01*
X1638Y3937D01*
X1639Y3937D01*
X1640Y3937D01*
X1641Y3937D01*
X1642Y3937D01*
X1643Y3937D01*
X1644Y3937D01*
X1645Y3937D01*
X1646Y3937D01*
X1647Y3937D01*
X1648Y3937D01*
X1649Y3937D01*
X1650Y3937D01*
X1651Y3937D01*
X1652Y3937D01*
X1653Y3937D01*
X1654Y3937D01*
X1655Y3937D01*
X1656Y3937D01*
X1657Y3937D01*
X1658Y3937D01*
X1659Y3937D01*
X1660Y3937D01*
X1661Y3937D01*
X1662Y3937D01*
X1663Y3937D01*
X1664Y3937D01*
X1665Y3937D01*
X1666Y3937D01*
X1667Y3937D01*
X1668Y3937D01*
X1669Y3937D01*
X1670Y3937D01*
X1671Y3937D01*
X1672Y3937D01*
X1673Y3937D01*
X1674Y3937D01*
X1675Y3937D01*
X1676Y3937D01*
X1677Y3937D01*
X1678Y3937D01*
X1679Y3937D01*
X1680Y3937D01*
X1681Y3937D01*
X1682Y3937D01*
X1683Y3937D01*
X1684Y3937D01*
X1685Y3937D01*
X1686Y3937D01*
X1687Y3937D01*
X1688Y3937D01*
X1689Y3937D01*
X1690Y3937D01*
X1691Y3937D01*
X1692Y3937D01*
X1693Y3937D01*
X1694Y3937D01*
X1695Y3937D01*
X1696Y3937D01*
X1697Y3937D01*
X1698Y3937D01*
X1699Y3937D01*
X1700Y3937D01*
X1701Y3937D01*
X1702Y3937D01*
X1703Y3937D01*
X1704Y3937D01*
X1705Y3937D01*
X1706Y3937D01*
X1707Y3937D01*
X1708Y3937D01*
X1709Y3937D01*
X1710Y3937D01*
X1711Y3937D01*
X1712Y3937D01*
X1713Y3937D01*
X1714Y3937D01*
X1715Y3937D01*
X1716Y3937D01*
X1717Y3937D01*
X1718Y3937D01*
X1719Y3937D01*
X1720Y3937D01*
X1721Y3937D01*
X1722Y3937D01*
X1723Y3937D01*
X1724Y3937D01*
X1725Y3937D01*
X1726Y3937D01*
X1727Y3937D01*
X1728Y3937D01*
X1729Y3937D01*
X1730Y3937D01*
X1731Y3937D01*
X1732Y3937D01*
X1733Y3937D01*
X1734Y3937D01*
X1735Y3937D01*
X1736Y3937D01*
X1737Y3937D01*
X1738Y3937D01*
X1739Y3937D01*
X1740Y3937D01*
X1741Y3937D01*
X1742Y3937D01*
X1743Y3937D01*
X1744Y3937D01*
X1745Y3937D01*
X1746Y3937D01*
X1747Y3937D01*
X1748Y3937D01*
X1749Y3937D01*
X1750Y3937D01*
X1751Y3937D01*
X1752Y3937D01*
X1753Y3937D01*
X1754Y3937D01*
X1755Y3937D01*
X1756Y3937D01*
X1757Y3937D01*
X1758Y3937D01*
X1759Y3937D01*
X1760Y3937D01*
X1761Y3937D01*
X1762Y3937D01*
X1763Y3937D01*
X1764Y3937D01*
X1765Y3937D01*
X1766Y3937D01*
X1767Y3937D01*
X1768Y3937D01*
X1769Y3937D01*
X1770Y3937D01*
X1771Y3937D01*
X1772Y3937D01*
X1773Y3937D01*
X1774Y3937D01*
X1775Y3937D01*
X1776Y3937D01*
X1777Y3937D01*
X1778Y3937D01*
X1779Y3937D01*
X1780Y3937D01*
X1781Y3937D01*
X1782Y3937D01*
X1783Y3937D01*
X1784Y3937D01*
X1785Y3937D01*
X1786Y3937D01*
X1787Y3937D01*
X1788Y3937D01*
X1789Y3937D01*
X1790Y3937D01*
X1791Y3937D01*
X1792Y3937D01*
X1793Y3937D01*
X1794Y3937D01*
X1795Y3937D01*
X1796Y3937D01*
X1797Y3937D01*
X1798Y3937D01*
X1799Y3937D01*
X1800Y3937D01*
X1801Y3937D01*
X1802Y3937D01*
X1803Y3937D01*
X1804Y3937D01*
X1805Y3937D01*
X1806Y3937D01*
X1807Y3937D01*
X1808Y3937D01*
X1809Y3937D01*
X1810Y3937D01*
X1811Y3937D01*
X1812Y3937D01*
X1813Y3937D01*
X1814Y3937D01*
X1815Y3937D01*
X1816Y3937D01*
X1817Y3937D01*
X1818Y3937D01*
X1819Y3937D01*
X1820Y3937D01*
X1821Y3937D01*
X1822Y3937D01*
X1823Y3937D01*
X1824Y3937D01*
X1825Y3937D01*
X1826Y3937D01*
X1827Y3937D01*
X1828Y3937D01*
X1829Y3937D01*
X1830Y3937D01*
X1831Y3937D01*
X1832Y3937D01*
X1833Y3937D01*
X1834Y3937D01*
X1835Y3937D01*
X1836Y3937D01*
X1837Y3937D01*
X1838Y3937D01*
X1839Y3937D01*
X1840Y3937D01*
X1841Y3937D01*
X1842Y3937D01*
X1843Y3937D01*
X1844Y3937D01*
X1845Y3937D01*
X1846Y3937D01*
X1847Y3937D01*
X1848Y3937D01*
X1849Y3937D01*
X1850Y3937D01*
X1851Y3937D01*
X1852Y3937D01*
X1853Y3937D01*
X1854Y3937D01*
X1855Y3937D01*
X1856Y3937D01*
X1857Y3937D01*
X1858Y3937D01*
X1859Y3937D01*
X1860Y3937D01*
X1861Y3937D01*
X1862Y3937D01*
X1863Y3937D01*
X1864Y3937D01*
X1865Y3937D01*
X1866Y3937D01*
X1867Y3937D01*
X1868Y3937D01*
X1869Y3937D01*
X1870Y3937D01*
X1871Y3937D01*
X1872Y3937D01*
X1873Y3937D01*
X1874Y3937D01*
X1875Y3937D01*
X1876Y3937D01*
X1877Y3937D01*
X1878Y3937D01*
X1879Y3937D01*
X1880Y3937D01*
X1881Y3937D01*
X1882Y3937D01*
X1883Y3937D01*
X1884Y3937D01*
X1885Y3937D01*
X1886Y3937D01*
X1887Y3937D01*
X1888Y3937D01*
X1889Y3937D01*
X1890Y3937D01*
X1891Y3937D01*
X1892Y3937D01*
X1893Y3937D01*
X1894Y3937D01*
X1895Y3937D01*
X1896Y3937D01*
X1897Y3937D01*
X1898Y3937D01*
X1899Y3937D01*
X1900Y3937D01*
X1901Y3937D01*
X1902Y3937D01*
X1903Y3937D01*
X1904Y3937D01*
X1905Y3937D01*
X1906Y3937D01*
X1907Y3937D01*
X1908Y3937D01*
X1909Y3937D01*
X1910Y3937D01*
X1911Y3937D01*
X1912Y3937D01*
X1913Y3937D01*
X1914Y3937D01*
X1915Y3937D01*
X1916Y3937D01*
X1917Y3937D01*
X1918Y3937D01*
X1919Y3937D01*
X1920Y3937D01*
X1921Y3937D01*
X1922Y3937D01*
X1923Y3937D01*
X1924Y3937D01*
X1925Y3937D01*
X1926Y3937D01*
X1927Y3937D01*
X1928Y3937D01*
X1929Y3937D01*
X1930Y3937D01*
X1931Y3937D01*
X1932Y3937D01*
X1933Y3937D01*
X1934Y3937D01*
X1935Y3937D01*
X1936Y3937D01*
X1937Y3937D01*
X1938Y3937D01*
X1939Y3937D01*
X1940Y3937D01*
X1941Y3937D01*
X1942Y3937D01*
X1943Y3937D01*
X1944Y3937D01*
X1945Y3937D01*
X1946Y3937D01*
X1947Y3937D01*
X1948Y3937D01*
X1949Y3937D01*
X1950Y3937D01*
X1951Y3937D01*
X1952Y3937D01*
X1953Y3937D01*
X1954Y3937D01*
X1955Y3937D01*
X1956Y3937D01*
X1957Y3937D01*
X1958Y3937D01*
X1959Y3937D01*
X1960Y3937D01*
X1961Y3937D01*
X1962Y3937D01*
X1963Y3937D01*
X1964Y3937D01*
X1965Y3937D01*
X1966Y3937D01*
X1967Y3937D01*
X1968Y3937D01*
X1969Y3937D01*
X1970Y3937D01*
X1971Y3937D01*
X1972Y3937D01*
X1973Y3937D01*
X1974Y3937D01*
X1975Y3937D01*
X1976Y3937D01*
X1977Y3937D01*
X1978Y3937D01*
X1979Y3937D01*
X1980Y3937D01*
X1981Y3937D01*
X1982Y3937D01*
X1983Y3937D01*
X1984Y3937D01*
X1985Y3937D01*
X1986Y3937D01*
X1987Y3937D01*
X1988Y3937D01*
X1989Y3937D01*
X1990Y3937D01*
X1991Y3937D01*
X1992Y3937D01*
X1993Y3937D01*
X1994Y3937D01*
X1995Y3937D01*
X1996Y3937D01*
X1997Y3937D01*
X1998Y3937D01*
X1999Y3937D01*
X2000Y3937D01*
X2001Y3937D01*
X2002Y3937D01*
X2003Y3937D01*
X2004Y3937D01*
X2005Y3937D01*
X2006Y3937D01*
X2007Y3937D01*
X2008Y3937D01*
X2009Y3937D01*
X2010Y3937D01*
X2011Y3937D01*
X2012Y3937D01*
X2013Y3937D01*
X2014Y3937D01*
X2015Y3937D01*
X2016Y3937D01*
X2017Y3937D01*
X2018Y3937D01*
X2019Y3937D01*
X2020Y3937D01*
X2021Y3937D01*
X2022Y3937D01*
X2023Y3937D01*
X2024Y3937D01*
X2025Y3937D01*
X2026Y3937D01*
X2027Y3937D01*
X2028Y3937D01*
X2029Y3937D01*
X2030Y3937D01*
X2031Y3937D01*
X2032Y3937D01*
X2033Y3937D01*
X2034Y3937D01*
X2035Y3937D01*
X2036Y3937D01*
X2037Y3937D01*
X2038Y3937D01*
X2039Y3937D01*
X2040Y3937D01*
X2041Y3937D01*
X2042Y3937D01*
X2043Y3937D01*
X2044Y3937D01*
X2045Y3937D01*
X2046Y3937D01*
X2047Y3937D01*
X2048Y3937D01*
X2049Y3937D01*
X2050Y3937D01*
X2051Y3937D01*
X2052Y3937D01*
X2053Y3937D01*
X2054Y3937D01*
X2055Y3937D01*
X2056Y3937D01*
X2057Y3937D01*
X2058Y3937D01*
X2059Y3937D01*
X2060Y3937D01*
X2061Y3937D01*
X2062Y3937D01*
X2063Y3937D01*
X2064Y3937D01*
X2065Y3937D01*
X2066Y3937D01*
X2067Y3937D01*
X2068Y3937D01*
X2069Y3937D01*
X2070Y3937D01*
X2071Y3937D01*
X2072Y3937D01*
X2073Y3937D01*
X2074Y3937D01*
X2075Y3937D01*
X2076Y3937D01*
X2077Y3937D01*
X2078Y3937D01*
X2079Y3937D01*
X2080Y3937D01*
X2081Y3937D01*
X2082Y3937D01*
X2083Y3937D01*
X2084Y3937D01*
X2085Y3937D01*
X2086Y3937D01*
X2087Y3937D01*
X2088Y3937D01*
X2089Y3937D01*
X2090Y3937D01*
X2091Y3937D01*
X2092Y3937D01*
X2093Y3937D01*
X2094Y3937D01*
X2095Y3937D01*
X2096Y3937D01*
X2097Y3937D01*
X2098Y3937D01*
X2099Y3937D01*
X2100Y3937D01*
X2101Y3937D01*
X2102Y3937D01*
X2103Y3937D01*
X2104Y3937D01*
X2105Y3937D01*
X2106Y3937D01*
X2107Y3937D01*
X2108Y3937D01*
X2109Y3937D01*
X2110Y3937D01*
X2111Y3937D01*
X2112Y3937D01*
X2113Y3937D01*
X2114Y3937D01*
X2115Y3937D01*
X2116Y3937D01*
X2117Y3937D01*
X2118Y3937D01*
X2119Y3937D01*
X2120Y3937D01*
X2121Y3937D01*
X2122Y3937D01*
X2123Y3937D01*
X2124Y3937D01*
X2125Y3937D01*
X2126Y3937D01*
X2127Y3937D01*
X2128Y3937D01*
X2129Y3937D01*
X2130Y3937D01*
X2131Y3937D01*
X2132Y3937D01*
X2133Y3937D01*
X2134Y3937D01*
X2135Y3937D01*
X2136Y3937D01*
X2137Y3937D01*
X2138Y3937D01*
X2139Y3937D01*
X2140Y3937D01*
X2141Y3937D01*
X2142Y3937D01*
X2143Y3937D01*
X2144Y3937D01*
X2145Y3937D01*
X2146Y3937D01*
X2147Y3937D01*
X2148Y3937D01*
X2149Y3937D01*
X2150Y3937D01*
X2151Y3937D01*
X2152Y3937D01*
X2153Y3937D01*
X2154Y3937D01*
X2155Y3937D01*
X2156Y3937D01*
X2157Y3937D01*
X2158Y3937D01*
X2159Y3937D01*
X2160Y3937D01*
X2161Y3937D01*
X2162Y3937D01*
X2163Y3937D01*
X2164Y3937D01*
X2165Y3937D01*
X2166Y3937D01*
X2167Y3937D01*
X2168Y3937D01*
X2169Y3937D01*
X2170Y3937D01*
X2171Y3937D01*
X2172Y3937D01*
X2173Y3937D01*
X2174Y3937D01*
X2175Y3937D01*
X2176Y3937D01*
X2177Y3937D01*
X2178Y3937D01*
X2179Y3937D01*
X2180Y3937D01*
X2181Y3937D01*
X2182Y3937D01*
X2183Y3937D01*
X2184Y3937D01*
X2185Y3937D01*
X2186Y3937D01*
X2187Y3937D01*
X2188Y3937D01*
X2189Y3937D01*
X2190Y3937D01*
X2191Y3937D01*
X2192Y3937D01*
X2193Y3937D01*
X2194Y3937D01*
X2195Y3937D01*
X2196Y3937D01*
X2197Y3937D01*
X2198Y3937D01*
X2199Y3937D01*
X2200Y3937D01*
X2201Y3937D01*
X2202Y3937D01*
X2203Y3937D01*
X2204Y3937D01*
X2205Y3937D01*
X2206Y3937D01*
X2207Y3937D01*
X2208Y3937D01*
X2209Y3937D01*
X2210Y3937D01*
X2211Y3937D01*
X2212Y3937D01*
X2213Y3937D01*
X2214Y3937D01*
X2215Y3937D01*
X2216Y3937D01*
X2217Y3937D01*
X2218Y3937D01*
X2219Y3937D01*
X2220Y3937D01*
X2221Y3937D01*
X2222Y3937D01*
X2223Y3937D01*
X2224Y3937D01*
X2225Y3937D01*
X2226Y3937D01*
X2227Y3937D01*
X2228Y3937D01*
X2229Y3937D01*
X2230Y3937D01*
X2231Y3937D01*
X2232Y3937D01*
X2233Y3937D01*
X2234Y3937D01*
X2235Y3937D01*
X2236Y3937D01*
X2237Y3937D01*
X2238Y3937D01*
X2239Y3937D01*
X2240Y3937D01*
X2241Y3937D01*
X2242Y3937D01*
X2243Y3937D01*
X2244Y3937D01*
X2245Y3937D01*
X2246Y3937D01*
X2247Y3937D01*
X2248Y3937D01*
X2249Y3937D01*
X2250Y3937D01*
X2251Y3937D01*
X2252Y3937D01*
X2253Y3937D01*
X2254Y3937D01*
X2255Y3937D01*
X2256Y3937D01*
X2257Y3937D01*
X2258Y3937D01*
X2259Y3937D01*
X2260Y3937D01*
X2261Y3937D01*
X2262Y3937D01*
X2263Y3937D01*
X2264Y3937D01*
X2265Y3937D01*
X2266Y3937D01*
X2267Y3937D01*
X2268Y3937D01*
X2269Y3937D01*
X2270Y3937D01*
X2271Y3937D01*
X2272Y3937D01*
X2273Y3937D01*
X2274Y3937D01*
X2275Y3937D01*
X2276Y3937D01*
X2277Y3937D01*
X2278Y3937D01*
X2279Y3937D01*
X2280Y3937D01*
X2281Y3937D01*
X2282Y3937D01*
X2283Y3937D01*
X2284Y3937D01*
X2285Y3937D01*
X2286Y3937D01*
X2287Y3937D01*
X2288Y3937D01*
X2289Y3937D01*
X2290Y3937D01*
X2291Y3937D01*
X2292Y3937D01*
X2293Y3937D01*
X2294Y3937D01*
X2295Y3937D01*
X2296Y3937D01*
X2297Y3937D01*
X2298Y3937D01*
X2299Y3937D01*
X2300Y3937D01*
X2301Y3937D01*
X2302Y3937D01*
X2303Y3937D01*
X2304Y3937D01*
X2305Y3937D01*
X2306Y3937D01*
X2307Y3937D01*
X2308Y3937D01*
X2309Y3937D01*
X2310Y3937D01*
X2311Y3937D01*
X2312Y3937D01*
X2313Y3937D01*
X2314Y3937D01*
X2315Y3937D01*
X2316Y3937D01*
X2317Y3937D01*
X2318Y3937D01*
X2319Y3937D01*
X2320Y3937D01*
X2321Y3937D01*
X2322Y3937D01*
X2323Y3937D01*
X2324Y3937D01*
X2325Y3937D01*
X2326Y3937D01*
X2327Y3937D01*
X2328Y3937D01*
X2329Y3937D01*
X2330Y3937D01*
X2331Y3937D01*
X2332Y3937D01*
X2333Y3937D01*
X2334Y3937D01*
X2335Y3937D01*
X2336Y3937D01*
X2337Y3937D01*
X2338Y3937D01*
X2339Y3937D01*
X2340Y3937D01*
X2341Y3937D01*
X2342Y3937D01*
X2343Y3937D01*
X2344Y3937D01*
X2345Y3937D01*
X2346Y3937D01*
X2347Y3937D01*
X2348Y3937D01*
X2349Y3937D01*
X2350Y3937D01*
X2351Y3937D01*
X2352Y3937D01*
X2353Y3937D01*
X2354Y3937D01*
X2355Y3937D01*
X2356Y3937D01*
X2357Y3937D01*
X2358Y3937D01*
X2359Y3937D01*
X2360Y3937D01*
X2361Y3937D01*
X2362Y3937D01*
X2363Y3937D01*
X2364Y3937D01*
X2365Y3937D01*
X2366Y3937D01*
X2367Y3937D01*
X2368Y3937D01*
X2369Y3937D01*
X2370Y3937D01*
X2371Y3937D01*
X2372Y3937D01*
X2373Y3937D01*
X2374Y3937D01*
X2375Y3937D01*
X2376Y3937D01*
X2377Y3937D01*
X2378Y3937D01*
X2379Y3937D01*
X2380Y3937D01*
X2381Y3937D01*
X2382Y3937D01*
X2383Y3937D01*
X2384Y3937D01*
X2385Y3937D01*
X2386Y3937D01*
X2387Y3937D01*
X2388Y3937D01*
X2389Y3937D01*
X2390Y3937D01*
X2391Y3937D01*
X2392Y3937D01*
X2393Y3937D01*
X2394Y3937D01*
X2395Y3937D01*
X2396Y3937D01*
X2397Y3937D01*
X2398Y3937D01*
X2399Y3937D01*
X2400Y3937D01*
X2401Y3937D01*
X2402Y3937D01*
X2403Y3937D01*
X2404Y3937D01*
X2405Y3937D01*
X2406Y3937D01*
X2407Y3937D01*
X2408Y3937D01*
X2409Y3937D01*
X2410Y3937D01*
X2411Y3937D01*
X2412Y3937D01*
X2413Y3937D01*
X2414Y3937D01*
X2415Y3937D01*
X2416Y3937D01*
X2417Y3937D01*
X2418Y3937D01*
X2419Y3937D01*
X2420Y3937D01*
X2421Y3937D01*
X2422Y3937D01*
X2423Y3937D01*
X2424Y3937D01*
X2425Y3937D01*
X2426Y3937D01*
X2427Y3937D01*
X2428Y3937D01*
X2429Y3937D01*
X2430Y3937D01*
X2431Y3937D01*
X2432Y3937D01*
X2433Y3937D01*
X2434Y3937D01*
X2435Y3937D01*
X2436Y3937D01*
X2437Y3937D01*
X2438Y3937D01*
X2439Y3937D01*
X2440Y3937D01*
X2441Y3937D01*
X2442Y3937D01*
X2443Y3937D01*
X2444Y3937D01*
X2445Y3937D01*
X2446Y3937D01*
X2447Y3937D01*
X2448Y3937D01*
X2449Y3937D01*
X2450Y3937D01*
X2451Y3937D01*
X2452Y3937D01*
X2453Y3937D01*
X2454Y3937D01*
X2455Y3937D01*
X2456Y3937D01*
X2457Y3937D01*
X2458Y3937D01*
X2459Y3937D01*
X2460Y3937D01*
X2461Y3937D01*
X2462Y3937D01*
X2463Y3937D01*
X2464Y3937D01*
X2465Y3937D01*
X2466Y3937D01*
X2467Y3937D01*
X2468Y3937D01*
X2469Y3937D01*
X2470Y3937D01*
X2471Y3937D01*
X2472Y3937D01*
X2473Y3937D01*
X2474Y3937D01*
X2475Y3937D01*
X2476Y3937D01*
X2477Y3937D01*
X2478Y3937D01*
X2479Y3937D01*
X2480Y3937D01*
X2481Y3937D01*
X2482Y3937D01*
X2483Y3937D01*
X2484Y3937D01*
X2485Y3937D01*
X2486Y3937D01*
X2487Y3937D01*
X2488Y3937D01*
X2489Y3937D01*
X2490Y3937D01*
X2491Y3937D01*
X2492Y3937D01*
X2493Y3937D01*
X2494Y3937D01*
X2495Y3937D01*
X2496Y3937D01*
X2497Y3937D01*
X2498Y3937D01*
X2499Y3937D01*
X2500Y3937D01*
X2501Y3937D01*
X2502Y3937D01*
X2503Y3937D01*
X2504Y3937D01*
X2505Y3937D01*
X2506Y3937D01*
X2507Y3937D01*
X2508Y3937D01*
X2509Y3937D01*
X2510Y3937D01*
X2511Y3937D01*
X2512Y3937D01*
X2513Y3937D01*
X2514Y3937D01*
X2515Y3937D01*
X2516Y3937D01*
X2517Y3937D01*
X2518Y3937D01*
X2519Y3937D01*
X2520Y3937D01*
X2521Y3937D01*
X2522Y3937D01*
X2523Y3937D01*
X2524Y3937D01*
X2525Y3937D01*
X2526Y3937D01*
X2527Y3937D01*
X2528Y3937D01*
X2529Y3937D01*
X2530Y3937D01*
X2531Y3937D01*
X2532Y3937D01*
X2533Y3937D01*
X2534Y3937D01*
X2535Y3937D01*
X2536Y3937D01*
X2537Y3937D01*
X2538Y3937D01*
X2539Y3937D01*
X2540Y3937D01*
X2541Y3937D01*
X2542Y3937D01*
X2543Y3937D01*
X2544Y3937D01*
X2545Y3937D01*
X2546Y3937D01*
X2547Y3937D01*
X2548Y3937D01*
X2549Y3937D01*
X2550Y3937D01*
X2551Y3937D01*
X2552Y3937D01*
X2553Y3937D01*
X2554Y3937D01*
X2555Y3937D01*
X2556Y3937D01*
X2557Y3937D01*
X2558Y3937D01*
X2559Y3937D01*
X2560Y3937D01*
X2561Y3937D01*
X2562Y3937D01*
X2563Y3937D01*
X2564Y3937D01*
X2565Y3937D01*
X2566Y3937D01*
X2567Y3937D01*
X2568Y3937D01*
X2569Y3937D01*
X2570Y3937D01*
X2571Y3937D01*
X2572Y3937D01*
X2573Y3937D01*
X2574Y3937D01*
X2575Y3937D01*
X2576Y3937D01*
X2577Y3937D01*
X2578Y3937D01*
X2579Y3937D01*
X2580Y3937D01*
X2581Y3937D01*
X2582Y3937D01*
X2583Y3937D01*
X2584Y3937D01*
X2585Y3937D01*
X2586Y3937D01*
X2587Y3937D01*
X2588Y3937D01*
X2589Y3937D01*
X2590Y3937D01*
X2591Y3937D01*
X2592Y3937D01*
X2593Y3937D01*
X2594Y3937D01*
X2595Y3937D01*
X2596Y3937D01*
X2597Y3937D01*
X2598Y3937D01*
X2599Y3937D01*
X2600Y3937D01*
X2601Y3937D01*
X2602Y3937D01*
X2603Y3937D01*
X2604Y3937D01*
X2605Y3937D01*
X2606Y3937D01*
X2607Y3937D01*
X2608Y3937D01*
X2609Y3937D01*
X2610Y3937D01*
X2611Y3937D01*
X2612Y3937D01*
X2613Y3937D01*
X2614Y3937D01*
X2615Y3937D01*
X2616Y3937D01*
X2617Y3937D01*
X2618Y3937D01*
X2619Y3937D01*
X2620Y3937D01*
X2621Y3937D01*
X2622Y3937D01*
X2623Y3937D01*
X2624Y3937D01*
X2625Y3937D01*
X2626Y3937D01*
X2627Y3937D01*
X2628Y3937D01*
X2629Y3937D01*
X2630Y3937D01*
X2631Y3937D01*
X2632Y3937D01*
X2633Y3937D01*
X2634Y3937D01*
X2635Y3937D01*
X2636Y3937D01*
X2637Y3937D01*
X2638Y3937D01*
X2639Y3937D01*
X2640Y3937D01*
X2641Y3937D01*
X2642Y3937D01*
X2643Y3937D01*
X2644Y3937D01*
X2645Y3937D01*
X2646Y3937D01*
X2647Y3937D01*
X2648Y3937D01*
X2649Y3937D01*
X2650Y3937D01*
X2651Y3937D01*
X2652Y3937D01*
X2653Y3937D01*
X2654Y3937D01*
X2655Y3937D01*
X2656Y3937D01*
X2657Y3937D01*
X2658Y3937D01*
X2659Y3937D01*
X2660Y3937D01*
X2661Y3937D01*
X2662Y3937D01*
X2663Y3937D01*
X2664Y3937D01*
X2665Y3937D01*
X2666Y3937D01*
X2667Y3937D01*
X2668Y3937D01*
X2669Y3937D01*
X2670Y3937D01*
X2671Y3937D01*
X2672Y3937D01*
X2673Y3937D01*
X2674Y3937D01*
X2675Y3937D01*
X2676Y3937D01*
X2677Y3937D01*
X2678Y3937D01*
X2679Y3937D01*
X2680Y3937D01*
X2681Y3937D01*
X2682Y3937D01*
X2683Y3937D01*
X2684Y3937D01*
X2685Y3937D01*
X2686Y3937D01*
X2687Y3937D01*
X2688Y3937D01*
X2689Y3937D01*
X2690Y3937D01*
X2691Y3937D01*
X2692Y3937D01*
X2693Y3937D01*
X2694Y3937D01*
X2695Y3937D01*
X2696Y3937D01*
X2697Y3937D01*
X2698Y3937D01*
X2699Y3937D01*
X2700Y3937D01*
X2701Y3937D01*
X2702Y3937D01*
X2703Y3937D01*
X2704Y3937D01*
X2705Y3937D01*
X2706Y3937D01*
X2707Y3937D01*
X2708Y3937D01*
X2709Y3937D01*
X2710Y3937D01*
X2711Y3937D01*
X2712Y3937D01*
X2713Y3937D01*
X2714Y3937D01*
X2715Y3937D01*
X2716Y3937D01*
X2717Y3937D01*
X2718Y3937D01*
X2719Y3937D01*
X2720Y3937D01*
X2721Y3937D01*
X2722Y3937D01*
X2723Y3937D01*
X2724Y3937D01*
X2725Y3937D01*
X2726Y3937D01*
X2727Y3937D01*
X2728Y3937D01*
X2729Y3937D01*
X2730Y3937D01*
X2731Y3937D01*
X2732Y3937D01*
X2733Y3937D01*
X2734Y3937D01*
X2735Y3937D01*
X2736Y3937D01*
X2737Y3937D01*
X2738Y3937D01*
X2739Y3937D01*
X2740Y3937D01*
X2741Y3937D01*
X2742Y3937D01*
X2743Y3937D01*
X2744Y3937D01*
X2745Y3937D01*
X2746Y3937D01*
X2747Y3937D01*
X2748Y3937D01*
X2749Y3937D01*
X2750Y3937D01*
X2751Y3937D01*
X2752Y3937D01*
X2753Y3937D01*
X2754Y3937D01*
X2755Y3937D01*
X2756Y3937D01*
X2757Y3937D01*
X2758Y3937D01*
X2759Y3937D01*
X2760Y3937D01*
X2761Y3937D01*
X2762Y3937D01*
X2763Y3937D01*
X2764Y3937D01*
X2765Y3937D01*
X2766Y3937D01*
X2767Y3937D01*
X2768Y3937D01*
X2769Y3937D01*
X2770Y3937D01*
X2771Y3937D01*
X2772Y3937D01*
X2773Y3937D01*
X2774Y3937D01*
X2775Y3937D01*
X2776Y3937D01*
X2777Y3937D01*
X2778Y3937D01*
X2779Y3937D01*
X2780Y3937D01*
X2781Y3937D01*
X2782Y3937D01*
X2783Y3937D01*
X2784Y3937D01*
X2785Y3937D01*
X2786Y3937D01*
X2787Y3937D01*
X2788Y3937D01*
X2789Y3937D01*
X2790Y3937D01*
X2791Y3937D01*
X2792Y3937D01*
X2793Y3937D01*
X2794Y3937D01*
X2795Y3937D01*
X2796Y3937D01*
X2797Y3937D01*
X2798Y3937D01*
X2799Y3937D01*
X2800Y3937D01*
X2801Y3937D01*
X2802Y3937D01*
X2803Y3937D01*
X2804Y3937D01*
X2805Y3937D01*
X2806Y3937D01*
X2807Y3937D01*
X2808Y3937D01*
X2809Y3937D01*
X2810Y3937D01*
X2811Y3937D01*
X2812Y3937D01*
X2813Y3937D01*
X2814Y3937D01*
X2815Y3937D01*
X2816Y3937D01*
X2817Y3937D01*
X2818Y3937D01*
X2819Y3937D01*
X2820Y3937D01*
X2821Y3937D01*
X2822Y3937D01*
X2823Y3937D01*
X2824Y3937D01*
X2825Y3937D01*
X2826Y3937D01*
X2827Y3937D01*
X2828Y3937D01*
X2829Y3937D01*
X2830Y3937D01*
X2831Y3937D01*
X2832Y3937D01*
X2833Y3937D01*
X2834Y3937D01*
X2835Y3937D01*
X2836Y3937D01*
X2837Y3937D01*
X2838Y3937D01*
X2839Y3937D01*
X2840Y3937D01*
X2841Y3937D01*
X2842Y3937D01*
X2843Y3937D01*
X2844Y3937D01*
X2845Y3937D01*
X2846Y3937D01*
X2847Y3937D01*
X2848Y3937D01*
X2849Y3937D01*
X2850Y3937D01*
X2851Y3937D01*
X2852Y3937D01*
X2853Y3937D01*
X2854Y3937D01*
X2855Y3937D01*
X2856Y3937D01*
X2857Y3937D01*
X2858Y3937D01*
X2859Y3937D01*
X2860Y3937D01*
X2861Y3937D01*
X2862Y3937D01*
X2863Y3937D01*
X2864Y3937D01*
X2865Y3937D01*
X2866Y3937D01*
X2867Y3937D01*
X2868Y3937D01*
X2869Y3937D01*
X2870Y3937D01*
X2871Y3937D01*
X2872Y3937D01*
X2873Y3937D01*
X2874Y3937D01*
X2875Y3937D01*
X2876Y3937D01*
X2877Y3937D01*
X2878Y3937D01*
X2879Y3937D01*
X2880Y3937D01*
X2881Y3937D01*
X2882Y3937D01*
X2883Y3937D01*
X2884Y3937D01*
X2885Y3937D01*
X2886Y3937D01*
X2887Y3937D01*
X2888Y3937D01*
X2889Y3937D01*
X2890Y3937D01*
X2891Y3937D01*
X2892Y3937D01*
X2893Y3937D01*
X2894Y3937D01*
X2895Y3937D01*
X2896Y3937D01*
X2897Y3937D01*
X2898Y3937D01*
X2899Y3937D01*
X2900Y3937D01*
X2901Y3937D01*
X2902Y3937D01*
X2903Y3937D01*
X2904Y3937D01*
X2905Y3937D01*
X2906Y3937D01*
X2907Y3937D01*
X2908Y3937D01*
X2909Y3937D01*
X2910Y3937D01*
X2911Y3937D01*
X2912Y3937D01*
X2913Y3937D01*
X2914Y3937D01*
X2915Y3937D01*
X2916Y3937D01*
X2917Y3937D01*
X2918Y3937D01*
X2919Y3937D01*
X2920Y3937D01*
X2921Y3937D01*
X2922Y3937D01*
X2923Y3937D01*
X2924Y3937D01*
X2925Y3937D01*
X2926Y3937D01*
X2927Y3937D01*
X2928Y3937D01*
X2929Y3937D01*
X2930Y3937D01*
X2931Y3937D01*
X2932Y3937D01*
X2933Y3937D01*
X2934Y3937D01*
X2935Y3937D01*
X2936Y3937D01*
X2937Y3937D01*
X2938Y3937D01*
X2939Y3937D01*
X2940Y3937D01*
X2941Y3937D01*
X2942Y3937D01*
X2943Y3937D01*
X2944Y3937D01*
X2945Y3937D01*
X2946Y3937D01*
X2947Y3937D01*
X2948Y3937D01*
X2949Y3937D01*
X2950Y3937D01*
X2951Y3937D01*
X2952Y3937D01*
X2953Y3937D01*
X2954Y3937D01*
X2955Y3937D01*
X2956Y3937D01*
X2957Y3937D01*
X2958Y3937D01*
X2959Y3937D01*
X2960Y3937D01*
X2961Y3937D01*
X2962Y3937D01*
X2963Y3937D01*
X2964Y3937D01*
X2965Y3937D01*
X2966Y3937D01*
X2967Y3937D01*
X2968Y3937D01*
X2969Y3937D01*
X2970Y3937D01*
X2971Y3937D01*
X2972Y3937D01*
X2973Y3937D01*
X2974Y3937D01*
X2975Y3937D01*
X2976Y3937D01*
X2977Y3937D01*
X2978Y3937D01*
X2979Y3937D01*
X2980Y3937D01*
X2981Y3937D01*
X2982Y3937D01*
X2983Y3937D01*
X2984Y3937D01*
X2985Y3937D01*
X2986Y3937D01*
X2987Y3937D01*
X2988Y3937D01*
X2989Y3937D01*
X2990Y3937D01*
X2991Y3937D01*
X2992Y3937D01*
X2993Y3937D01*
X2994Y3937D01*
X2995Y3937D01*
X2996Y3937D01*
X2997Y3937D01*
X2998Y3937D01*
X2999Y3937D01*
X3000Y3937D01*
X3001Y3937D01*
X3002Y3937D01*
X3003Y3937D01*
X3004Y3937D01*
X3005Y3937D01*
X3006Y3937D01*
X3007Y3937D01*
X3008Y3937D01*
X3009Y3937D01*
X3010Y3937D01*
X3011Y3937D01*
X3012Y3937D01*
X3013Y3937D01*
X3014Y3937D01*
X3015Y3937D01*
X3016Y3937D01*
X3017Y3937D01*
X3018Y3937D01*
X3019Y3937D01*
X3020Y3937D01*
X3021Y3937D01*
X3022Y3937D01*
X3023Y3937D01*
X3024Y3937D01*
X3025Y3937D01*
X3026Y3937D01*
X3027Y3937D01*
X3028Y3937D01*
X3029Y3937D01*
X3030Y3937D01*
X3031Y3937D01*
X3032Y3937D01*
X3033Y3937D01*
X3034Y3937D01*
X3035Y3937D01*
X3036Y3937D01*
X3037Y3937D01*
X3038Y3937D01*
X3039Y3937D01*
X3040Y3937D01*
X3041Y3937D01*
X3042Y3937D01*
X3043Y3937D01*
X3044Y3937D01*
X3045Y3937D01*
X3046Y3937D01*
X3047Y3937D01*
X3048Y3937D01*
X3049Y3937D01*
X3050Y3937D01*
X3051Y3937D01*
X3052Y3937D01*
X3053Y3937D01*
X3054Y3937D01*
X3055Y3937D01*
X3056Y3937D01*
X3057Y3937D01*
X3058Y3937D01*
X3059Y3937D01*
X3060Y3937D01*
X3061Y3937D01*
X3062Y3937D01*
X3063Y3937D01*
X3064Y3937D01*
X3065Y3937D01*
X3066Y3937D01*
X3067Y3937D01*
X3068Y3937D01*
X3069Y3937D01*
X3070Y3937D01*
X3071Y3937D01*
X3072Y3937D01*
X3073Y3937D01*
X3074Y3937D01*
X3075Y3937D01*
X3076Y3937D01*
X3077Y3937D01*
X3078Y3937D01*
X3079Y3937D01*
X3080Y3937D01*
X3081Y3937D01*
X3082Y3937D01*
X3083Y3937D01*
X3084Y3937D01*
X3085Y3937D01*
X3086Y3937D01*
X3087Y3937D01*
X3088Y3937D01*
X3089Y3937D01*
X3090Y3937D01*
X3091Y3937D01*
X3092Y3937D01*
X3093Y3937D01*
X3094Y3937D01*
X3095Y3937D01*
X3096Y3937D01*
X3097Y3937D01*
X3098Y3937D01*
X3099Y3937D01*
X3100Y3937D01*
X3101Y3937D01*
X3102Y3937D01*
X3103Y3937D01*
X3104Y3937D01*
X3105Y3937D01*
X3106Y3937D01*
X3107Y3937D01*
X3108Y3937D01*
X3109Y3937D01*
X3110Y3937D01*
X3111Y3937D01*
X3112Y3937D01*
X3113Y3937D01*
X3114Y3937D01*
X3115Y3937D01*
X3116Y3937D01*
X3117Y3937D01*
X3118Y3937D01*
X3119Y3937D01*
X3120Y3937D01*
X3121Y3937D01*
X3122Y3937D01*
X3123Y3937D01*
X3124Y3937D01*
X3125Y3937D01*
X3126Y3937D01*
X3127Y3937D01*
X3128Y3937D01*
X3129Y3937D01*
X3130Y3937D01*
X3131Y3937D01*
X3132Y3937D01*
X3133Y3937D01*
X3134Y3937D01*
X3135Y3937D01*
X3136Y3937D01*
X3137Y3937D01*
X3138Y3937D01*
X3139Y3937D01*
X3140Y3937D01*
X3141Y3937D01*
X3142Y3937D01*
X3143Y3937D01*
X3144Y3937D01*
X3145Y3937D01*
X3146Y3937D01*
X3147Y3937D01*
X3148Y3937D01*
X3149Y3937D01*
X3150Y3937D01*
X3151Y3937D01*
X3152Y3937D01*
X3153Y3937D01*
X3154Y3937D01*
X3155Y3937D01*
X3156Y3937D01*
X3157Y3937D01*
X3158Y3937D01*
X3159Y3937D01*
X3160Y3937D01*
X3161Y3937D01*
X3162Y3937D01*
X3163Y3937D01*
X3164Y3937D01*
X3165Y3937D01*
X3166Y3937D01*
X3167Y3937D01*
X3168Y3937D01*
X3169Y3937D01*
X3170Y3937D01*
X3171Y3937D01*
X3172Y3937D01*
X3173Y3937D01*
X3174Y3937D01*
X3175Y3937D01*
X3176Y3937D01*
X3177Y3937D01*
X3178Y3937D01*
X3179Y3937D01*
X3180Y3937D01*
X3181Y3937D01*
X3182Y3937D01*
X3183Y3937D01*
X3184Y3937D01*
X3185Y3937D01*
X3186Y3937D01*
X3187Y3937D01*
X3188Y3937D01*
X3189Y3937D01*
X3190Y3937D01*
X3191Y3937D01*
X3192Y3937D01*
X3193Y3937D01*
X3194Y3937D01*
X3195Y3937D01*
X3196Y3937D01*
X3197Y3937D01*
X3198Y3937D01*
X3199Y3937D01*
X3200Y3937D01*
X3201Y3937D01*
X3202Y3937D01*
X3203Y3937D01*
X3204Y3937D01*
X3205Y3937D01*
X3206Y3937D01*
X3207Y3937D01*
X3208Y3937D01*
X3209Y3937D01*
X3210Y3937D01*
X3211Y3937D01*
X3212Y3937D01*
X3213Y3937D01*
X3214Y3937D01*
X3215Y3937D01*
X3216Y3937D01*
X3217Y3937D01*
X3218Y3937D01*
X3219Y3937D01*
X3220Y3937D01*
X3221Y3937D01*
X3222Y3937D01*
X3223Y3937D01*
X3224Y3937D01*
X3225Y3937D01*
X3226Y3937D01*
X3227Y3937D01*
X3228Y3937D01*
X3229Y3937D01*
X3230Y3937D01*
X3231Y3937D01*
X3232Y3937D01*
X3233Y3937D01*
X3234Y3937D01*
X3235Y3937D01*
X3236Y3937D01*
X3237Y3937D01*
X3238Y3937D01*
X3239Y3937D01*
X3240Y3937D01*
X3241Y3937D01*
X3242Y3937D01*
X3243Y3937D01*
X3244Y3937D01*
X3245Y3937D01*
X3246Y3937D01*
X3247Y3937D01*
X3248Y3937D01*
X3249Y3937D01*
X3250Y3937D01*
X3251Y3937D01*
X3252Y3937D01*
X3253Y3937D01*
X3254Y3937D01*
X3255Y3937D01*
X3256Y3937D01*
X3257Y3937D01*
X3258Y3937D01*
X3259Y3937D01*
X3260Y3937D01*
X3261Y3937D01*
X3262Y3937D01*
X3263Y3937D01*
X3264Y3937D01*
X3265Y3937D01*
X3266Y3937D01*
X3267Y3937D01*
X3268Y3937D01*
X3269Y3937D01*
X3270Y3937D01*
X3271Y3937D01*
X3272Y3937D01*
X3273Y3937D01*
X3274Y3937D01*
X3275Y3937D01*
X3276Y3937D01*
X3277Y3937D01*
X3278Y3937D01*
X3279Y3937D01*
X3280Y3937D01*
X3281Y3937D01*
X3282Y3937D01*
X3283Y3937D01*
X3284Y3937D01*
X3285Y3937D01*
X3286Y3937D01*
X3287Y3937D01*
X3288Y3937D01*
X3289Y3937D01*
X3290Y3937D01*
X3291Y3937D01*
X3292Y3937D01*
X3293Y3937D01*
X3294Y3937D01*
X3295Y3937D01*
X3296Y3937D01*
X3297Y3937D01*
X3298Y3937D01*
X3299Y3937D01*
X3300Y3937D01*
X3301Y3937D01*
X3302Y3937D01*
X3303Y3937D01*
X3304Y3937D01*
X3305Y3937D01*
X3306Y3937D01*
X3307Y3937D01*
X3308Y3937D01*
X3309Y3937D01*
X3310Y3937D01*
X3311Y3937D01*
X3312Y3937D01*
X3313Y3937D01*
X3314Y3937D01*
X3315Y3937D01*
X3316Y3937D01*
X3317Y3937D01*
X3318Y3937D01*
X3319Y3937D01*
X3320Y3937D01*
X3321Y3937D01*
X3322Y3937D01*
X3323Y3937D01*
X3324Y3937D01*
X3325Y3937D01*
X3326Y3937D01*
X3327Y3937D01*
X3328Y3937D01*
X3329Y3937D01*
X3330Y3937D01*
X3331Y3937D01*
X3332Y3937D01*
X3333Y3937D01*
X3334Y3937D01*
X3335Y3937D01*
X3336Y3937D01*
X3337Y3937D01*
X3338Y3937D01*
X3339Y3937D01*
X3340Y3937D01*
X3341Y3937D01*
X3342Y3937D01*
X3343Y3937D01*
X3344Y3937D01*
X3345Y3937D01*
X3346Y3937D01*
X3347Y3937D01*
X3348Y3937D01*
X3349Y3937D01*
X3350Y3937D01*
X3351Y3937D01*
X3352Y3937D01*
X3353Y3937D01*
X3354Y3937D01*
X3355Y3937D01*
X3356Y3937D01*
X3357Y3937D01*
X3358Y3937D01*
X3359Y3937D01*
X3360Y3937D01*
X3361Y3937D01*
X3362Y3937D01*
X3363Y3937D01*
X3364Y3937D01*
X3365Y3937D01*
X3366Y3937D01*
X3367Y3937D01*
X3368Y3937D01*
X3369Y3937D01*
X3370Y3937D01*
X3371Y3937D01*
X3372Y3937D01*
X3373Y3937D01*
X3374Y3937D01*
X3375Y3937D01*
X3376Y3937D01*
X3377Y3937D01*
X3378Y3937D01*
X3379Y3937D01*
X3380Y3937D01*
X3381Y3937D01*
X3382Y3937D01*
X3383Y3937D01*
X3384Y3937D01*
X3385Y3937D01*
X3386Y3937D01*
X3387Y3937D01*
X3388Y3937D01*
X3389Y3937D01*
X3390Y3937D01*
X3391Y3937D01*
X3392Y3937D01*
X3393Y3937D01*
X3394Y3937D01*
X3395Y3937D01*
X3396Y3937D01*
X3397Y3937D01*
X3398Y3937D01*
X3399Y3937D01*
X3400Y3937D01*
X3401Y3937D01*
X3402Y3937D01*
X3403Y3937D01*
X3404Y3937D01*
X3405Y3937D01*
X3406Y3937D01*
X3407Y3937D01*
X3408Y3937D01*
X3409Y3937D01*
X3410Y3937D01*
X3411Y3937D01*
X3412Y3937D01*
X3413Y3937D01*
X3414Y3937D01*
X3415Y3937D01*
X3416Y3937D01*
X3417Y3937D01*
X3418Y3937D01*
X3419Y3937D01*
X3420Y3937D01*
X3421Y3937D01*
X3422Y3937D01*
X3423Y3937D01*
X3424Y3937D01*
X3425Y3937D01*
X3426Y3937D01*
X3427Y3937D01*
X3428Y3937D01*
X3429Y3937D01*
X3430Y3937D01*
X3431Y3937D01*
X3432Y3937D01*
X3433Y3937D01*
X3434Y3937D01*
X3435Y3937D01*
X3436Y3937D01*
X3437Y3937D01*
X3438Y3937D01*
X3439Y3937D01*
X3440Y3937D01*
X3441Y3937D01*
X3442Y3937D01*
X3443Y3937D01*
X3444Y3937D01*
X3445Y3937D01*
X3446Y3937D01*
X3447Y3937D01*
X3448Y3937D01*
X3449Y3937D01*
X3450Y3937D01*
X3451Y3937D01*
X3452Y3937D01*
X3453Y3937D01*
X3454Y3937D01*
X3455Y3937D01*
X3456Y3937D01*
X3457Y3937D01*
X3458Y3937D01*
X3459Y3937D01*
X3460Y3937D01*
X3461Y3937D01*
X3462Y3937D01*
X3463Y3937D01*
X3464Y3937D01*
X3465Y3937D01*
X3466Y3937D01*
X3467Y3937D01*
X3468Y3937D01*
X3469Y3937D01*
X3470Y3937D01*
X3471Y3937D01*
X3472Y3937D01*
X3473Y3937D01*
X3474Y3937D01*
X3475Y3937D01*
X3476Y3937D01*
X3477Y3937D01*
X3478Y3937D01*
X3479Y3937D01*
X3480Y3937D01*
X3481Y3937D01*
X3482Y3937D01*
X3483Y3937D01*
X3484Y3937D01*
X3485Y3937D01*
X3486Y3937D01*
X3487Y3937D01*
X3488Y3937D01*
X3489Y3937D01*
X3490Y3937D01*
X3491Y3937D01*
X3492Y3937D01*
X3493Y3937D01*
X3494Y3937D01*
X3495Y3937D01*
X3496Y3937D01*
X3497Y3937D01*
X3498Y3937D01*
X3499Y3937D01*
X3500Y3937D01*
X3501Y3937D01*
X3502Y3937D01*
X3503Y3937D01*
X3504Y3937D01*
X3505Y3937D01*
X3506Y3937D01*
X3507Y3937D01*
X3508Y3937D01*
X3509Y3937D01*
X3510Y3937D01*
X3511Y3937D01*
X3512Y3937D01*
X3513Y3937D01*
X3514Y3937D01*
X3515Y3937D01*
X3516Y3937D01*
X3517Y3937D01*
X3518Y3937D01*
X3519Y3937D01*
X3520Y3937D01*
X3521Y3937D01*
X3522Y3937D01*
X3523Y3937D01*
X3524Y3937D01*
X3525Y3937D01*
X3526Y3937D01*
X3527Y3937D01*
X3528Y3937D01*
X3529Y3937D01*
X3530Y3937D01*
X3531Y3937D01*
X3532Y3937D01*
X3533Y3937D01*
X3534Y3937D01*
X3535Y3937D01*
X3536Y3937D01*
X3537Y3937D01*
X3538Y3937D01*
X3539Y3937D01*
X3540Y3937D01*
X3541Y3937D01*
X3542Y3937D01*
X3543Y3937D01*
X3544Y3937D01*
X3545Y3937D01*
X3546Y3937D01*
X3547Y3937D01*
X3548Y3937D01*
X3549Y3937D01*
X3550Y3937D01*
X3551Y3937D01*
X3552Y3937D01*
X3553Y3937D01*
X3554Y3937D01*
X3555Y3937D01*
X3556Y3937D01*
X3557Y3937D01*
X3558Y3937D01*
X3559Y3937D01*
X3560Y3936D01*
X3561Y3936D01*
X3562Y3936D01*
X3563Y3936D01*
X3564Y3936D01*
X3565Y3936D01*
X3566Y3936D01*
X3567Y3936D01*
X3568Y3936D01*
X3569Y3936D01*
X3570Y3936D01*
X3571Y3936D01*
X3572Y3936D01*
X3573Y3936D01*
X3574Y3935D01*
X3575Y3935D01*
X3576Y3935D01*
X3577Y3935D01*
X3578Y3935D01*
X3579Y3935D01*
X3580Y3935D01*
X3581Y3935D01*
X3582Y3935D01*
X3583Y3935D01*
X3584Y3934D01*
X3585Y3934D01*
X3586Y3934D01*
X3587Y3934D01*
X3588Y3934D01*
X3589Y3934D01*
X3590Y3934D01*
X3591Y3934D01*
X3592Y3934D01*
X3593Y3933D01*
X3594Y3933D01*
X3595Y3933D01*
X3596Y3933D01*
X3597Y3933D01*
X3598Y3933D01*
X3599Y3933D01*
X3600Y3932D01*
X3601Y3932D01*
X3602Y3932D01*
X3603Y3932D01*
X3604Y3932D01*
X3605Y3932D01*
X3606Y3931D01*
X3607Y3931D01*
X3608Y3931D01*
X3609Y3931D01*
X3610Y3931D01*
X3611Y3931D01*
X3612Y3930D01*
X3613Y3930D01*
X3614Y3930D01*
X3615Y3930D01*
X3616Y3930D01*
X3617Y3929D01*
X3618Y3929D01*
X3619Y3929D01*
X3620Y3929D01*
X3621Y3929D01*
X3622Y3928D01*
X3623Y3928D01*
X3624Y3928D01*
X3625Y3928D01*
X3626Y3927D01*
X3627Y3927D01*
X3628Y3927D01*
X3629Y3927D01*
X3630Y3927D01*
X3631Y3926D01*
X3632Y3926D01*
X3633Y3926D01*
X3634Y3926D01*
X3635Y3925D01*
X3636Y3925D01*
X3637Y3925D01*
X3638Y3925D01*
X3639Y3924D01*
X3640Y3924D01*
X3641Y3924D01*
X3642Y3924D01*
X3643Y3923D01*
X3644Y3923D01*
X3645Y3923D01*
X3646Y3922D01*
X3647Y3922D01*
X3648Y3922D01*
X3649Y3922D01*
X3650Y3921D01*
X3651Y3921D01*
X3652Y3921D01*
X3653Y3920D01*
X3654Y3920D01*
X3655Y3920D01*
X3656Y3920D01*
X3657Y3919D01*
X3658Y3919D01*
X3659Y3919D01*
X3660Y3918D01*
X3661Y3918D01*
X3662Y3918D01*
X3663Y3917D01*
X3664Y3917D01*
X3665Y3917D01*
X3666Y3916D01*
X3667Y3916D01*
X3668Y3916D01*
X3669Y3915D01*
X3670Y3915D01*
X3671Y3915D01*
X3672Y3914D01*
X3673Y3914D01*
X3674Y3914D01*
X3675Y3913D01*
X3676Y3913D01*
X3677Y3912D01*
X3678Y3912D01*
X3679Y3912D01*
X3680Y3911D01*
X3681Y3911D01*
X3682Y3910D01*
X3683Y3910D01*
X3684Y3910D01*
X3685Y3909D01*
X3686Y3909D01*
X3687Y3909D01*
X3688Y3908D01*
X3689Y3908D01*
X3690Y3907D01*
X3691Y3907D01*
X3692Y3907D01*
X3693Y3906D01*
X3694Y3906D01*
X3695Y3905D01*
X3696Y3905D01*
X3697Y3904D01*
X3698Y3904D01*
X3699Y3904D01*
X3700Y3903D01*
X3701Y3903D01*
X3702Y3902D01*
X3703Y3902D01*
X3704Y3901D01*
X3705Y3901D01*
X3706Y3900D01*
X3707Y3900D01*
X3708Y3899D01*
X3709Y3899D01*
X3710Y3899D01*
X3711Y3898D01*
X3712Y3898D01*
X3713Y3897D01*
X3714Y3897D01*
X3715Y3896D01*
X3716Y3896D01*
X3717Y3895D01*
X3718Y3895D01*
X3719Y3894D01*
X3720Y3894D01*
X3721Y3893D01*
X3722Y3892D01*
X3723Y3892D01*
X3724Y3891D01*
X3725Y3891D01*
X3726Y3890D01*
X3727Y3890D01*
X3728Y3889D01*
X3729Y3889D01*
X3730Y3888D01*
X3731Y3888D01*
X3732Y3887D01*
X3733Y3887D01*
X3734Y3886D01*
X3735Y3885D01*
X3736Y3885D01*
X3737Y3884D01*
X3738Y3884D01*
X3739Y3883D01*
X3740Y3883D01*
X3741Y3882D01*
X3742Y3881D01*
X3743Y3881D01*
X3744Y3880D01*
X3745Y3880D01*
X3746Y3879D01*
X3747Y3878D01*
X3748Y3878D01*
X3749Y3877D01*
X3750Y3877D01*
X3751Y3876D01*
X3752Y3875D01*
X3753Y3875D01*
X3754Y3874D01*
X3755Y3873D01*
X3756Y3873D01*
X3757Y3872D01*
X3758Y3871D01*
X3759Y3871D01*
X3760Y3870D01*
X3761Y3869D01*
X3762Y3869D01*
X3763Y3868D01*
X3764Y3867D01*
X3765Y3867D01*
X3766Y3866D01*
X3767Y3865D01*
X3768Y3865D01*
X3769Y3864D01*
X3770Y3863D01*
X3771Y3862D01*
X3772Y3862D01*
X3773Y3861D01*
X3774Y3860D01*
X3775Y3860D01*
X3776Y3859D01*
X3777Y3858D01*
X3778Y3857D01*
X3779Y3857D01*
X3780Y3856D01*
X3781Y3855D01*
X3782Y3854D01*
X3783Y3853D01*
X3784Y3853D01*
X3785Y3852D01*
X3786Y3851D01*
X3787Y3850D01*
X3788Y3850D01*
X3789Y3849D01*
X3790Y3848D01*
X3791Y3847D01*
X3792Y3846D01*
X3793Y3846D01*
X3794Y3845D01*
X3795Y3844D01*
X3796Y3843D01*
X3797Y3842D01*
X3798Y3841D01*
X3799Y3840D01*
X3800Y3839D01*
X3801Y3839D01*
X3802Y3838D01*
X3803Y3837D01*
X3804Y3836D01*
X3805Y3835D01*
X3806Y3834D01*
X3807Y3833D01*
X3808Y3832D01*
X3809Y3831D01*
X3810Y3831D01*
X3811Y3830D01*
X3812Y3829D01*
X3813Y3828D01*
X3814Y3827D01*
X3815Y3826D01*
X3816Y3825D01*
X3817Y3824D01*
X3818Y3823D01*
X3819Y3822D01*
X3820Y3821D01*
X3821Y3820D01*
X3822Y3819D01*
X3823Y3818D01*
X3824Y3817D01*
X3825Y3816D01*
X3826Y3815D01*
X3827Y3814D01*
X3828Y3813D01*
X3829Y3812D01*
X3830Y3811D01*
X3830Y3810D01*
X3831Y3809D01*
X3832Y3808D01*
X3833Y3807D01*
X3834Y3806D01*
X3835Y3805D01*
X3836Y3804D01*
X3837Y3803D01*
X3838Y3802D01*
X3838Y3801D01*
X3839Y3800D01*
X3840Y3799D01*
X3841Y3798D01*
X3842Y3797D01*
X3843Y3796D01*
X3844Y3795D01*
X3845Y3794D01*
X3845Y3793D01*
X3846Y3792D01*
X3847Y3791D01*
X3848Y3790D01*
X3849Y3789D01*
X3849Y3788D01*
X3850Y3787D01*
X3851Y3786D01*
X3852Y3785D01*
X3852Y3784D01*
X3853Y3783D01*
X3854Y3782D01*
X3855Y3781D01*
X3856Y3780D01*
X3856Y3779D01*
X3857Y3778D01*
X3858Y3777D01*
X3859Y3776D01*
X3859Y3775D01*
X3860Y3774D01*
X3861Y3773D01*
X3861Y3772D01*
X3862Y3771D01*
X3863Y3770D01*
X3864Y3769D01*
X3864Y3768D01*
X3865Y3767D01*
X3866Y3766D01*
X3866Y3765D01*
X3867Y3764D01*
X3868Y3763D01*
X3868Y3762D01*
X3869Y3761D01*
X3870Y3760D01*
X3870Y3759D01*
X3871Y3758D01*
X3872Y3757D01*
X3872Y3756D01*
X3873Y3755D01*
X3874Y3754D01*
X3874Y3753D01*
X3875Y3752D01*
X3876Y3751D01*
X3876Y3750D01*
X3877Y3749D01*
X3877Y3748D01*
X3878Y3747D01*
X3879Y3746D01*
X3879Y3745D01*
X3880Y3744D01*
X3880Y3743D01*
X3881Y3742D01*
X3882Y3741D01*
X3882Y3740D01*
X3883Y3739D01*
X3883Y3738D01*
X3884Y3737D01*
X3884Y3736D01*
X3885Y3735D01*
X3886Y3734D01*
X3886Y3733D01*
X3887Y3732D01*
X3887Y3731D01*
X3888Y3730D01*
X3888Y3729D01*
X3889Y3728D01*
X3889Y3727D01*
X3890Y3726D01*
X3890Y3725D01*
X3891Y3724D01*
X3891Y3723D01*
X3892Y3722D01*
X3893Y3721D01*
X3893Y3720D01*
X3894Y3719D01*
X3894Y3718D01*
X3895Y3717D01*
X3895Y3716D01*
X3896Y3715D01*
X3896Y3714D01*
X3897Y3713D01*
X3897Y3712D01*
X3898Y3711D01*
X3898Y3709D01*
X3899Y3708D01*
X3899Y3707D01*
X3900Y3706D01*
X3900Y3705D01*
X3901Y3704D01*
X3901Y3703D01*
X3902Y3702D01*
X3902Y3701D01*
X3903Y3700D01*
X3903Y3698D01*
X3904Y3697D01*
X3904Y3696D01*
X3905Y3695D01*
X3905Y3694D01*
X3906Y3693D01*
X3906Y3691D01*
X3907Y3690D01*
X3907Y3689D01*
X3908Y3688D01*
X3908Y3686D01*
X3909Y3685D01*
X3909Y3683D01*
X3910Y3682D01*
X3910Y3681D01*
X3911Y3680D01*
X3911Y3678D01*
X3912Y3677D01*
X3912Y3676D01*
X3913Y3675D01*
X3913Y3673D01*
X3914Y3672D01*
X3914Y3670D01*
X3915Y3669D01*
X3915Y3667D01*
X3916Y3666D01*
X3916Y3664D01*
X3917Y3663D01*
X3917Y3661D01*
X3918Y3660D01*
X3918Y3658D01*
X3919Y3657D01*
X3919Y3654D01*
X3920Y3653D01*
X3920Y3651D01*
X3921Y3650D01*
X3921Y3647D01*
X3922Y3646D01*
X3922Y3644D01*
X3923Y3643D01*
X3923Y3640D01*
X3924Y3639D01*
X3924Y3636D01*
X3925Y3635D01*
X3925Y3632D01*
X3926Y3631D01*
X3926Y3627D01*
X3927Y3626D01*
X3927Y3623D01*
X3928Y3622D01*
X3928Y3618D01*
X3929Y3617D01*
X3929Y3613D01*
X3930Y3612D01*
X3930Y3607D01*
X3931Y3606D01*
X3931Y3601D01*
X3932Y3600D01*
X3932Y3594D01*
X3933Y3593D01*
X3933Y3585D01*
X3934Y3584D01*
X3934Y3575D01*
X3935Y3574D01*
X3935Y3561D01*
X3936Y3560D01*
X3936Y378D01*
X3935Y377D01*
X3935Y364D01*
X3934Y363D01*
X3934Y354D01*
X3933Y353D01*
X3933Y345D01*
X3932Y344D01*
X3932Y338D01*
X3931Y337D01*
X3931Y332D01*
X3930Y331D01*
X3930Y326D01*
X3929Y325D01*
X3929Y321D01*
X3928Y320D01*
X3928Y316D01*
X3927Y315D01*
X3927Y312D01*
X3926Y311D01*
X3926Y307D01*
X3925Y306D01*
X3925Y303D01*
X3924Y302D01*
X3924Y299D01*
X3923Y298D01*
X3923Y295D01*
X3922Y294D01*
X3922Y292D01*
X3921Y291D01*
X3921Y288D01*
X3920Y287D01*
X3920Y285D01*
X3919Y284D01*
X3919Y281D01*
X3918Y280D01*
X3918Y278D01*
X3917Y277D01*
X3917Y275D01*
X3916Y274D01*
X3916Y272D01*
X3915Y271D01*
X3915Y269D01*
X3914Y268D01*
X3914Y266D01*
X3913Y265D01*
X3913Y263D01*
X3912Y262D01*
X3912Y261D01*
X3911Y260D01*
X3911Y258D01*
X3910Y257D01*
X3910Y256D01*
X3909Y255D01*
X3909Y253D01*
X3908Y252D01*
X3908Y250D01*
X3907Y249D01*
X3907Y248D01*
X3906Y247D01*
X3906Y245D01*
X3905Y244D01*
X3905Y243D01*
X3904Y242D01*
X3904Y241D01*
X3903Y240D01*
X3903Y238D01*
X3902Y237D01*
X3902Y236D01*
X3901Y235D01*
X3901Y234D01*
X3900Y233D01*
X3900Y232D01*
X3899Y231D01*
X3899Y230D01*
X3898Y229D01*
X3898Y227D01*
X3897Y226D01*
X3897Y225D01*
X3896Y224D01*
X3896Y223D01*
X3895Y222D01*
X3895Y221D01*
X3894Y220D01*
X3894Y219D01*
X3893Y218D01*
X3893Y217D01*
X3892Y216D01*
X3891Y215D01*
X3891Y214D01*
X3890Y213D01*
X3890Y212D01*
X3889Y211D01*
X3889Y210D01*
X3888Y209D01*
X3888Y208D01*
X3887Y207D01*
X3887Y206D01*
X3886Y205D01*
X3886Y204D01*
X3885Y203D01*
X3884Y202D01*
X3884Y201D01*
X3883Y200D01*
X3883Y199D01*
X3882Y198D01*
X3882Y197D01*
X3881Y196D01*
X3880Y195D01*
X3880Y194D01*
X3879Y193D01*
X3879Y192D01*
X3878Y191D01*
X3877Y190D01*
X3877Y189D01*
X3876Y188D01*
X3876Y187D01*
X3875Y186D01*
X3874Y185D01*
X3874Y184D01*
X3873Y183D01*
X3872Y182D01*
X3872Y181D01*
X3871Y180D01*
X3870Y179D01*
X3870Y178D01*
X3869Y177D01*
X3868Y176D01*
X3868Y175D01*
X3867Y174D01*
X3866Y173D01*
X3866Y172D01*
X3865Y171D01*
X3864Y170D01*
X3864Y169D01*
X3863Y168D01*
X3862Y167D01*
X3861Y166D01*
X3861Y165D01*
X3860Y164D01*
X3859Y163D01*
X3859Y162D01*
X3858Y161D01*
X3857Y160D01*
X3856Y159D01*
X3856Y158D01*
X3855Y157D01*
X3854Y156D01*
X3853Y155D01*
X3852Y154D01*
X3852Y153D01*
X3851Y152D01*
X3850Y151D01*
X3849Y150D01*
X3849Y149D01*
X3848Y148D01*
X3847Y147D01*
X3846Y146D01*
X3845Y145D01*
X3845Y144D01*
X3844Y143D01*
X3843Y142D01*
X3842Y141D01*
X3841Y140D01*
X3840Y139D01*
X3839Y138D01*
X3838Y137D01*
X3838Y136D01*
X3837Y135D01*
X3836Y134D01*
X3835Y133D01*
X3834Y132D01*
X3833Y131D01*
X3832Y130D01*
X3831Y129D01*
X3830Y128D01*
X3830Y127D01*
X3829Y126D01*
X3828Y125D01*
X3827Y124D01*
X3826Y123D01*
X3825Y122D01*
X3824Y121D01*
X3823Y120D01*
X3822Y119D01*
X3821Y118D01*
X3820Y117D01*
X3819Y116D01*
X3818Y115D01*
X3817Y114D01*
X3816Y113D01*
X3815Y112D01*
X3814Y111D01*
X3813Y110D01*
X3812Y109D01*
X3811Y108D01*
X3810Y107D01*
X3809Y107D01*
X3808Y106D01*
X3807Y105D01*
X3806Y104D01*
X3805Y103D01*
X3804Y102D01*
X3803Y101D01*
X3802Y100D01*
X3801Y99D01*
X3800Y99D01*
X3799Y98D01*
X3798Y97D01*
X3797Y96D01*
X3796Y95D01*
X3795Y94D01*
X3794Y93D01*
X3793Y92D01*
X3792Y92D01*
X3791Y91D01*
X3790Y90D01*
X3789Y89D01*
X3788Y88D01*
X3787Y88D01*
X3786Y87D01*
X3785Y86D01*
X3784Y85D01*
X3783Y85D01*
X3782Y84D01*
X3781Y83D01*
X3780Y82D01*
X3779Y81D01*
X3778Y81D01*
X3777Y80D01*
X3776Y79D01*
X3775Y78D01*
X3774Y78D01*
X3773Y77D01*
X3772Y76D01*
X3771Y76D01*
X3770Y75D01*
X3769Y74D01*
X3768Y73D01*
X3767Y73D01*
X3766Y72D01*
X3765Y71D01*
X3764Y71D01*
X3763Y70D01*
X3762Y69D01*
X3761Y69D01*
X3760Y68D01*
X3759Y67D01*
X3758Y67D01*
X3757Y66D01*
X3756Y65D01*
X3755Y65D01*
X3754Y64D01*
X3753Y63D01*
X3752Y63D01*
X3751Y62D01*
X3750Y61D01*
X3749Y61D01*
X3748Y60D01*
X3747Y60D01*
X3746Y59D01*
X3745Y58D01*
X3744Y58D01*
X3743Y57D01*
X3742Y57D01*
X3741Y56D01*
X3740Y55D01*
X3739Y55D01*
X3738Y54D01*
X3737Y54D01*
X3736Y53D01*
X3735Y53D01*
X3734Y52D01*
X3733Y51D01*
X3732Y51D01*
X3731Y50D01*
X3730Y50D01*
X3729Y49D01*
X3728Y49D01*
X3727Y48D01*
X3726Y48D01*
X3725Y47D01*
X3724Y47D01*
X3723Y46D01*
X3722Y46D01*
X3721Y45D01*
X3720Y44D01*
X3719Y44D01*
X3718Y43D01*
X3717Y43D01*
X3716Y42D01*
X3715Y42D01*
X3714Y41D01*
X3713Y41D01*
X3712Y40D01*
X3711Y40D01*
X3710Y39D01*
X3709Y39D01*
X3708Y39D01*
X3707Y38D01*
X3706Y38D01*
X3705Y37D01*
X3704Y37D01*
X3703Y36D01*
X3702Y36D01*
X3701Y35D01*
X3700Y35D01*
X3699Y34D01*
X3698Y34D01*
X3697Y34D01*
X3696Y33D01*
X3695Y33D01*
X3694Y32D01*
X3693Y32D01*
X3692Y31D01*
X3691Y31D01*
X3690Y31D01*
X3689Y30D01*
X3688Y30D01*
X3687Y29D01*
X3686Y29D01*
X3685Y29D01*
X3684Y28D01*
X3683Y28D01*
X3682Y28D01*
X3681Y27D01*
X3680Y27D01*
X3679Y26D01*
X3678Y26D01*
X3677Y26D01*
X3676Y25D01*
X3675Y25D01*
X3674Y24D01*
X3673Y24D01*
X3672Y24D01*
X3671Y23D01*
X3670Y23D01*
X3669Y23D01*
X3668Y22D01*
X3667Y22D01*
X3666Y22D01*
X3665Y21D01*
X3664Y21D01*
X3663Y21D01*
X3662Y20D01*
X3661Y20D01*
X3660Y20D01*
X3659Y19D01*
X3658Y19D01*
X3657Y19D01*
X3656Y18D01*
X3655Y18D01*
X3654Y18D01*
X3653Y18D01*
X3652Y17D01*
X3651Y17D01*
X3650Y17D01*
X3649Y16D01*
X3648Y16D01*
X3647Y16D01*
X3646Y16D01*
X3645Y15D01*
X3644Y15D01*
X3643Y15D01*
X3642Y14D01*
X3641Y14D01*
X3640Y14D01*
X3639Y14D01*
X3638Y13D01*
X3637Y13D01*
X3636Y13D01*
X3635Y13D01*
X3634Y12D01*
X3633Y12D01*
X3632Y12D01*
X3631Y12D01*
X3630Y11D01*
X3629Y11D01*
X3628Y11D01*
X3627Y11D01*
X3626Y11D01*
X3625Y10D01*
X3624Y10D01*
X3623Y10D01*
X3622Y10D01*
X3621Y9D01*
X3620Y9D01*
X3619Y9D01*
X3618Y9D01*
X3617Y9D01*
X3616Y8D01*
X3615Y8D01*
X3614Y8D01*
X3613Y8D01*
X3612Y8D01*
X3611Y7D01*
X3610Y7D01*
X3609Y7D01*
X3608Y7D01*
X3607Y7D01*
X3606Y7D01*
X3605Y6D01*
X3604Y6D01*
X3603Y6D01*
X3602Y6D01*
X3601Y6D01*
X3600Y6D01*
X3599Y5D01*
X3598Y5D01*
X3597Y5D01*
X3596Y5D01*
X3595Y5D01*
X3594Y5D01*
X3593Y5D01*
X3592Y4D01*
X3591Y4D01*
X3590Y4D01*
X3589Y4D01*
X3588Y4D01*
X3587Y4D01*
X3586Y4D01*
X3585Y4D01*
X3584Y4D01*
X3583Y3D01*
X3582Y3D01*
X3581Y3D01*
X3580Y3D01*
X3579Y3D01*
X3578Y3D01*
X3577Y3D01*
X3576Y3D01*
X3575Y3D01*
X3574Y3D01*
X3573Y2D01*
X3572Y2D01*
X3571Y2D01*
X3570Y2D01*
X3569Y2D01*
X3568Y2D01*
X3567Y2D01*
X3566Y2D01*
X3565Y2D01*
X3564Y2D01*
X3563Y2D01*
X3562Y2D01*
X3561Y2D01*
X3560Y2D01*
X3559Y1D01*
X3558Y1D01*
X3557Y1D01*
X3556Y1D01*
X3555Y1D01*
X3554Y1D01*
X3553Y1D01*
X3552Y1D01*
X3551Y1D01*
X3550Y1D01*
X3549Y1D01*
X3548Y1D01*
X3547Y1D01*
X3546Y1D01*
X3545Y1D01*
X3544Y1D01*
X3543Y1D01*
X3542Y1D01*
X3541Y1D01*
X3540Y1D01*
X3539Y1D01*
X3538Y1D01*
X3537Y1D01*
X3536Y1D01*
X3535Y1D01*
X3534Y1D01*
X3533Y1D01*
X3532Y1D01*
X3531Y1D01*
X3530Y1D01*
X3529Y1D01*
X3528Y1D01*
X3527Y1D01*
X3526Y1D01*
X3525Y1D01*
X3524Y1D01*
X3523Y1D01*
X3522Y1D01*
X3521Y1D01*
X3520Y1D01*
X3519Y1D01*
X3518Y1D01*
X3517Y1D01*
X3516Y1D01*
X3515Y1D01*
X3514Y1D01*
X3513Y1D01*
X3512Y1D01*
X3511Y1D01*
X3510Y1D01*
X3509Y1D01*
X3508Y1D01*
X3507Y1D01*
X3506Y1D01*
X3505Y1D01*
X3504Y1D01*
X3503Y1D01*
X3502Y1D01*
X3501Y1D01*
X3500Y1D01*
X3499Y1D01*
X3498Y1D01*
X3497Y1D01*
X3496Y1D01*
X3495Y1D01*
X3494Y1D01*
X3493Y1D01*
X3492Y1D01*
X3491Y1D01*
X3490Y1D01*
X3489Y1D01*
X3488Y1D01*
X3487Y1D01*
X3486Y1D01*
X3485Y1D01*
X3484Y1D01*
X3483Y1D01*
X3482Y1D01*
X3481Y1D01*
X3480Y1D01*
X3479Y1D01*
X3478Y1D01*
X3477Y1D01*
X3476Y1D01*
X3475Y1D01*
X3474Y1D01*
X3473Y1D01*
X3472Y1D01*
X3471Y1D01*
X3470Y1D01*
X3469Y1D01*
X3468Y1D01*
X3467Y1D01*
X3466Y1D01*
X3465Y1D01*
X3464Y1D01*
X3463Y1D01*
X3462Y1D01*
X3461Y1D01*
X3460Y1D01*
X3459Y1D01*
X3458Y1D01*
X3457Y1D01*
X3456Y1D01*
X3455Y1D01*
X3454Y1D01*
X3453Y1D01*
X3452Y1D01*
X3451Y1D01*
X3450Y1D01*
X3449Y1D01*
X3448Y1D01*
X3447Y1D01*
X3446Y1D01*
X3445Y1D01*
X3444Y1D01*
X3443Y1D01*
X3442Y1D01*
X3441Y1D01*
X3440Y1D01*
X3439Y1D01*
X3438Y1D01*
X3437Y1D01*
X3436Y1D01*
X3435Y1D01*
X3434Y1D01*
X3433Y1D01*
X3432Y1D01*
X3431Y1D01*
X3430Y1D01*
X3429Y1D01*
X3428Y1D01*
X3427Y1D01*
X3426Y1D01*
X3425Y1D01*
X3424Y1D01*
X3423Y1D01*
X3422Y1D01*
X3421Y1D01*
X3420Y1D01*
X3419Y1D01*
X3418Y1D01*
X3417Y1D01*
X3416Y1D01*
X3415Y1D01*
X3414Y1D01*
X3413Y1D01*
X3412Y1D01*
X3411Y1D01*
X3410Y1D01*
X3409Y1D01*
X3408Y1D01*
X3407Y1D01*
X3406Y1D01*
X3405Y1D01*
X3404Y1D01*
X3403Y1D01*
X3402Y1D01*
X3401Y1D01*
X3400Y1D01*
X3399Y1D01*
X3398Y1D01*
X3397Y1D01*
X3396Y1D01*
X3395Y1D01*
X3394Y1D01*
X3393Y1D01*
X3392Y1D01*
X3391Y1D01*
X3390Y1D01*
X3389Y1D01*
X3388Y1D01*
X3387Y1D01*
X3386Y1D01*
X3385Y1D01*
X3384Y1D01*
X3383Y1D01*
X3382Y1D01*
X3381Y1D01*
X3380Y1D01*
X3379Y1D01*
X3378Y1D01*
X3377Y1D01*
X3376Y1D01*
X3375Y1D01*
X3374Y1D01*
X3373Y1D01*
X3372Y1D01*
X3371Y1D01*
X3370Y1D01*
X3369Y1D01*
X3368Y1D01*
X3367Y1D01*
X3366Y1D01*
X3365Y1D01*
X3364Y1D01*
X3363Y1D01*
X3362Y1D01*
X3361Y1D01*
X3360Y1D01*
X3359Y1D01*
X3358Y1D01*
X3357Y1D01*
X3356Y1D01*
X3355Y1D01*
X3354Y1D01*
X3353Y1D01*
X3352Y1D01*
X3351Y1D01*
X3350Y1D01*
X3349Y1D01*
X3348Y1D01*
X3347Y1D01*
X3346Y1D01*
X3345Y1D01*
X3344Y1D01*
X3343Y1D01*
X3342Y1D01*
X3341Y1D01*
X3340Y1D01*
X3339Y1D01*
X3338Y1D01*
X3337Y1D01*
X3336Y1D01*
X3335Y1D01*
X3334Y1D01*
X3333Y1D01*
X3332Y1D01*
X3331Y1D01*
X3330Y1D01*
X3329Y1D01*
X3328Y1D01*
X3327Y1D01*
X3326Y1D01*
X3325Y1D01*
X3324Y1D01*
X3323Y1D01*
X3322Y1D01*
X3321Y1D01*
X3320Y1D01*
X3319Y1D01*
X3318Y1D01*
X3317Y1D01*
X3316Y1D01*
X3315Y1D01*
X3314Y1D01*
X3313Y1D01*
X3312Y1D01*
X3311Y1D01*
X3310Y1D01*
X3309Y1D01*
X3308Y1D01*
X3307Y1D01*
X3306Y1D01*
X3305Y1D01*
X3304Y1D01*
X3303Y1D01*
X3302Y1D01*
X3301Y1D01*
X3300Y1D01*
X3299Y1D01*
X3298Y1D01*
X3297Y1D01*
X3296Y1D01*
X3295Y1D01*
X3294Y1D01*
X3293Y1D01*
X3292Y1D01*
X3291Y1D01*
X3290Y1D01*
X3289Y1D01*
X3288Y1D01*
X3287Y1D01*
X3286Y1D01*
X3285Y1D01*
X3284Y1D01*
X3283Y1D01*
X3282Y1D01*
X3281Y1D01*
X3280Y1D01*
X3279Y1D01*
X3278Y1D01*
X3277Y1D01*
X3276Y1D01*
X3275Y1D01*
X3274Y1D01*
X3273Y1D01*
X3272Y1D01*
X3271Y1D01*
X3270Y1D01*
X3269Y1D01*
X3268Y1D01*
X3267Y1D01*
X3266Y1D01*
X3265Y1D01*
X3264Y1D01*
X3263Y1D01*
X3262Y1D01*
X3261Y1D01*
X3260Y1D01*
X3259Y1D01*
X3258Y1D01*
X3257Y1D01*
X3256Y1D01*
X3255Y1D01*
X3254Y1D01*
X3253Y1D01*
X3252Y1D01*
X3251Y1D01*
X3250Y1D01*
X3249Y1D01*
X3248Y1D01*
X3247Y1D01*
X3246Y1D01*
X3245Y1D01*
X3244Y1D01*
X3243Y1D01*
X3242Y1D01*
X3241Y1D01*
X3240Y1D01*
X3239Y1D01*
X3238Y1D01*
X3237Y1D01*
X3236Y1D01*
X3235Y1D01*
X3234Y1D01*
X3233Y1D01*
X3232Y1D01*
X3231Y1D01*
X3230Y1D01*
X3229Y1D01*
X3228Y1D01*
X3227Y1D01*
X3226Y1D01*
X3225Y1D01*
X3224Y1D01*
X3223Y1D01*
X3222Y1D01*
X3221Y1D01*
X3220Y1D01*
X3219Y1D01*
X3218Y1D01*
X3217Y1D01*
X3216Y1D01*
X3215Y1D01*
X3214Y1D01*
X3213Y1D01*
X3212Y1D01*
X3211Y1D01*
X3210Y1D01*
X3209Y1D01*
X3208Y1D01*
X3207Y1D01*
X3206Y1D01*
X3205Y1D01*
X3204Y1D01*
X3203Y1D01*
X3202Y1D01*
X3201Y1D01*
X3200Y1D01*
X3199Y1D01*
X3198Y1D01*
X3197Y1D01*
X3196Y1D01*
X3195Y1D01*
X3194Y1D01*
X3193Y1D01*
X3192Y1D01*
X3191Y1D01*
X3190Y1D01*
X3189Y1D01*
X3188Y1D01*
X3187Y1D01*
X3186Y1D01*
X3185Y1D01*
X3184Y1D01*
X3183Y1D01*
X3182Y1D01*
X3181Y1D01*
X3180Y1D01*
X3179Y1D01*
X3178Y1D01*
X3177Y1D01*
X3176Y1D01*
X3175Y1D01*
X3174Y1D01*
X3173Y1D01*
X3172Y1D01*
X3171Y1D01*
X3170Y1D01*
X3169Y1D01*
X3168Y1D01*
X3167Y1D01*
X3166Y1D01*
X3165Y1D01*
X3164Y1D01*
X3163Y1D01*
X3162Y1D01*
X3161Y1D01*
X3160Y1D01*
X3159Y1D01*
X3158Y1D01*
X3157Y1D01*
X3156Y1D01*
X3155Y1D01*
X3154Y1D01*
X3153Y1D01*
X3152Y1D01*
X3151Y1D01*
X3150Y1D01*
X3149Y1D01*
X3148Y1D01*
X3147Y1D01*
X3146Y1D01*
X3145Y1D01*
X3144Y1D01*
X3143Y1D01*
X3142Y1D01*
X3141Y1D01*
X3140Y1D01*
X3139Y1D01*
X3138Y1D01*
X3137Y1D01*
X3136Y1D01*
X3135Y1D01*
X3134Y1D01*
X3133Y1D01*
X3132Y1D01*
X3131Y1D01*
X3130Y1D01*
X3129Y1D01*
X3128Y1D01*
X3127Y1D01*
X3126Y1D01*
X3125Y1D01*
X3124Y1D01*
X3123Y1D01*
X3122Y1D01*
X3121Y1D01*
X3120Y1D01*
X3119Y1D01*
X3118Y1D01*
X3117Y1D01*
X3116Y1D01*
X3115Y1D01*
X3114Y1D01*
X3113Y1D01*
X3112Y1D01*
X3111Y1D01*
X3110Y1D01*
X3109Y1D01*
X3108Y1D01*
X3107Y1D01*
X3106Y1D01*
X3105Y1D01*
X3104Y1D01*
X3103Y1D01*
X3102Y1D01*
X3101Y1D01*
X3100Y1D01*
X3099Y1D01*
X3098Y1D01*
X3097Y1D01*
X3096Y1D01*
X3095Y1D01*
X3094Y1D01*
X3093Y1D01*
X3092Y1D01*
X3091Y1D01*
X3090Y1D01*
X3089Y1D01*
X3088Y1D01*
X3087Y1D01*
X3086Y1D01*
X3085Y1D01*
X3084Y1D01*
X3083Y1D01*
X3082Y1D01*
X3081Y1D01*
X3080Y1D01*
X3079Y1D01*
X3078Y1D01*
X3077Y1D01*
X3076Y1D01*
X3075Y1D01*
X3074Y1D01*
X3073Y1D01*
X3072Y1D01*
X3071Y1D01*
X3070Y1D01*
X3069Y1D01*
X3068Y1D01*
X3067Y1D01*
X3066Y1D01*
X3065Y1D01*
X3064Y1D01*
X3063Y1D01*
X3062Y1D01*
X3061Y1D01*
X3060Y1D01*
X3059Y1D01*
X3058Y1D01*
X3057Y1D01*
X3056Y1D01*
X3055Y1D01*
X3054Y1D01*
X3053Y1D01*
X3052Y1D01*
X3051Y1D01*
X3050Y1D01*
X3049Y1D01*
X3048Y1D01*
X3047Y1D01*
X3046Y1D01*
X3045Y1D01*
X3044Y1D01*
X3043Y1D01*
X3042Y1D01*
X3041Y1D01*
X3040Y1D01*
X3039Y1D01*
X3038Y1D01*
X3037Y1D01*
X3036Y1D01*
X3035Y1D01*
X3034Y1D01*
X3033Y1D01*
X3032Y1D01*
X3031Y1D01*
X3030Y1D01*
X3029Y1D01*
X3028Y1D01*
X3027Y1D01*
X3026Y1D01*
X3025Y1D01*
X3024Y1D01*
X3023Y1D01*
X3022Y1D01*
X3021Y1D01*
X3020Y1D01*
X3019Y1D01*
X3018Y1D01*
X3017Y1D01*
X3016Y1D01*
X3015Y1D01*
X3014Y1D01*
X3013Y1D01*
X3012Y1D01*
X3011Y1D01*
X3010Y1D01*
X3009Y1D01*
X3008Y1D01*
X3007Y1D01*
X3006Y1D01*
X3005Y1D01*
X3004Y1D01*
X3003Y1D01*
X3002Y1D01*
X3001Y1D01*
X3000Y1D01*
X2999Y1D01*
X2998Y1D01*
X2997Y1D01*
X2996Y1D01*
X2995Y1D01*
X2994Y1D01*
X2993Y1D01*
X2992Y1D01*
X2991Y1D01*
X2990Y1D01*
X2989Y1D01*
X2988Y1D01*
X2987Y1D01*
X2986Y1D01*
X2985Y1D01*
X2984Y1D01*
X2983Y1D01*
X2982Y1D01*
X2981Y1D01*
X2980Y1D01*
X2979Y1D01*
X2978Y1D01*
X2977Y1D01*
X2976Y1D01*
X2975Y1D01*
X2974Y1D01*
X2973Y1D01*
X2972Y1D01*
X2971Y1D01*
X2970Y1D01*
X2969Y1D01*
X2968Y1D01*
X2967Y1D01*
X2966Y1D01*
X2965Y1D01*
X2964Y1D01*
X2963Y1D01*
X2962Y1D01*
X2961Y1D01*
X2960Y1D01*
X2959Y1D01*
X2958Y1D01*
X2957Y1D01*
X2956Y1D01*
X2955Y1D01*
X2954Y1D01*
X2953Y1D01*
X2952Y1D01*
X2951Y1D01*
X2950Y1D01*
X2949Y1D01*
X2948Y1D01*
X2947Y1D01*
X2946Y1D01*
X2945Y1D01*
X2944Y1D01*
X2943Y1D01*
X2942Y1D01*
X2941Y1D01*
X2940Y1D01*
X2939Y1D01*
X2938Y1D01*
X2937Y1D01*
X2936Y1D01*
X2935Y1D01*
X2934Y1D01*
X2933Y1D01*
X2932Y1D01*
X2931Y1D01*
X2930Y1D01*
X2929Y1D01*
X2928Y1D01*
X2927Y1D01*
X2926Y1D01*
X2925Y1D01*
X2924Y1D01*
X2923Y1D01*
X2922Y1D01*
X2921Y1D01*
X2920Y1D01*
X2919Y1D01*
X2918Y1D01*
X2917Y1D01*
X2916Y1D01*
X2915Y1D01*
X2914Y1D01*
X2913Y1D01*
X2912Y1D01*
X2911Y1D01*
X2910Y1D01*
X2909Y1D01*
X2908Y1D01*
X2907Y1D01*
X2906Y1D01*
X2905Y1D01*
X2904Y1D01*
X2903Y1D01*
X2902Y1D01*
X2901Y1D01*
X2900Y1D01*
X2899Y1D01*
X2898Y1D01*
X2897Y1D01*
X2896Y1D01*
X2895Y1D01*
X2894Y1D01*
X2893Y1D01*
X2892Y1D01*
X2891Y1D01*
X2890Y1D01*
X2889Y1D01*
X2888Y1D01*
X2887Y1D01*
X2886Y1D01*
X2885Y1D01*
X2884Y1D01*
X2883Y1D01*
X2882Y1D01*
X2881Y1D01*
X2880Y1D01*
X2879Y1D01*
X2878Y1D01*
X2877Y1D01*
X2876Y1D01*
X2875Y1D01*
X2874Y1D01*
X2873Y1D01*
X2872Y1D01*
X2871Y1D01*
X2870Y1D01*
X2869Y1D01*
X2868Y1D01*
X2867Y1D01*
X2866Y1D01*
X2865Y1D01*
X2864Y1D01*
X2863Y1D01*
X2862Y1D01*
X2861Y1D01*
X2860Y1D01*
X2859Y1D01*
X2858Y1D01*
X2857Y1D01*
X2856Y1D01*
X2855Y1D01*
X2854Y1D01*
X2853Y1D01*
X2852Y1D01*
X2851Y1D01*
X2850Y1D01*
X2849Y1D01*
X2848Y1D01*
X2847Y1D01*
X2846Y1D01*
X2845Y1D01*
X2844Y1D01*
X2843Y1D01*
X2842Y1D01*
X2841Y1D01*
X2840Y1D01*
X2839Y1D01*
X2838Y1D01*
X2837Y1D01*
X2836Y1D01*
X2835Y1D01*
X2834Y1D01*
X2833Y1D01*
X2832Y1D01*
X2831Y1D01*
X2830Y1D01*
X2829Y1D01*
X2828Y1D01*
X2827Y1D01*
X2826Y1D01*
X2825Y1D01*
X2824Y1D01*
X2823Y1D01*
X2822Y1D01*
X2821Y1D01*
X2820Y1D01*
X2819Y1D01*
X2818Y1D01*
X2817Y1D01*
X2816Y1D01*
X2815Y1D01*
X2814Y1D01*
X2813Y1D01*
X2812Y1D01*
X2811Y1D01*
X2810Y1D01*
X2809Y1D01*
X2808Y1D01*
X2807Y1D01*
X2806Y1D01*
X2805Y1D01*
X2804Y1D01*
X2803Y1D01*
X2802Y1D01*
X2801Y1D01*
X2800Y1D01*
X2799Y1D01*
X2798Y1D01*
X2797Y1D01*
X2796Y1D01*
X2795Y1D01*
X2794Y1D01*
X2793Y1D01*
X2792Y1D01*
X2791Y1D01*
X2790Y1D01*
X2789Y1D01*
X2788Y1D01*
X2787Y1D01*
X2786Y1D01*
X2785Y1D01*
X2784Y1D01*
X2783Y1D01*
X2782Y1D01*
X2781Y1D01*
X2780Y1D01*
X2779Y1D01*
X2778Y1D01*
X2777Y1D01*
X2776Y1D01*
X2775Y1D01*
X2774Y1D01*
X2773Y1D01*
X2772Y1D01*
X2771Y1D01*
X2770Y1D01*
X2769Y1D01*
X2768Y1D01*
X2767Y1D01*
X2766Y1D01*
X2765Y1D01*
X2764Y1D01*
X2763Y1D01*
X2762Y1D01*
X2761Y1D01*
X2760Y1D01*
X2759Y1D01*
X2758Y1D01*
X2757Y1D01*
X2756Y1D01*
X2755Y1D01*
X2754Y1D01*
X2753Y1D01*
X2752Y1D01*
X2751Y1D01*
X2750Y1D01*
X2749Y1D01*
X2748Y1D01*
X2747Y1D01*
X2746Y1D01*
X2745Y1D01*
X2744Y1D01*
X2743Y1D01*
X2742Y1D01*
X2741Y1D01*
X2740Y1D01*
X2739Y1D01*
X2738Y1D01*
X2737Y1D01*
X2736Y1D01*
X2735Y1D01*
X2734Y1D01*
X2733Y1D01*
X2732Y1D01*
X2731Y1D01*
X2730Y1D01*
X2729Y1D01*
X2728Y1D01*
X2727Y1D01*
X2726Y1D01*
X2725Y1D01*
X2724Y1D01*
X2723Y1D01*
X2722Y1D01*
X2721Y1D01*
X2720Y1D01*
X2719Y1D01*
X2718Y1D01*
X2717Y1D01*
X2716Y1D01*
X2715Y1D01*
X2714Y1D01*
X2713Y1D01*
X2712Y1D01*
X2711Y1D01*
X2710Y1D01*
X2709Y1D01*
X2708Y1D01*
X2707Y1D01*
X2706Y1D01*
X2705Y1D01*
X2704Y1D01*
X2703Y1D01*
X2702Y1D01*
X2701Y1D01*
X2700Y1D01*
X2699Y1D01*
X2698Y1D01*
X2697Y1D01*
X2696Y1D01*
X2695Y1D01*
X2694Y1D01*
X2693Y1D01*
X2692Y1D01*
X2691Y1D01*
X2690Y1D01*
X2689Y1D01*
X2688Y1D01*
X2687Y1D01*
X2686Y1D01*
X2685Y1D01*
X2684Y1D01*
X2683Y1D01*
X2682Y1D01*
X2681Y1D01*
X2680Y1D01*
X2679Y1D01*
X2678Y1D01*
X2677Y1D01*
X2676Y1D01*
X2675Y1D01*
X2674Y1D01*
X2673Y1D01*
X2672Y1D01*
X2671Y1D01*
X2670Y1D01*
X2669Y1D01*
X2668Y1D01*
X2667Y1D01*
X2666Y1D01*
X2665Y1D01*
X2664Y1D01*
X2663Y1D01*
X2662Y1D01*
X2661Y1D01*
X2660Y1D01*
X2659Y1D01*
X2658Y1D01*
X2657Y1D01*
X2656Y1D01*
X2655Y1D01*
X2654Y1D01*
X2653Y1D01*
X2652Y1D01*
X2651Y1D01*
X2650Y1D01*
X2649Y1D01*
X2648Y1D01*
X2647Y1D01*
X2646Y1D01*
X2645Y1D01*
X2644Y1D01*
X2643Y1D01*
X2642Y1D01*
X2641Y1D01*
X2640Y1D01*
X2639Y1D01*
X2638Y1D01*
X2637Y1D01*
X2636Y1D01*
X2635Y1D01*
X2634Y1D01*
X2633Y1D01*
X2632Y1D01*
X2631Y1D01*
X2630Y1D01*
X2629Y1D01*
X2628Y1D01*
X2627Y1D01*
X2626Y1D01*
X2625Y1D01*
X2624Y1D01*
X2623Y1D01*
X2622Y1D01*
X2621Y1D01*
X2620Y1D01*
X2619Y1D01*
X2618Y1D01*
X2617Y1D01*
X2616Y1D01*
X2615Y1D01*
X2614Y1D01*
X2613Y1D01*
X2612Y1D01*
X2611Y1D01*
X2610Y1D01*
X2609Y1D01*
X2608Y1D01*
X2607Y1D01*
X2606Y1D01*
X2605Y1D01*
X2604Y1D01*
X2603Y1D01*
X2602Y1D01*
X2601Y1D01*
X2600Y1D01*
X2599Y1D01*
X2598Y1D01*
X2597Y1D01*
X2596Y1D01*
X2595Y1D01*
X2594Y1D01*
X2593Y1D01*
X2592Y1D01*
X2591Y1D01*
X2590Y1D01*
X2589Y1D01*
X2588Y1D01*
X2587Y1D01*
X2586Y1D01*
X2585Y1D01*
X2584Y1D01*
X2583Y1D01*
X2582Y1D01*
X2581Y1D01*
X2580Y1D01*
X2579Y1D01*
X2578Y1D01*
X2577Y1D01*
X2576Y1D01*
X2575Y1D01*
X2574Y1D01*
X2573Y1D01*
X2572Y1D01*
X2571Y1D01*
X2570Y1D01*
X2569Y1D01*
X2568Y1D01*
X2567Y1D01*
X2566Y1D01*
X2565Y1D01*
X2564Y1D01*
X2563Y1D01*
X2562Y1D01*
X2561Y1D01*
X2560Y1D01*
X2559Y1D01*
X2558Y1D01*
X2557Y1D01*
X2556Y1D01*
X2555Y1D01*
X2554Y1D01*
X2553Y1D01*
X2552Y1D01*
X2551Y1D01*
X2550Y1D01*
X2549Y1D01*
X2548Y1D01*
X2547Y1D01*
X2546Y1D01*
X2545Y1D01*
X2544Y1D01*
X2543Y1D01*
X2542Y1D01*
X2541Y1D01*
X2540Y1D01*
X2539Y1D01*
X2538Y1D01*
X2537Y1D01*
X2536Y1D01*
X2535Y1D01*
X2534Y1D01*
X2533Y1D01*
X2532Y1D01*
X2531Y1D01*
X2530Y1D01*
X2529Y1D01*
X2528Y1D01*
X2527Y1D01*
X2526Y1D01*
X2525Y1D01*
X2524Y1D01*
X2523Y1D01*
X2522Y1D01*
X2521Y1D01*
X2520Y1D01*
X2519Y1D01*
X2518Y1D01*
X2517Y1D01*
X2516Y1D01*
X2515Y1D01*
X2514Y1D01*
X2513Y1D01*
X2512Y1D01*
X2511Y1D01*
X2510Y1D01*
X2509Y1D01*
X2508Y1D01*
X2507Y1D01*
X2506Y1D01*
X2505Y1D01*
X2504Y1D01*
X2503Y1D01*
X2502Y1D01*
X2501Y1D01*
X2500Y1D01*
X2499Y1D01*
X2498Y1D01*
X2497Y1D01*
X2496Y1D01*
X2495Y1D01*
X2494Y1D01*
X2493Y1D01*
X2492Y1D01*
X2491Y1D01*
X2490Y1D01*
X2489Y1D01*
X2488Y1D01*
X2487Y1D01*
X2486Y1D01*
X2485Y1D01*
X2484Y1D01*
X2483Y1D01*
X2482Y1D01*
X2481Y1D01*
X2480Y1D01*
X2479Y1D01*
X2478Y1D01*
X2477Y1D01*
X2476Y1D01*
X2475Y1D01*
X2474Y1D01*
X2473Y1D01*
X2472Y1D01*
X2471Y1D01*
X2470Y1D01*
X2469Y1D01*
X2468Y1D01*
X2467Y1D01*
X2466Y1D01*
X2465Y1D01*
X2464Y1D01*
X2463Y1D01*
X2462Y1D01*
X2461Y1D01*
X2460Y1D01*
X2459Y1D01*
X2458Y1D01*
X2457Y1D01*
X2456Y1D01*
X2455Y1D01*
X2454Y1D01*
X2453Y1D01*
X2452Y1D01*
X2451Y1D01*
X2450Y1D01*
X2449Y1D01*
X2448Y1D01*
X2447Y1D01*
X2446Y1D01*
X2445Y1D01*
X2444Y1D01*
X2443Y1D01*
X2442Y1D01*
X2441Y1D01*
X2440Y1D01*
X2439Y1D01*
X2438Y1D01*
X2437Y1D01*
X2436Y1D01*
X2435Y1D01*
X2434Y1D01*
X2433Y1D01*
X2432Y1D01*
X2431Y1D01*
X2430Y1D01*
X2429Y1D01*
X2428Y1D01*
X2427Y1D01*
X2426Y1D01*
X2425Y1D01*
X2424Y1D01*
X2423Y1D01*
X2422Y1D01*
X2421Y1D01*
X2420Y1D01*
X2419Y1D01*
X2418Y1D01*
X2417Y1D01*
X2416Y1D01*
X2415Y1D01*
X2414Y1D01*
X2413Y1D01*
X2412Y1D01*
X2411Y1D01*
X2410Y1D01*
X2409Y1D01*
X2408Y1D01*
X2407Y1D01*
X2406Y1D01*
X2405Y1D01*
X2404Y1D01*
X2403Y1D01*
X2402Y1D01*
X2401Y1D01*
X2400Y1D01*
X2399Y1D01*
X2398Y1D01*
X2397Y1D01*
X2396Y1D01*
X2395Y1D01*
X2394Y1D01*
X2393Y1D01*
X2392Y1D01*
X2391Y1D01*
X2390Y1D01*
X2389Y1D01*
X2388Y1D01*
X2387Y1D01*
X2386Y1D01*
X2385Y1D01*
X2384Y1D01*
X2383Y1D01*
X2382Y1D01*
X2381Y1D01*
X2380Y1D01*
X2379Y1D01*
X2378Y1D01*
X2377Y1D01*
X2376Y1D01*
X2375Y1D01*
X2374Y1D01*
X2373Y1D01*
X2372Y1D01*
X2371Y1D01*
X2370Y1D01*
X2369Y1D01*
X2368Y1D01*
X2367Y1D01*
X2366Y1D01*
X2365Y1D01*
X2364Y1D01*
X2363Y1D01*
X2362Y1D01*
X2361Y1D01*
X2360Y1D01*
X2359Y1D01*
X2358Y1D01*
X2357Y1D01*
X2356Y1D01*
X2355Y1D01*
X2354Y1D01*
X2353Y1D01*
X2352Y1D01*
X2351Y1D01*
X2350Y1D01*
X2349Y1D01*
X2348Y1D01*
X2347Y1D01*
X2346Y1D01*
X2345Y1D01*
X2344Y1D01*
X2343Y1D01*
X2342Y1D01*
X2341Y1D01*
X2340Y1D01*
X2339Y1D01*
X2338Y1D01*
X2337Y1D01*
X2336Y1D01*
X2335Y1D01*
X2334Y1D01*
X2333Y1D01*
X2332Y1D01*
X2331Y1D01*
X2330Y1D01*
X2329Y1D01*
X2328Y1D01*
X2327Y1D01*
X2326Y1D01*
X2325Y1D01*
X2324Y1D01*
X2323Y1D01*
X2322Y1D01*
X2321Y1D01*
X2320Y1D01*
X2319Y1D01*
X2318Y1D01*
X2317Y1D01*
X2316Y1D01*
X2315Y1D01*
X2314Y1D01*
X2313Y1D01*
X2312Y1D01*
X2311Y1D01*
X2310Y1D01*
X2309Y1D01*
X2308Y1D01*
X2307Y1D01*
X2306Y1D01*
X2305Y1D01*
X2304Y1D01*
X2303Y1D01*
X2302Y1D01*
X2301Y1D01*
X2300Y1D01*
X2299Y1D01*
X2298Y1D01*
X2297Y1D01*
X2296Y1D01*
X2295Y1D01*
X2294Y1D01*
X2293Y1D01*
X2292Y1D01*
X2291Y1D01*
X2290Y1D01*
X2289Y1D01*
X2288Y1D01*
X2287Y1D01*
X2286Y1D01*
X2285Y1D01*
X2284Y1D01*
X2283Y1D01*
X2282Y1D01*
X2281Y1D01*
X2280Y1D01*
X2279Y1D01*
X2278Y1D01*
X2277Y1D01*
X2276Y1D01*
X2275Y1D01*
X2274Y1D01*
X2273Y1D01*
X2272Y1D01*
X2271Y1D01*
X2270Y1D01*
X2269Y1D01*
X2268Y1D01*
X2267Y1D01*
X2266Y1D01*
X2265Y1D01*
X2264Y1D01*
X2263Y1D01*
X2262Y1D01*
X2261Y1D01*
X2260Y1D01*
X2259Y1D01*
X2258Y1D01*
X2257Y1D01*
X2256Y1D01*
X2255Y1D01*
X2254Y1D01*
X2253Y1D01*
X2252Y1D01*
X2251Y1D01*
X2250Y1D01*
X2249Y1D01*
X2248Y1D01*
X2247Y1D01*
X2246Y1D01*
X2245Y1D01*
X2244Y1D01*
X2243Y1D01*
X2242Y1D01*
X2241Y1D01*
X2240Y1D01*
X2239Y1D01*
X2238Y1D01*
X2237Y1D01*
X2236Y1D01*
X2235Y1D01*
X2234Y1D01*
X2233Y1D01*
X2232Y1D01*
X2231Y1D01*
X2230Y1D01*
X2229Y1D01*
X2228Y1D01*
X2227Y1D01*
X2226Y1D01*
X2225Y1D01*
X2224Y1D01*
X2223Y1D01*
X2222Y1D01*
X2221Y1D01*
X2220Y1D01*
X2219Y1D01*
X2218Y1D01*
X2217Y1D01*
X2216Y1D01*
X2215Y1D01*
X2214Y1D01*
X2213Y1D01*
X2212Y1D01*
X2211Y1D01*
X2210Y1D01*
X2209Y1D01*
X2208Y1D01*
X2207Y1D01*
X2206Y1D01*
X2205Y1D01*
X2204Y1D01*
X2203Y1D01*
X2202Y1D01*
X2201Y1D01*
X2200Y1D01*
X2199Y1D01*
X2198Y1D01*
X2197Y1D01*
X2196Y1D01*
X2195Y1D01*
X2194Y1D01*
X2193Y1D01*
X2192Y1D01*
X2191Y1D01*
X2190Y1D01*
X2189Y1D01*
X2188Y1D01*
X2187Y1D01*
X2186Y1D01*
X2185Y1D01*
X2184Y1D01*
X2183Y1D01*
X2182Y1D01*
X2181Y1D01*
X2180Y1D01*
X2179Y1D01*
X2178Y1D01*
X2177Y1D01*
X2176Y1D01*
X2175Y1D01*
X2174Y1D01*
X2173Y1D01*
X2172Y1D01*
X2171Y1D01*
X2170Y1D01*
X2169Y1D01*
X2168Y1D01*
X2167Y1D01*
X2166Y1D01*
X2165Y1D01*
X2164Y1D01*
X2163Y1D01*
X2162Y1D01*
X2161Y1D01*
X2160Y1D01*
X2159Y1D01*
X2158Y1D01*
X2157Y1D01*
X2156Y1D01*
X2155Y1D01*
X2154Y1D01*
X2153Y1D01*
X2152Y1D01*
X2151Y1D01*
X2150Y1D01*
X2149Y1D01*
X2148Y1D01*
X2147Y1D01*
X2146Y1D01*
X2145Y1D01*
X2144Y1D01*
X2143Y1D01*
X2142Y1D01*
X2141Y1D01*
X2140Y1D01*
X2139Y1D01*
X2138Y1D01*
X2137Y1D01*
X2136Y1D01*
X2135Y1D01*
X2134Y1D01*
X2133Y1D01*
X2132Y1D01*
X2131Y1D01*
X2130Y1D01*
X2129Y1D01*
X2128Y1D01*
X2127Y1D01*
X2126Y1D01*
X2125Y1D01*
X2124Y1D01*
X2123Y1D01*
X2122Y1D01*
X2121Y1D01*
X2120Y1D01*
X2119Y1D01*
X2118Y1D01*
X2117Y1D01*
X2116Y1D01*
X2115Y1D01*
X2114Y1D01*
X2113Y1D01*
X2112Y1D01*
X2111Y1D01*
X2110Y1D01*
X2109Y1D01*
X2108Y1D01*
X2107Y1D01*
X2106Y1D01*
X2105Y1D01*
X2104Y1D01*
X2103Y1D01*
X2102Y1D01*
X2101Y1D01*
X2100Y1D01*
X2099Y1D01*
X2098Y1D01*
X2097Y1D01*
X2096Y1D01*
X2095Y1D01*
X2094Y1D01*
X2093Y1D01*
X2092Y1D01*
X2091Y1D01*
X2090Y1D01*
X2089Y1D01*
X2088Y1D01*
X2087Y1D01*
X2086Y1D01*
X2085Y1D01*
X2084Y1D01*
X2083Y1D01*
X2082Y1D01*
X2081Y1D01*
X2080Y1D01*
X2079Y1D01*
X2078Y1D01*
X2077Y1D01*
X2076Y1D01*
X2075Y1D01*
X2074Y1D01*
X2073Y1D01*
X2072Y1D01*
X2071Y1D01*
X2070Y1D01*
X2069Y1D01*
X2068Y1D01*
X2067Y1D01*
X2066Y1D01*
X2065Y1D01*
X2064Y1D01*
X2063Y1D01*
X2062Y1D01*
X2061Y1D01*
X2060Y1D01*
X2059Y1D01*
X2058Y1D01*
X2057Y1D01*
X2056Y1D01*
X2055Y1D01*
X2054Y1D01*
X2053Y1D01*
X2052Y1D01*
X2051Y1D01*
X2050Y1D01*
X2049Y1D01*
X2048Y1D01*
X2047Y1D01*
X2046Y1D01*
X2045Y1D01*
X2044Y1D01*
X2043Y1D01*
X2042Y1D01*
X2041Y1D01*
X2040Y1D01*
X2039Y1D01*
X2038Y1D01*
X2037Y1D01*
X2036Y1D01*
X2035Y1D01*
X2034Y1D01*
X2033Y1D01*
X2032Y1D01*
X2031Y1D01*
X2030Y1D01*
X2029Y1D01*
X2028Y1D01*
X2027Y1D01*
X2026Y1D01*
X2025Y1D01*
X2024Y1D01*
X2023Y1D01*
X2022Y1D01*
X2021Y1D01*
X2020Y1D01*
X2019Y1D01*
X2018Y1D01*
X2017Y1D01*
X2016Y1D01*
X2015Y1D01*
X2014Y1D01*
X2013Y1D01*
X2012Y1D01*
X2011Y1D01*
X2010Y1D01*
X2009Y1D01*
X2008Y1D01*
X2007Y1D01*
X2006Y1D01*
X2005Y1D01*
X2004Y1D01*
X2003Y1D01*
X2002Y1D01*
X2001Y1D01*
X2000Y1D01*
X1999Y1D01*
X1998Y1D01*
X1997Y1D01*
X1996Y1D01*
X1995Y1D01*
X1994Y1D01*
X1993Y1D01*
X1992Y1D01*
X1991Y1D01*
X1990Y1D01*
X1989Y1D01*
X1988Y1D01*
X1987Y1D01*
X1986Y1D01*
X1985Y1D01*
X1984Y1D01*
X1983Y1D01*
X1982Y1D01*
X1981Y1D01*
X1980Y1D01*
X1979Y1D01*
X1978Y1D01*
X1977Y1D01*
X1976Y1D01*
X1975Y1D01*
X1974Y1D01*
X1973Y1D01*
X1972Y1D01*
X1971Y1D01*
X1970Y1D01*
X1969Y1D01*
X1968Y1D01*
X1967Y1D01*
X1966Y1D01*
X1965Y1D01*
X1964Y1D01*
X1963Y1D01*
X1962Y1D01*
X1961Y1D01*
X1960Y1D01*
X1959Y1D01*
X1958Y1D01*
X1957Y1D01*
X1956Y1D01*
X1955Y1D01*
X1954Y1D01*
X1953Y1D01*
X1952Y1D01*
X1951Y1D01*
X1950Y1D01*
X1949Y1D01*
X1948Y1D01*
X1947Y1D01*
X1946Y1D01*
X1945Y1D01*
X1944Y1D01*
X1943Y1D01*
X1942Y1D01*
X1941Y1D01*
X1940Y1D01*
X1939Y1D01*
X1938Y1D01*
X1937Y1D01*
X1936Y1D01*
X1935Y1D01*
X1934Y1D01*
X1933Y1D01*
X1932Y1D01*
X1931Y1D01*
X1930Y1D01*
X1929Y1D01*
X1928Y1D01*
X1927Y1D01*
X1926Y1D01*
X1925Y1D01*
X1924Y1D01*
X1923Y1D01*
X1922Y1D01*
X1921Y1D01*
X1920Y1D01*
X1919Y1D01*
X1918Y1D01*
X1917Y1D01*
X1916Y1D01*
X1915Y1D01*
X1914Y1D01*
X1913Y1D01*
X1912Y1D01*
X1911Y1D01*
X1910Y1D01*
X1909Y1D01*
X1908Y1D01*
X1907Y1D01*
X1906Y1D01*
X1905Y1D01*
X1904Y1D01*
X1903Y1D01*
X1902Y1D01*
X1901Y1D01*
X1900Y1D01*
X1899Y1D01*
X1898Y1D01*
X1897Y1D01*
X1896Y1D01*
X1895Y1D01*
X1894Y1D01*
X1893Y1D01*
X1892Y1D01*
X1891Y1D01*
X1890Y1D01*
X1889Y1D01*
X1888Y1D01*
X1887Y1D01*
X1886Y1D01*
X1885Y1D01*
X1884Y1D01*
X1883Y1D01*
X1882Y1D01*
X1881Y1D01*
X1880Y1D01*
X1879Y1D01*
X1878Y1D01*
X1877Y1D01*
X1876Y1D01*
X1875Y1D01*
X1874Y1D01*
X1873Y1D01*
X1872Y1D01*
X1871Y1D01*
X1870Y1D01*
X1869Y1D01*
X1868Y1D01*
X1867Y1D01*
X1866Y1D01*
X1865Y1D01*
X1864Y1D01*
X1863Y1D01*
X1862Y1D01*
X1861Y1D01*
X1860Y1D01*
X1859Y1D01*
X1858Y1D01*
X1857Y1D01*
X1856Y1D01*
X1855Y1D01*
X1854Y1D01*
X1853Y1D01*
X1852Y1D01*
X1851Y1D01*
X1850Y1D01*
X1849Y1D01*
X1848Y1D01*
X1847Y1D01*
X1846Y1D01*
X1845Y1D01*
X1844Y1D01*
X1843Y1D01*
X1842Y1D01*
X1841Y1D01*
X1840Y1D01*
X1839Y1D01*
X1838Y1D01*
X1837Y1D01*
X1836Y1D01*
X1835Y1D01*
X1834Y1D01*
X1833Y1D01*
X1832Y1D01*
X1831Y1D01*
X1830Y1D01*
X1829Y1D01*
X1828Y1D01*
X1827Y1D01*
X1826Y1D01*
X1825Y1D01*
X1824Y1D01*
X1823Y1D01*
X1822Y1D01*
X1821Y1D01*
X1820Y1D01*
X1819Y1D01*
X1818Y1D01*
X1817Y1D01*
X1816Y1D01*
X1815Y1D01*
X1814Y1D01*
X1813Y1D01*
X1812Y1D01*
X1811Y1D01*
X1810Y1D01*
X1809Y1D01*
X1808Y1D01*
X1807Y1D01*
X1806Y1D01*
X1805Y1D01*
X1804Y1D01*
X1803Y1D01*
X1802Y1D01*
X1801Y1D01*
X1800Y1D01*
X1799Y1D01*
X1798Y1D01*
X1797Y1D01*
X1796Y1D01*
X1795Y1D01*
X1794Y1D01*
X1793Y1D01*
X1792Y1D01*
X1791Y1D01*
X1790Y1D01*
X1789Y1D01*
X1788Y1D01*
X1787Y1D01*
X1786Y1D01*
X1785Y1D01*
X1784Y1D01*
X1783Y1D01*
X1782Y1D01*
X1781Y1D01*
X1780Y1D01*
X1779Y1D01*
X1778Y1D01*
X1777Y1D01*
X1776Y1D01*
X1775Y1D01*
X1774Y1D01*
X1773Y1D01*
X1772Y1D01*
X1771Y1D01*
X1770Y1D01*
X1769Y1D01*
X1768Y1D01*
X1767Y1D01*
X1766Y1D01*
X1765Y1D01*
X1764Y1D01*
X1763Y1D01*
X1762Y1D01*
X1761Y1D01*
X1760Y1D01*
X1759Y1D01*
X1758Y1D01*
X1757Y1D01*
X1756Y1D01*
X1755Y1D01*
X1754Y1D01*
X1753Y1D01*
X1752Y1D01*
X1751Y1D01*
X1750Y1D01*
X1749Y1D01*
X1748Y1D01*
X1747Y1D01*
X1746Y1D01*
X1745Y1D01*
X1744Y1D01*
X1743Y1D01*
X1742Y1D01*
X1741Y1D01*
X1740Y1D01*
X1739Y1D01*
X1738Y1D01*
X1737Y1D01*
X1736Y1D01*
X1735Y1D01*
X1734Y1D01*
X1733Y1D01*
X1732Y1D01*
X1731Y1D01*
X1730Y1D01*
X1729Y1D01*
X1728Y1D01*
X1727Y1D01*
X1726Y1D01*
X1725Y1D01*
X1724Y1D01*
X1723Y1D01*
X1722Y1D01*
X1721Y1D01*
X1720Y1D01*
X1719Y1D01*
X1718Y1D01*
X1717Y1D01*
X1716Y1D01*
X1715Y1D01*
X1714Y1D01*
X1713Y1D01*
X1712Y1D01*
X1711Y1D01*
X1710Y1D01*
X1709Y1D01*
X1708Y1D01*
X1707Y1D01*
X1706Y1D01*
X1705Y1D01*
X1704Y1D01*
X1703Y1D01*
X1702Y1D01*
X1701Y1D01*
X1700Y1D01*
X1699Y1D01*
X1698Y1D01*
X1697Y1D01*
X1696Y1D01*
X1695Y1D01*
X1694Y1D01*
X1693Y1D01*
X1692Y1D01*
X1691Y1D01*
X1690Y1D01*
X1689Y1D01*
X1688Y1D01*
X1687Y1D01*
X1686Y1D01*
X1685Y1D01*
X1684Y1D01*
X1683Y1D01*
X1682Y1D01*
X1681Y1D01*
X1680Y1D01*
X1679Y1D01*
X1678Y1D01*
X1677Y1D01*
X1676Y1D01*
X1675Y1D01*
X1674Y1D01*
X1673Y1D01*
X1672Y1D01*
X1671Y1D01*
X1670Y1D01*
X1669Y1D01*
X1668Y1D01*
X1667Y1D01*
X1666Y1D01*
X1665Y1D01*
X1664Y1D01*
X1663Y1D01*
X1662Y1D01*
X1661Y1D01*
X1660Y1D01*
X1659Y1D01*
X1658Y1D01*
X1657Y1D01*
X1656Y1D01*
X1655Y1D01*
X1654Y1D01*
X1653Y1D01*
X1652Y1D01*
X1651Y1D01*
X1650Y1D01*
X1649Y1D01*
X1648Y1D01*
X1647Y1D01*
X1646Y1D01*
X1645Y1D01*
X1644Y1D01*
X1643Y1D01*
X1642Y1D01*
X1641Y1D01*
X1640Y1D01*
X1639Y1D01*
X1638Y1D01*
X1637Y1D01*
X1636Y1D01*
X1635Y1D01*
X1634Y1D01*
X1633Y1D01*
X1632Y1D01*
X1631Y1D01*
X1630Y1D01*
X1629Y1D01*
X1628Y1D01*
X1627Y1D01*
X1626Y1D01*
X1625Y1D01*
X1624Y1D01*
X1623Y1D01*
X1622Y1D01*
X1621Y1D01*
X1620Y1D01*
X1619Y1D01*
X1618Y1D01*
X1617Y1D01*
X1616Y1D01*
X1615Y1D01*
X1614Y1D01*
X1613Y1D01*
X1612Y1D01*
X1611Y1D01*
X1610Y1D01*
X1609Y1D01*
X1608Y1D01*
X1607Y1D01*
X1606Y1D01*
X1605Y1D01*
X1604Y1D01*
X1603Y1D01*
X1602Y1D01*
X1601Y1D01*
X1600Y1D01*
X1599Y1D01*
X1598Y1D01*
X1597Y1D01*
X1596Y1D01*
X1595Y1D01*
X1594Y1D01*
X1593Y1D01*
X1592Y1D01*
X1591Y1D01*
X1590Y1D01*
X1589Y1D01*
X1588Y1D01*
X1587Y1D01*
X1586Y1D01*
X1585Y1D01*
X1584Y1D01*
X1583Y1D01*
X1582Y1D01*
X1581Y1D01*
X1580Y1D01*
X1579Y1D01*
X1578Y1D01*
X1577Y1D01*
X1576Y1D01*
X1575Y1D01*
X1574Y1D01*
X1573Y1D01*
X1572Y1D01*
X1571Y1D01*
X1570Y1D01*
X1569Y1D01*
X1568Y1D01*
X1567Y1D01*
X1566Y1D01*
X1565Y1D01*
X1564Y1D01*
X1563Y1D01*
X1562Y1D01*
X1561Y1D01*
X1560Y1D01*
X1559Y1D01*
X1558Y1D01*
X1557Y1D01*
X1556Y1D01*
X1555Y1D01*
X1554Y1D01*
X1553Y1D01*
X1552Y1D01*
X1551Y1D01*
X1550Y1D01*
X1549Y1D01*
X1548Y1D01*
X1547Y1D01*
X1546Y1D01*
X1545Y1D01*
X1544Y1D01*
X1543Y1D01*
X1542Y1D01*
X1541Y1D01*
X1540Y1D01*
X1539Y1D01*
X1538Y1D01*
X1537Y1D01*
X1536Y1D01*
X1535Y1D01*
X1534Y1D01*
X1533Y1D01*
X1532Y1D01*
X1531Y1D01*
X1530Y1D01*
X1529Y1D01*
X1528Y1D01*
X1527Y1D01*
X1526Y1D01*
X1525Y1D01*
X1524Y1D01*
X1523Y1D01*
X1522Y1D01*
X1521Y1D01*
X1520Y1D01*
X1519Y1D01*
X1518Y1D01*
X1517Y1D01*
X1516Y1D01*
X1515Y1D01*
X1514Y1D01*
X1513Y1D01*
X1512Y1D01*
X1511Y1D01*
X1510Y1D01*
X1509Y1D01*
X1508Y1D01*
X1507Y1D01*
X1506Y1D01*
X1505Y1D01*
X1504Y1D01*
X1503Y1D01*
X1502Y1D01*
X1501Y1D01*
X1500Y1D01*
X1499Y1D01*
X1498Y1D01*
X1497Y1D01*
X1496Y1D01*
X1495Y1D01*
X1494Y1D01*
X1493Y1D01*
X1492Y1D01*
X1491Y1D01*
X1490Y1D01*
X1489Y1D01*
X1488Y1D01*
X1487Y1D01*
X1486Y1D01*
X1485Y1D01*
X1484Y1D01*
X1483Y1D01*
X1482Y1D01*
X1481Y1D01*
X1480Y1D01*
X1479Y1D01*
X1478Y1D01*
X1477Y1D01*
X1476Y1D01*
X1475Y1D01*
X1474Y1D01*
X1473Y1D01*
X1472Y1D01*
X1471Y1D01*
X1470Y1D01*
X1469Y1D01*
X1468Y1D01*
X1467Y1D01*
X1466Y1D01*
X1465Y1D01*
X1464Y1D01*
X1463Y1D01*
X1462Y1D01*
X1461Y1D01*
X1460Y1D01*
X1459Y1D01*
X1458Y1D01*
X1457Y1D01*
X1456Y1D01*
X1455Y1D01*
X1454Y1D01*
X1453Y1D01*
X1452Y1D01*
X1451Y1D01*
X1450Y1D01*
X1449Y1D01*
X1448Y1D01*
X1447Y1D01*
X1446Y1D01*
X1445Y1D01*
X1444Y1D01*
X1443Y1D01*
X1442Y1D01*
X1441Y1D01*
X1440Y1D01*
X1439Y1D01*
X1438Y1D01*
X1437Y1D01*
X1436Y1D01*
X1435Y1D01*
X1434Y1D01*
X1433Y1D01*
X1432Y1D01*
X1431Y1D01*
X1430Y1D01*
X1429Y1D01*
X1428Y1D01*
X1427Y1D01*
X1426Y1D01*
X1425Y1D01*
X1424Y1D01*
X1423Y1D01*
X1422Y1D01*
X1421Y1D01*
X1420Y1D01*
X1419Y1D01*
X1418Y1D01*
X1417Y1D01*
X1416Y1D01*
X1415Y1D01*
X1414Y1D01*
X1413Y1D01*
X1412Y1D01*
X1411Y1D01*
X1410Y1D01*
X1409Y1D01*
X1408Y1D01*
X1407Y1D01*
X1406Y1D01*
X1405Y1D01*
X1404Y1D01*
X1403Y1D01*
X1402Y1D01*
X1401Y1D01*
X1400Y1D01*
X1399Y1D01*
X1398Y1D01*
X1397Y1D01*
X1396Y1D01*
X1395Y1D01*
X1394Y1D01*
X1393Y1D01*
X1392Y1D01*
X1391Y1D01*
X1390Y1D01*
X1389Y1D01*
X1388Y1D01*
X1387Y1D01*
X1386Y1D01*
X1385Y1D01*
X1384Y1D01*
X1383Y1D01*
X1382Y1D01*
X1381Y1D01*
X1380Y1D01*
X1379Y1D01*
X1378Y1D01*
X1377Y1D01*
X1376Y1D01*
X1375Y1D01*
X1374Y1D01*
X1373Y1D01*
X1372Y1D01*
X1371Y1D01*
X1370Y1D01*
X1369Y1D01*
X1368Y1D01*
X1367Y1D01*
X1366Y1D01*
X1365Y1D01*
X1364Y1D01*
X1363Y1D01*
X1362Y1D01*
X1361Y1D01*
X1360Y1D01*
X1359Y1D01*
X1358Y1D01*
X1357Y1D01*
X1356Y1D01*
X1355Y1D01*
X1354Y1D01*
X1353Y1D01*
X1352Y1D01*
X1351Y1D01*
X1350Y1D01*
X1349Y1D01*
X1348Y1D01*
X1347Y1D01*
X1346Y1D01*
X1345Y1D01*
X1344Y1D01*
X1343Y1D01*
X1342Y1D01*
X1341Y1D01*
X1340Y1D01*
X1339Y1D01*
X1338Y1D01*
X1337Y1D01*
X1336Y1D01*
X1335Y1D01*
X1334Y1D01*
X1333Y1D01*
X1332Y1D01*
X1331Y1D01*
X1330Y1D01*
X1329Y1D01*
X1328Y1D01*
X1327Y1D01*
X1326Y1D01*
X1325Y1D01*
X1324Y1D01*
X1323Y1D01*
X1322Y1D01*
X1321Y1D01*
X1320Y1D01*
X1319Y1D01*
X1318Y1D01*
X1317Y1D01*
X1316Y1D01*
X1315Y1D01*
X1314Y1D01*
X1313Y1D01*
X1312Y1D01*
X1311Y1D01*
X1310Y1D01*
X1309Y1D01*
X1308Y1D01*
X1307Y1D01*
X1306Y1D01*
X1305Y1D01*
X1304Y1D01*
X1303Y1D01*
X1302Y1D01*
X1301Y1D01*
X1300Y1D01*
X1299Y1D01*
X1298Y1D01*
X1297Y1D01*
X1296Y1D01*
X1295Y1D01*
X1294Y1D01*
X1293Y1D01*
X1292Y1D01*
X1291Y1D01*
X1290Y1D01*
X1289Y1D01*
X1288Y1D01*
X1287Y1D01*
X1286Y1D01*
X1285Y1D01*
X1284Y1D01*
X1283Y1D01*
X1282Y1D01*
X1281Y1D01*
X1280Y1D01*
X1279Y1D01*
X1278Y1D01*
X1277Y1D01*
X1276Y1D01*
X1275Y1D01*
X1274Y1D01*
X1273Y1D01*
X1272Y1D01*
X1271Y1D01*
X1270Y1D01*
X1269Y1D01*
X1268Y1D01*
X1267Y1D01*
X1266Y1D01*
X1265Y1D01*
X1264Y1D01*
X1263Y1D01*
X1262Y1D01*
X1261Y1D01*
X1260Y1D01*
X1259Y1D01*
X1258Y1D01*
X1257Y1D01*
X1256Y1D01*
X1255Y1D01*
X1254Y1D01*
X1253Y1D01*
X1252Y1D01*
X1251Y1D01*
X1250Y1D01*
X1249Y1D01*
X1248Y1D01*
X1247Y1D01*
X1246Y1D01*
X1245Y1D01*
X1244Y1D01*
X1243Y1D01*
X1242Y1D01*
X1241Y1D01*
X1240Y1D01*
X1239Y1D01*
X1238Y1D01*
X1237Y1D01*
X1236Y1D01*
X1235Y1D01*
X1234Y1D01*
X1233Y1D01*
X1232Y1D01*
X1231Y1D01*
X1230Y1D01*
X1229Y1D01*
X1228Y1D01*
X1227Y1D01*
X1226Y1D01*
X1225Y1D01*
X1224Y1D01*
X1223Y1D01*
X1222Y1D01*
X1221Y1D01*
X1220Y1D01*
X1219Y1D01*
X1218Y1D01*
X1217Y1D01*
X1216Y1D01*
X1215Y1D01*
X1214Y1D01*
X1213Y1D01*
X1212Y1D01*
X1211Y1D01*
X1210Y1D01*
X1209Y1D01*
X1208Y1D01*
X1207Y1D01*
X1206Y1D01*
X1205Y1D01*
X1204Y1D01*
X1203Y1D01*
X1202Y1D01*
X1201Y1D01*
X1200Y1D01*
X1199Y1D01*
X1198Y1D01*
X1197Y1D01*
X1196Y1D01*
X1195Y1D01*
X1194Y1D01*
X1193Y1D01*
X1192Y1D01*
X1191Y1D01*
X1190Y1D01*
X1189Y1D01*
X1188Y1D01*
X1187Y1D01*
X1186Y1D01*
X1185Y1D01*
X1184Y1D01*
X1183Y1D01*
X1182Y1D01*
X1181Y1D01*
X1180Y1D01*
X1179Y1D01*
X1178Y1D01*
X1177Y1D01*
X1176Y1D01*
X1175Y1D01*
X1174Y1D01*
X1173Y1D01*
X1172Y1D01*
X1171Y1D01*
X1170Y1D01*
X1169Y1D01*
X1168Y1D01*
X1167Y1D01*
X1166Y1D01*
X1165Y1D01*
X1164Y1D01*
X1163Y1D01*
X1162Y1D01*
X1161Y1D01*
X1160Y1D01*
X1159Y1D01*
X1158Y1D01*
X1157Y1D01*
X1156Y1D01*
X1155Y1D01*
X1154Y1D01*
X1153Y1D01*
X1152Y1D01*
X1151Y1D01*
X1150Y1D01*
X1149Y1D01*
X1148Y1D01*
X1147Y1D01*
X1146Y1D01*
X1145Y1D01*
X1144Y1D01*
X1143Y1D01*
X1142Y1D01*
X1141Y1D01*
X1140Y1D01*
X1139Y1D01*
X1138Y1D01*
X1137Y1D01*
X1136Y1D01*
X1135Y1D01*
X1134Y1D01*
X1133Y1D01*
X1132Y1D01*
X1131Y1D01*
X1130Y1D01*
X1129Y1D01*
X1128Y1D01*
X1127Y1D01*
X1126Y1D01*
X1125Y1D01*
X1124Y1D01*
X1123Y1D01*
X1122Y1D01*
X1121Y1D01*
X1120Y1D01*
X1119Y1D01*
X1118Y1D01*
X1117Y1D01*
X1116Y1D01*
X1115Y1D01*
X1114Y1D01*
X1113Y1D01*
X1112Y1D01*
X1111Y1D01*
X1110Y1D01*
X1109Y1D01*
X1108Y1D01*
X1107Y1D01*
X1106Y1D01*
X1105Y1D01*
X1104Y1D01*
X1103Y1D01*
X1102Y1D01*
X1101Y1D01*
X1100Y1D01*
X1099Y1D01*
X1098Y1D01*
X1097Y1D01*
X1096Y1D01*
X1095Y1D01*
X1094Y1D01*
X1093Y1D01*
X1092Y1D01*
X1091Y1D01*
X1090Y1D01*
X1089Y1D01*
X1088Y1D01*
X1087Y1D01*
X1086Y1D01*
X1085Y1D01*
X1084Y1D01*
X1083Y1D01*
X1082Y1D01*
X1081Y1D01*
X1080Y1D01*
X1079Y1D01*
X1078Y1D01*
X1077Y1D01*
X1076Y1D01*
X1075Y1D01*
X1074Y1D01*
X1073Y1D01*
X1072Y1D01*
X1071Y1D01*
X1070Y1D01*
X1069Y1D01*
X1068Y1D01*
X1067Y1D01*
X1066Y1D01*
X1065Y1D01*
X1064Y1D01*
X1063Y1D01*
X1062Y1D01*
X1061Y1D01*
X1060Y1D01*
X1059Y1D01*
X1058Y1D01*
X1057Y1D01*
X1056Y1D01*
X1055Y1D01*
X1054Y1D01*
X1053Y1D01*
X1052Y1D01*
X1051Y1D01*
X1050Y1D01*
X1049Y1D01*
X1048Y1D01*
X1047Y1D01*
X1046Y1D01*
X1045Y1D01*
X1044Y1D01*
X1043Y1D01*
X1042Y1D01*
X1041Y1D01*
X1040Y1D01*
X1039Y1D01*
X1038Y1D01*
X1037Y1D01*
X1036Y1D01*
X1035Y1D01*
X1034Y1D01*
X1033Y1D01*
X1032Y1D01*
X1031Y1D01*
X1030Y1D01*
X1029Y1D01*
X1028Y1D01*
X1027Y1D01*
X1026Y1D01*
X1025Y1D01*
X1024Y1D01*
X1023Y1D01*
X1022Y1D01*
X1021Y1D01*
X1020Y1D01*
X1019Y1D01*
X1018Y1D01*
X1017Y1D01*
X1016Y1D01*
X1015Y1D01*
X1014Y1D01*
X1013Y1D01*
X1012Y1D01*
X1011Y1D01*
X1010Y1D01*
X1009Y1D01*
X1008Y1D01*
X1007Y1D01*
X1006Y1D01*
X1005Y1D01*
X1004Y1D01*
X1003Y1D01*
X1002Y1D01*
X1001Y1D01*
X1000Y1D01*
X999Y1D01*
X998Y1D01*
X997Y1D01*
X996Y1D01*
X995Y1D01*
X994Y1D01*
X993Y1D01*
X992Y1D01*
X991Y1D01*
X990Y1D01*
X989Y1D01*
X988Y1D01*
X987Y1D01*
X986Y1D01*
X985Y1D01*
X984Y1D01*
X983Y1D01*
X982Y1D01*
X981Y1D01*
X980Y1D01*
X979Y1D01*
X978Y1D01*
X977Y1D01*
X976Y1D01*
X975Y1D01*
X974Y1D01*
X973Y1D01*
X972Y1D01*
X971Y1D01*
X970Y1D01*
X969Y1D01*
X968Y1D01*
X967Y1D01*
X966Y1D01*
X965Y1D01*
X964Y1D01*
X963Y1D01*
X962Y1D01*
X961Y1D01*
X960Y1D01*
X959Y1D01*
X958Y1D01*
X957Y1D01*
X956Y1D01*
X955Y1D01*
X954Y1D01*
X953Y1D01*
X952Y1D01*
X951Y1D01*
X950Y1D01*
X949Y1D01*
X948Y1D01*
X947Y1D01*
X946Y1D01*
X945Y1D01*
X944Y1D01*
X943Y1D01*
X942Y1D01*
X941Y1D01*
X940Y1D01*
X939Y1D01*
X938Y1D01*
X937Y1D01*
X936Y1D01*
X935Y1D01*
X934Y1D01*
X933Y1D01*
X932Y1D01*
X931Y1D01*
X930Y1D01*
X929Y1D01*
X928Y1D01*
X927Y1D01*
X926Y1D01*
X925Y1D01*
X924Y1D01*
X923Y1D01*
X922Y1D01*
X921Y1D01*
X920Y1D01*
X919Y1D01*
X918Y1D01*
X917Y1D01*
X916Y1D01*
X915Y1D01*
X914Y1D01*
X913Y1D01*
X912Y1D01*
X911Y1D01*
X910Y1D01*
X909Y1D01*
X908Y1D01*
X907Y1D01*
X906Y1D01*
X905Y1D01*
X904Y1D01*
X903Y1D01*
X902Y1D01*
X901Y1D01*
X900Y1D01*
X899Y1D01*
X898Y1D01*
X897Y1D01*
X896Y1D01*
X895Y1D01*
X894Y1D01*
X893Y1D01*
X892Y1D01*
X891Y1D01*
X890Y1D01*
X889Y1D01*
X888Y1D01*
X887Y1D01*
X886Y1D01*
X885Y1D01*
X884Y1D01*
X883Y1D01*
X882Y1D01*
X881Y1D01*
X880Y1D01*
X879Y1D01*
X878Y1D01*
X877Y1D01*
X876Y1D01*
X875Y1D01*
X874Y1D01*
X873Y1D01*
X872Y1D01*
X871Y1D01*
X870Y1D01*
X869Y1D01*
X868Y1D01*
X867Y1D01*
X866Y1D01*
X865Y1D01*
X864Y1D01*
X863Y1D01*
X862Y1D01*
X861Y1D01*
X860Y1D01*
X859Y1D01*
X858Y1D01*
X857Y1D01*
X856Y1D01*
X855Y1D01*
X854Y1D01*
X853Y1D01*
X852Y1D01*
X851Y1D01*
X850Y1D01*
X849Y1D01*
X848Y1D01*
X847Y1D01*
X846Y1D01*
X845Y1D01*
X844Y1D01*
X843Y1D01*
X842Y1D01*
X841Y1D01*
X840Y1D01*
X839Y1D01*
X838Y1D01*
X837Y1D01*
X836Y1D01*
X835Y1D01*
X834Y1D01*
X833Y1D01*
X832Y1D01*
X831Y1D01*
X830Y1D01*
X829Y1D01*
X828Y1D01*
X827Y1D01*
X826Y1D01*
X825Y1D01*
X824Y1D01*
X823Y1D01*
X822Y1D01*
X821Y1D01*
X820Y1D01*
X819Y1D01*
X818Y1D01*
X817Y1D01*
X816Y1D01*
X815Y1D01*
X814Y1D01*
X813Y1D01*
X812Y1D01*
X811Y1D01*
X810Y1D01*
X809Y1D01*
X808Y1D01*
X807Y1D01*
X806Y1D01*
X805Y1D01*
X804Y1D01*
X803Y1D01*
X802Y1D01*
X801Y1D01*
X800Y1D01*
X799Y1D01*
X798Y1D01*
X797Y1D01*
X796Y1D01*
X795Y1D01*
X794Y1D01*
X793Y1D01*
X792Y1D01*
X791Y1D01*
X790Y1D01*
X789Y1D01*
X788Y1D01*
X787Y1D01*
X786Y1D01*
X785Y1D01*
X784Y1D01*
X783Y1D01*
X782Y1D01*
X781Y1D01*
X780Y1D01*
X779Y1D01*
X778Y1D01*
X777Y1D01*
X776Y1D01*
X775Y1D01*
X774Y1D01*
X773Y1D01*
X772Y1D01*
X771Y1D01*
X770Y1D01*
X769Y1D01*
X768Y1D01*
X767Y1D01*
X766Y1D01*
X765Y1D01*
X764Y1D01*
X763Y1D01*
X762Y1D01*
X761Y1D01*
X760Y1D01*
X759Y1D01*
X758Y1D01*
X757Y1D01*
X756Y1D01*
X755Y1D01*
X754Y1D01*
X753Y1D01*
X752Y1D01*
X751Y1D01*
X750Y1D01*
X749Y1D01*
X748Y1D01*
X747Y1D01*
X746Y1D01*
X745Y1D01*
X744Y1D01*
X743Y1D01*
X742Y1D01*
X741Y1D01*
X740Y1D01*
X739Y1D01*
X738Y1D01*
X737Y1D01*
X736Y1D01*
X735Y1D01*
X734Y1D01*
X733Y1D01*
X732Y1D01*
X731Y1D01*
X730Y1D01*
X729Y1D01*
X728Y1D01*
X727Y1D01*
X726Y1D01*
X725Y1D01*
X724Y1D01*
X723Y1D01*
X722Y1D01*
X721Y1D01*
X720Y1D01*
X719Y1D01*
X718Y1D01*
X717Y1D01*
X716Y1D01*
X715Y1D01*
X714Y1D01*
X713Y1D01*
X712Y1D01*
X711Y1D01*
X710Y1D01*
X709Y1D01*
X708Y1D01*
X707Y1D01*
X706Y1D01*
X705Y1D01*
X704Y1D01*
X703Y1D01*
X702Y1D01*
X701Y1D01*
X700Y1D01*
X699Y1D01*
X698Y1D01*
X697Y1D01*
X696Y1D01*
X695Y1D01*
X694Y1D01*
X693Y1D01*
X692Y1D01*
X691Y1D01*
X690Y1D01*
X689Y1D01*
X688Y1D01*
X687Y1D01*
X686Y1D01*
X685Y1D01*
X684Y1D01*
X683Y1D01*
X682Y1D01*
X681Y1D01*
X680Y1D01*
X679Y1D01*
X678Y1D01*
X677Y1D01*
X676Y1D01*
X675Y1D01*
X674Y1D01*
X673Y1D01*
X672Y1D01*
X671Y1D01*
X670Y1D01*
X669Y1D01*
X668Y1D01*
X667Y1D01*
X666Y1D01*
X665Y1D01*
X664Y1D01*
X663Y1D01*
X662Y1D01*
X661Y1D01*
X660Y1D01*
X659Y1D01*
X658Y1D01*
X657Y1D01*
X656Y1D01*
X655Y1D01*
X654Y1D01*
X653Y1D01*
X652Y1D01*
X651Y1D01*
X650Y1D01*
X649Y1D01*
X648Y1D01*
X647Y1D01*
X646Y1D01*
X645Y1D01*
X644Y1D01*
X643Y1D01*
X642Y1D01*
X641Y1D01*
X640Y1D01*
X639Y1D01*
X638Y1D01*
X637Y1D01*
X636Y1D01*
X635Y1D01*
X634Y1D01*
X633Y1D01*
X632Y1D01*
X631Y1D01*
X630Y1D01*
X629Y1D01*
X628Y1D01*
X627Y1D01*
X626Y1D01*
X625Y1D01*
X624Y1D01*
X623Y1D01*
X622Y1D01*
X621Y1D01*
X620Y1D01*
X619Y1D01*
X618Y1D01*
X617Y1D01*
X616Y1D01*
X615Y1D01*
X614Y1D01*
X613Y1D01*
X612Y1D01*
X611Y1D01*
X610Y1D01*
X609Y1D01*
X608Y1D01*
X607Y1D01*
X606Y1D01*
X605Y1D01*
X604Y1D01*
X603Y1D01*
X602Y1D01*
X601Y1D01*
X600Y1D01*
X599Y1D01*
X598Y1D01*
X597Y1D01*
X596Y1D01*
X595Y1D01*
X594Y1D01*
X593Y1D01*
X592Y1D01*
X591Y1D01*
X590Y1D01*
X589Y1D01*
X588Y1D01*
X587Y1D01*
X586Y1D01*
X585Y1D01*
X584Y1D01*
X583Y1D01*
X582Y1D01*
X581Y1D01*
X580Y1D01*
X579Y1D01*
X578Y1D01*
X577Y1D01*
X576Y1D01*
X575Y1D01*
X574Y1D01*
X573Y1D01*
X572Y1D01*
X571Y1D01*
X570Y1D01*
X569Y1D01*
X568Y1D01*
X567Y1D01*
X566Y1D01*
X565Y1D01*
X564Y1D01*
X563Y1D01*
X562Y1D01*
X561Y1D01*
X560Y1D01*
X559Y1D01*
X558Y1D01*
X557Y1D01*
X556Y1D01*
X555Y1D01*
X554Y1D01*
X553Y1D01*
X552Y1D01*
X551Y1D01*
X550Y1D01*
X549Y1D01*
X548Y1D01*
X547Y1D01*
X546Y1D01*
X545Y1D01*
X544Y1D01*
X543Y1D01*
X542Y1D01*
X541Y1D01*
X540Y1D01*
X539Y1D01*
X538Y1D01*
X537Y1D01*
X536Y1D01*
X535Y1D01*
X534Y1D01*
X533Y1D01*
X532Y1D01*
X531Y1D01*
X530Y1D01*
X529Y1D01*
X528Y1D01*
X527Y1D01*
X526Y1D01*
X525Y1D01*
X524Y1D01*
X523Y1D01*
X522Y1D01*
X521Y1D01*
X520Y1D01*
X519Y1D01*
X518Y1D01*
X517Y1D01*
X516Y1D01*
X515Y1D01*
X514Y1D01*
X513Y1D01*
X512Y1D01*
X511Y1D01*
X510Y1D01*
X509Y1D01*
X508Y1D01*
X507Y1D01*
X506Y1D01*
X505Y1D01*
X504Y1D01*
X503Y1D01*
X502Y1D01*
X501Y1D01*
X500Y1D01*
X499Y1D01*
X498Y1D01*
X497Y1D01*
X496Y1D01*
X495Y1D01*
X494Y1D01*
X493Y1D01*
X492Y1D01*
X491Y1D01*
X490Y1D01*
X489Y1D01*
X488Y1D01*
X487Y1D01*
X486Y1D01*
X485Y1D01*
X484Y1D01*
X483Y1D01*
X482Y1D01*
X481Y1D01*
X480Y1D01*
X479Y1D01*
X478Y1D01*
X477Y1D01*
X476Y1D01*
X475Y1D01*
X474Y1D01*
X473Y1D01*
X472Y1D01*
X471Y1D01*
X470Y1D01*
X469Y1D01*
X468Y1D01*
X467Y1D01*
X466Y1D01*
X465Y1D01*
X464Y1D01*
X463Y1D01*
X462Y1D01*
X461Y1D01*
X460Y1D01*
X459Y1D01*
X458Y1D01*
X457Y1D01*
X456Y1D01*
X455Y1D01*
X454Y1D01*
X453Y1D01*
X452Y1D01*
X451Y1D01*
X450Y1D01*
X449Y1D01*
X448Y1D01*
X447Y1D01*
X446Y1D01*
X445Y1D01*
X444Y1D01*
X443Y1D01*
X442Y1D01*
X441Y1D01*
X440Y1D01*
X439Y1D01*
X438Y1D01*
X437Y1D01*
X436Y1D01*
X435Y1D01*
X434Y1D01*
X433Y1D01*
X432Y1D01*
X431Y1D01*
X430Y1D01*
X429Y1D01*
X428Y1D01*
X427Y1D01*
X426Y1D01*
X425Y1D01*
X424Y1D01*
X423Y1D01*
X422Y1D01*
X421Y1D01*
X420Y1D01*
X419Y1D01*
X418Y1D01*
X417Y1D01*
X416Y1D01*
X415Y1D01*
X414Y1D01*
X413Y1D01*
X412Y1D01*
X411Y1D01*
X410Y1D01*
X409Y1D01*
X408Y1D01*
X407Y1D01*
X406Y1D01*
X405Y1D01*
X404Y1D01*
X403Y1D01*
X402Y1D01*
X401Y1D01*
X400Y1D01*
X399Y1D01*
X398Y1D01*
X397Y1D01*
X396Y1D01*
X395Y1D01*
X394Y1D01*
X393Y1D01*
X392Y1D01*
X391Y1D01*
X390Y1D01*
X389Y1D01*
X388Y1D01*
X387Y1D01*
X386Y1D01*
X385Y1D01*
X384Y1D01*
X383Y1D01*
X382Y1D01*
X381Y1D01*
X380Y1D01*
X379Y1D01*
X378Y1D01*
X377Y1D01*
X376Y2D01*
X375Y2D01*
X374Y2D01*
X373Y2D01*
X372Y2D01*
X371Y2D01*
X370Y2D01*
X369Y2D01*
X368Y2D01*
X367Y2D01*
X366Y2D01*
X365Y2D01*
X364Y2D01*
X363Y2D01*
X362Y3D01*
X361Y3D01*
X360Y3D01*
X359Y3D01*
X358Y3D01*
X357Y3D01*
X356Y3D01*
X355Y3D01*
X354Y3D01*
X353Y3D01*
X352Y4D01*
X351Y4D01*
X350Y4D01*
X349Y4D01*
X348Y4D01*
X347Y4D01*
X346Y4D01*
X345Y4D01*
X344Y4D01*
X343Y5D01*
X342Y5D01*
X341Y5D01*
X340Y5D01*
X339Y5D01*
X338Y5D01*
X337Y5D01*
X336Y6D01*
X335Y6D01*
X334Y6D01*
X333Y6D01*
X332Y6D01*
X331Y6D01*
X330Y7D01*
X329Y7D01*
X328Y7D01*
X327Y7D01*
X326Y7D01*
X325Y7D01*
X324Y8D01*
X323Y8D01*
X322Y8D01*
X321Y8D01*
X320Y8D01*
X319Y9D01*
X318Y9D01*
X317Y9D01*
X316Y9D01*
X315Y9D01*
X314Y10D01*
X313Y10D01*
X312Y10D01*
X311Y10D01*
X310Y11D01*
X309Y11D01*
X308Y11D01*
X307Y11D01*
X306Y11D01*
X305Y12D01*
X304Y12D01*
X303Y12D01*
X302Y12D01*
X301Y13D01*
X300Y13D01*
X299Y13D01*
X298Y13D01*
X297Y14D01*
X296Y14D01*
X295Y14D01*
X294Y14D01*
X293Y15D01*
X292Y15D01*
X291Y15D01*
X290Y16D01*
X289Y16D01*
X288Y16D01*
X287Y16D01*
X286Y17D01*
X285Y17D01*
X284Y17D01*
X283Y18D01*
X282Y18D01*
X281Y18D01*
X280Y18D01*
X279Y19D01*
X278Y19D01*
X277Y19D01*
X276Y20D01*
X275Y20D01*
X274Y20D01*
X273Y21D01*
X272Y21D01*
X271Y21D01*
X270Y22D01*
X269Y22D01*
X268Y22D01*
X267Y23D01*
X266Y23D01*
X265Y23D01*
X264Y24D01*
X263Y24D01*
X262Y24D01*
X261Y25D01*
X260Y25D01*
X259Y26D01*
X258Y26D01*
X257Y26D01*
X256Y27D01*
X255Y27D01*
X254Y28D01*
X253Y28D01*
X252Y28D01*
X251Y29D01*
X250Y29D01*
X249Y29D01*
X248Y30D01*
X247Y30D01*
X246Y31D01*
X245Y31D01*
X244Y31D01*
X243Y32D01*
X242Y32D01*
X241Y33D01*
X240Y33D01*
X239Y34D01*
X238Y34D01*
X237Y34D01*
X236Y35D01*
X235Y35D01*
X234Y36D01*
X233Y36D01*
X232Y37D01*
X231Y37D01*
X230Y38D01*
X229Y38D01*
X228Y39D01*
X227Y39D01*
X226Y39D01*
X225Y40D01*
X224Y40D01*
X223Y41D01*
X222Y41D01*
X221Y42D01*
X220Y42D01*
X219Y43D01*
X218Y43D01*
X217Y44D01*
X216Y44D01*
X215Y45D01*
X214Y46D01*
X213Y46D01*
X212Y47D01*
X211Y47D01*
X210Y48D01*
X209Y48D01*
X208Y49D01*
X207Y49D01*
X206Y50D01*
X205Y50D01*
X204Y51D01*
X203Y51D01*
X202Y52D01*
X201Y53D01*
X200Y53D01*
X199Y54D01*
X198Y54D01*
X197Y55D01*
X196Y55D01*
X195Y56D01*
X194Y57D01*
X193Y57D01*
X192Y58D01*
X191Y58D01*
X190Y59D01*
X189Y60D01*
X188Y60D01*
X187Y61D01*
X186Y61D01*
X185Y62D01*
X184Y63D01*
X183Y63D01*
X182Y64D01*
X181Y65D01*
X180Y65D01*
X179Y66D01*
X178Y67D01*
X177Y67D01*
X176Y68D01*
X175Y69D01*
X174Y69D01*
X173Y70D01*
X172Y71D01*
X171Y71D01*
X170Y72D01*
X169Y73D01*
X168Y73D01*
X167Y74D01*
X166Y75D01*
X165Y76D01*
X164Y76D01*
X163Y77D01*
X162Y78D01*
X161Y78D01*
X160Y79D01*
X159Y80D01*
X158Y81D01*
X157Y81D01*
X156Y82D01*
X155Y83D01*
X154Y84D01*
X153Y85D01*
X152Y85D01*
X151Y86D01*
X150Y87D01*
X149Y88D01*
X148Y88D01*
X147Y89D01*
X146Y90D01*
X145Y91D01*
X144Y92D01*
X143Y92D01*
X142Y93D01*
X141Y94D01*
X140Y95D01*
X139Y96D01*
X138Y97D01*
X137Y98D01*
X136Y99D01*
X135Y99D01*
X134Y100D01*
X133Y101D01*
X132Y102D01*
X131Y103D01*
X130Y104D01*
X129Y105D01*
X128Y106D01*
X127Y107D01*
X126Y107D01*
X125Y108D01*
X124Y109D01*
X123Y110D01*
X122Y111D01*
X121Y112D01*
X120Y113D01*
X119Y114D01*
X118Y115D01*
X117Y116D01*
X116Y117D01*
X115Y118D01*
X114Y119D01*
X113Y120D01*
X112Y121D01*
X111Y122D01*
X110Y123D01*
X109Y124D01*
X108Y125D01*
X107Y126D01*
X106Y127D01*
X106Y128D01*
X105Y129D01*
X104Y130D01*
X103Y131D01*
X102Y132D01*
X101Y133D01*
X100Y134D01*
X99Y135D01*
X98Y136D01*
X98Y137D01*
X97Y138D01*
X96Y139D01*
X95Y140D01*
X94Y141D01*
X93Y142D01*
X92Y143D01*
X91Y144D01*
X91Y145D01*
X90Y146D01*
X89Y147D01*
X88Y148D01*
X87Y149D01*
X87Y150D01*
X86Y151D01*
X85Y152D01*
X84Y153D01*
X84Y154D01*
X83Y155D01*
X82Y156D01*
X81Y157D01*
X80Y158D01*
X80Y159D01*
X79Y160D01*
X78Y161D01*
X77Y162D01*
X77Y163D01*
X76Y164D01*
X75Y165D01*
X75Y166D01*
X74Y167D01*
X73Y168D01*
X72Y169D01*
X72Y170D01*
X71Y171D01*
X70Y172D01*
X70Y173D01*
X69Y174D01*
X68Y175D01*
X68Y176D01*
X67Y177D01*
X66Y178D01*
X66Y179D01*
X65Y180D01*
X64Y181D01*
X64Y182D01*
X63Y183D01*
X62Y184D01*
X62Y185D01*
X61Y186D01*
X60Y187D01*
X60Y188D01*
X59Y189D01*
X59Y190D01*
X58Y191D01*
X57Y192D01*
X57Y193D01*
X56Y194D01*
X56Y195D01*
X55Y196D01*
X54Y197D01*
X54Y198D01*
X53Y199D01*
X53Y200D01*
X52Y201D01*
X52Y202D01*
X51Y203D01*
X50Y204D01*
X50Y205D01*
X49Y206D01*
X49Y207D01*
X48Y208D01*
X48Y209D01*
X47Y210D01*
X47Y211D01*
X46Y212D01*
X46Y213D01*
X45Y214D01*
X45Y215D01*
X44Y216D01*
X43Y217D01*
X43Y218D01*
X42Y219D01*
X42Y220D01*
X41Y221D01*
X41Y222D01*
X40Y223D01*
X40Y224D01*
X39Y225D01*
X39Y226D01*
X38Y227D01*
X38Y229D01*
X37Y230D01*
X37Y231D01*
X36Y232D01*
X36Y233D01*
X35Y234D01*
X35Y235D01*
X34Y236D01*
X34Y237D01*
X33Y238D01*
X33Y240D01*
X32Y241D01*
X32Y242D01*
X31Y243D01*
X31Y244D01*
X30Y245D01*
X30Y247D01*
X29Y248D01*
X29Y249D01*
X28Y250D01*
X28Y252D01*
X27Y253D01*
X27Y255D01*
X26Y256D01*
X26Y257D01*
X25Y258D01*
X25Y260D01*
X24Y261D01*
X24Y262D01*
X23Y263D01*
X23Y265D01*
X22Y266D01*
X22Y268D01*
X21Y269D01*
X21Y271D01*
X20Y272D01*
X20Y274D01*
X19Y275D01*
X19Y277D01*
X18Y278D01*
X18Y280D01*
X17Y281D01*
X17Y284D01*
X16Y285D01*
X16Y287D01*
X15Y288D01*
X15Y291D01*
X14Y292D01*
X14Y294D01*
X13Y295D01*
X13Y298D01*
X12Y299D01*
X12Y302D01*
X11Y303D01*
X11Y306D01*
X10Y307D01*
X10Y311D01*
X9Y312D01*
X9Y315D01*
X8Y316D01*
X8Y320D01*
X7Y321D01*
X7Y325D01*
X6Y326D01*
X6Y331D01*
X5Y332D01*
X5Y337D01*
X4Y338D01*
X4Y344D01*
X3Y345D01*
X3Y353D01*
X2Y354D01*
X2Y363D01*
X1Y364D01*
X1Y377D01*
X0Y378D01*
X0Y3560D01*
X1Y3561D01*
X1Y3574D01*
X2Y3575D01*
X2Y3584D01*
X3Y3585D01*
X3Y3593D01*
X4Y3594D01*
X4Y3600D01*
X5Y3601D01*
X5Y3606D01*
X6Y3607D01*
X6Y3612D01*
X7Y3613D01*
X7Y3617D01*
X8Y3618D01*
X8Y3622D01*
X9Y3623D01*
X9Y3626D01*
X10Y3627D01*
X10Y3631D01*
X11Y3632D01*
X11Y3635D01*
X12Y3636D01*
X12Y3639D01*
X13Y3640D01*
X13Y3643D01*
X14Y3644D01*
X14Y3646D01*
X15Y3647D01*
X15Y3650D01*
X16Y3651D01*
X16Y3653D01*
X17Y3654D01*
X17Y3657D01*
X18Y3658D01*
X18Y3660D01*
X19Y3661D01*
X19Y3663D01*
X20Y3664D01*
X20Y3666D01*
X21Y3667D01*
X21Y3669D01*
X22Y3670D01*
X22Y3672D01*
X23Y3673D01*
X23Y3675D01*
X24Y3676D01*
X24Y3677D01*
X25Y3678D01*
X25Y3680D01*
X26Y3681D01*
X26Y3682D01*
X27Y3683D01*
X27Y3685D01*
X28Y3686D01*
X28Y3688D01*
X29Y3689D01*
X29Y3690D01*
X30Y3691D01*
X30Y3693D01*
X31Y3694D01*
X31Y3695D01*
X32Y3696D01*
X32Y3697D01*
X33Y3698D01*
X33Y3700D01*
X34Y3701D01*
X34Y3702D01*
X35Y3703D01*
X35Y3704D01*
X36Y3705D01*
X36Y3706D01*
X37Y3707D01*
X37Y3708D01*
X38Y3709D01*
X38Y3711D01*
X39Y3712D01*
X39Y3713D01*
X40Y3714D01*
X40Y3715D01*
X41Y3716D01*
X41Y3717D01*
X42Y3718D01*
X42Y3719D01*
X43Y3720D01*
X43Y3721D01*
X44Y3722D01*
X45Y3723D01*
X45Y3724D01*
X46Y3725D01*
X46Y3726D01*
X47Y3727D01*
X47Y3728D01*
X48Y3729D01*
X48Y3730D01*
X49Y3731D01*
X49Y3732D01*
X50Y3733D01*
X50Y3734D01*
X51Y3735D01*
X52Y3736D01*
X52Y3737D01*
X53Y3738D01*
X53Y3739D01*
X54Y3740D01*
X54Y3741D01*
X55Y3742D01*
X56Y3743D01*
X56Y3744D01*
X57Y3745D01*
X57Y3746D01*
X58Y3747D01*
X59Y3748D01*
X59Y3749D01*
X60Y3750D01*
X60Y3751D01*
X61Y3752D01*
X62Y3753D01*
X62Y3754D01*
X63Y3755D01*
X64Y3756D01*
X64Y3757D01*
X65Y3758D01*
X66Y3759D01*
X66Y3760D01*
X67Y3761D01*
X68Y3762D01*
X68Y3763D01*
X69Y3764D01*
X70Y3765D01*
X70Y3766D01*
X71Y3767D01*
X72Y3768D01*
X72Y3769D01*
X73Y3770D01*
X74Y3771D01*
X75Y3772D01*
X75Y3773D01*
X76Y3774D01*
X77Y3775D01*
X77Y3776D01*
X78Y3777D01*
X79Y3778D01*
X80Y3779D01*
X80Y3780D01*
X81Y3781D01*
X82Y3782D01*
X83Y3783D01*
X84Y3784D01*
X84Y3785D01*
X85Y3786D01*
X86Y3787D01*
X87Y3788D01*
X87Y3789D01*
X88Y3790D01*
X89Y3791D01*
X90Y3792D01*
X91Y3793D01*
X91Y3794D01*
X92Y3795D01*
X93Y3796D01*
X94Y3797D01*
X95Y3798D01*
X96Y3799D01*
X97Y3800D01*
X98Y3801D01*
X98Y3802D01*
X99Y3803D01*
X100Y3804D01*
X101Y3805D01*
X102Y3806D01*
X103Y3807D01*
X104Y3808D01*
X105Y3809D01*
X106Y3810D01*
X106Y3811D01*
X107Y3812D01*
X108Y3813D01*
X109Y3814D01*
X110Y3815D01*
X111Y3816D01*
X112Y3817D01*
X113Y3818D01*
X114Y3819D01*
X115Y3820D01*
X116Y3821D01*
X117Y3822D01*
X118Y3823D01*
X119Y3824D01*
X120Y3825D01*
X121Y3826D01*
X122Y3827D01*
X123Y3828D01*
X124Y3829D01*
X125Y3830D01*
X126Y3831D01*
X127Y3831D01*
X128Y3832D01*
X129Y3833D01*
X130Y3834D01*
X131Y3835D01*
X132Y3836D01*
X133Y3837D01*
X134Y3838D01*
X135Y3839D01*
X136Y3839D01*
X137Y3840D01*
X138Y3841D01*
X139Y3842D01*
X140Y3843D01*
X141Y3844D01*
X142Y3845D01*
X143Y3846D01*
X144Y3846D01*
X145Y3847D01*
X146Y3848D01*
X147Y3849D01*
X148Y3850D01*
X149Y3850D01*
X150Y3851D01*
X151Y3852D01*
X152Y3853D01*
X153Y3853D01*
X154Y3854D01*
X155Y3855D01*
X156Y3856D01*
X157Y3857D01*
X158Y3857D01*
X159Y3858D01*
X160Y3859D01*
X161Y3860D01*
X162Y3860D01*
X163Y3861D01*
X164Y3862D01*
X165Y3862D01*
X166Y3863D01*
X167Y3864D01*
X168Y3865D01*
X169Y3865D01*
X170Y3866D01*
X171Y3867D01*
X172Y3867D01*
X173Y3868D01*
X174Y3869D01*
X175Y3869D01*
X176Y3870D01*
X177Y3871D01*
X178Y3871D01*
X179Y3872D01*
X180Y3873D01*
X181Y3873D01*
X182Y3874D01*
X183Y3875D01*
X184Y3875D01*
X185Y3876D01*
X186Y3877D01*
X187Y3877D01*
X188Y3878D01*
X189Y3878D01*
X190Y3879D01*
X191Y3880D01*
X192Y3880D01*
X193Y3881D01*
X194Y3881D01*
X195Y3882D01*
X196Y3883D01*
X197Y3883D01*
X198Y3884D01*
X199Y3884D01*
X200Y3885D01*
X201Y3885D01*
X202Y3886D01*
X203Y3887D01*
X204Y3887D01*
X205Y3888D01*
X206Y3888D01*
X207Y3889D01*
X208Y3889D01*
X209Y3890D01*
X210Y3890D01*
X211Y3891D01*
X212Y3891D01*
X213Y3892D01*
X214Y3892D01*
X215Y3893D01*
X216Y3894D01*
X217Y3894D01*
X218Y3895D01*
X219Y3895D01*
X220Y3896D01*
X221Y3896D01*
X222Y3897D01*
X223Y3897D01*
X224Y3898D01*
X225Y3898D01*
X226Y3899D01*
X227Y3899D01*
X228Y3899D01*
X229Y3900D01*
X230Y3900D01*
X231Y3901D01*
X232Y3901D01*
X233Y3902D01*
X234Y3902D01*
X235Y3903D01*
X236Y3903D01*
X237Y3904D01*
X238Y3904D01*
X239Y3904D01*
X240Y3905D01*
X241Y3905D01*
X242Y3906D01*
X243Y3906D01*
X244Y3907D01*
X245Y3907D01*
X246Y3907D01*
X247Y3908D01*
X248Y3908D01*
X249Y3909D01*
X250Y3909D01*
X251Y3909D01*
X252Y3910D01*
X253Y3910D01*
X254Y3910D01*
X255Y3911D01*
X256Y3911D01*
X257Y3912D01*
X258Y3912D01*
X259Y3912D01*
X260Y3913D01*
X261Y3913D01*
X262Y3914D01*
X263Y3914D01*
X264Y3914D01*
X265Y3915D01*
X266Y3915D01*
X267Y3915D01*
X268Y3916D01*
X269Y3916D01*
X270Y3916D01*
X271Y3917D01*
X272Y3917D01*
X273Y3917D01*
X274Y3918D01*
X275Y3918D01*
X276Y3918D01*
X277Y3919D01*
X278Y3919D01*
X279Y3919D01*
X280Y3920D01*
X281Y3920D01*
X282Y3920D01*
X283Y3920D01*
X284Y3921D01*
X285Y3921D01*
X286Y3921D01*
X287Y3922D01*
X288Y3922D01*
X289Y3922D01*
X290Y3922D01*
X291Y3923D01*
X292Y3923D01*
X293Y3923D01*
X294Y3924D01*
X295Y3924D01*
X296Y3924D01*
X297Y3924D01*
X298Y3925D01*
X299Y3925D01*
X300Y3925D01*
X301Y3925D01*
X302Y3926D01*
X303Y3926D01*
X304Y3926D01*
X305Y3926D01*
X306Y3927D01*
X307Y3927D01*
X308Y3927D01*
X309Y3927D01*
X310Y3927D01*
X311Y3928D01*
X312Y3928D01*
X313Y3928D01*
X314Y3928D01*
X315Y3929D01*
X316Y3929D01*
X317Y3929D01*
X318Y3929D01*
X319Y3929D01*
X320Y3930D01*
X321Y3930D01*
X322Y3930D01*
X323Y3930D01*
X324Y3930D01*
X325Y3931D01*
X326Y3931D01*
X327Y3931D01*
X328Y3931D01*
X329Y3931D01*
X330Y3931D01*
X331Y3932D01*
X332Y3932D01*
X333Y3932D01*
X334Y3932D01*
X335Y3932D01*
X336Y3932D01*
X337Y3933D01*
X338Y3933D01*
X339Y3933D01*
X340Y3933D01*
X341Y3933D01*
X342Y3933D01*
X343Y3933D01*
X344Y3934D01*
X345Y3934D01*
X346Y3934D01*
X347Y3934D01*
X348Y3934D01*
X349Y3934D01*
X350Y3934D01*
X351Y3934D01*
X352Y3934D01*
X353Y3935D01*
X354Y3935D01*
X355Y3935D01*
X356Y3935D01*
X357Y3935D01*
X358Y3935D01*
X359Y3935D01*
X360Y3935D01*
X361Y3935D01*
X362Y3935D01*
X363Y3936D01*
X364Y3936D01*
X365Y3936D01*
X366Y3936D01*
X367Y3936D01*
X368Y3936D01*
X369Y3936D01*
X370Y3936D01*
X371Y3936D01*
X372Y3936D01*
X373Y3936D01*
X374Y3936D01*
X375Y3936D01*
X376Y3936D01*
X377Y3937D01*
D02*
G04 End of contour*
M02*