G04 MADE WITH FRITZING*
G04 WWW.FRITZING.ORG*
G04 DOUBLE SIDED*
G04 HOLES PLATED*
G04 CONTOUR ON CENTER OF CONTOUR VECTOR*
%ASAXBY*%
%FSLAX23Y23*%
%MOIN*%
%OFA0B0*%
%SFA1.0B1.0*%
%ADD10C,0.049370*%
%ADD11C,0.088000*%
%ADD12C,0.089370*%
%ADD13C,0.085000*%
%LNMASK0*%
G90*
G70*
G54D10*
X2886Y1577D03*
X2836Y1517D03*
G54D11*
X1486Y3807D03*
X1386Y3807D03*
X1286Y3807D03*
X1186Y3807D03*
X1486Y207D03*
X1486Y207D03*
X1586Y207D03*
X1086Y807D03*
X1086Y807D03*
X1186Y807D03*
X286Y207D03*
X286Y207D03*
X386Y207D03*
X1086Y207D03*
X1086Y207D03*
X1186Y207D03*
X1086Y507D03*
X1086Y507D03*
X1186Y507D03*
X686Y207D03*
X686Y207D03*
X786Y207D03*
X686Y507D03*
X686Y507D03*
X786Y507D03*
X1086Y1107D03*
X1086Y1107D03*
X1186Y1107D03*
X1486Y1107D03*
X1486Y1107D03*
X1586Y1107D03*
X286Y1107D03*
X286Y1107D03*
X386Y1107D03*
X286Y807D03*
X286Y807D03*
X386Y807D03*
X686Y1107D03*
X686Y1107D03*
X786Y1107D03*
X686Y807D03*
X686Y807D03*
X786Y807D03*
X286Y507D03*
X286Y507D03*
X386Y507D03*
X1626Y1907D03*
X1626Y1907D03*
X1626Y1807D03*
X1626Y2107D03*
X1626Y2107D03*
X1626Y2007D03*
X1626Y2307D03*
X1626Y2307D03*
X1626Y2207D03*
X286Y3407D03*
X286Y3407D03*
X286Y3507D03*
X1626Y2507D03*
X1626Y2507D03*
X1626Y2407D03*
X1486Y807D03*
X1486Y807D03*
X1586Y807D03*
X1486Y507D03*
X1486Y507D03*
X1586Y507D03*
X3486Y207D03*
X3486Y207D03*
X3586Y207D03*
X3486Y507D03*
X3486Y507D03*
X3586Y507D03*
X3486Y807D03*
X3486Y807D03*
X3586Y807D03*
G54D12*
X3486Y1107D03*
X3486Y1107D03*
X3586Y1107D03*
G54D11*
X3086Y207D03*
X3086Y207D03*
X3186Y207D03*
X3086Y507D03*
X3086Y507D03*
X3186Y507D03*
X3086Y807D03*
X3086Y807D03*
X3186Y807D03*
X3086Y1107D03*
X3086Y1107D03*
X3186Y1107D03*
X2686Y207D03*
X2686Y207D03*
X2786Y207D03*
X2686Y507D03*
X2686Y507D03*
X2786Y507D03*
X2686Y807D03*
X2686Y807D03*
X2786Y807D03*
X2686Y1107D03*
X2686Y1107D03*
X2786Y1107D03*
X2286Y207D03*
X2286Y207D03*
X2386Y207D03*
X2286Y507D03*
X2286Y507D03*
X2386Y507D03*
X2286Y807D03*
X2286Y807D03*
X2386Y807D03*
X2286Y1107D03*
X2286Y1107D03*
X2386Y1107D03*
X1186Y3407D03*
X1186Y3307D03*
X1186Y3207D03*
X1186Y3107D03*
X1186Y3007D03*
X1186Y2907D03*
X1186Y2807D03*
X1186Y2707D03*
X1186Y2607D03*
X1186Y2507D03*
X1186Y2407D03*
X1186Y2307D03*
X1186Y2207D03*
X1186Y2107D03*
X1186Y2007D03*
X1186Y1907D03*
X1186Y1807D03*
X586Y3407D03*
X586Y3307D03*
X586Y3207D03*
X586Y3107D03*
X586Y3007D03*
X586Y2907D03*
X586Y2807D03*
X586Y2707D03*
X586Y2607D03*
X586Y2507D03*
X586Y2407D03*
X586Y2307D03*
X586Y2207D03*
X586Y2107D03*
X586Y2007D03*
G54D12*
X2286Y3407D03*
X2286Y3307D03*
X2286Y3207D03*
X2286Y3107D03*
X2286Y3007D03*
X2286Y2907D03*
X2286Y2807D03*
X2286Y2707D03*
X2286Y2607D03*
X2286Y2507D03*
X2286Y2407D03*
X2286Y2307D03*
X2286Y2207D03*
X2286Y2107D03*
X2286Y2007D03*
G54D11*
X2886Y3407D03*
X2886Y3307D03*
X2886Y3207D03*
X2886Y3107D03*
X2886Y3007D03*
X2886Y2907D03*
X2886Y2807D03*
X2886Y2707D03*
X2886Y2607D03*
X2886Y2507D03*
X2886Y2407D03*
X2886Y2307D03*
X2886Y2207D03*
X2886Y2107D03*
X2886Y2007D03*
X2886Y1907D03*
X2886Y1807D03*
G54D13*
X1956Y3607D03*
X1956Y3107D03*
X1856Y3607D03*
X1856Y3107D03*
X3186Y3257D03*
X3686Y3257D03*
X3186Y2897D03*
X3686Y2897D03*
X3186Y1697D03*
X3686Y1697D03*
X3186Y1997D03*
X3686Y1997D03*
X3186Y2797D03*
X3686Y2797D03*
X3186Y2697D03*
X3686Y2697D03*
X3186Y2597D03*
X3686Y2597D03*
X3186Y2497D03*
X3686Y2497D03*
X3186Y2397D03*
X3686Y2397D03*
X3186Y2297D03*
X3686Y2297D03*
X3186Y2197D03*
X3686Y2197D03*
X3186Y2097D03*
X3686Y2097D03*
X3186Y1897D03*
X3686Y1897D03*
X3186Y1797D03*
X3686Y1797D03*
G54D11*
X1986Y607D03*
X1986Y507D03*
X1986Y407D03*
X1986Y307D03*
X1986Y207D03*
X1986Y107D03*
X1986Y907D03*
X1986Y807D03*
X1986Y707D03*
X1986Y1207D03*
X1986Y1107D03*
X1986Y1007D03*
G54D10*
X2466Y3107D03*
X2546Y3107D03*
X2626Y3107D03*
X2706Y3107D03*
X2746Y3637D03*
G04 End of Mask0*
M02*