; NON-PLATED HOLES START AT T1
; THROUGH (PLATED) HOLES START AT T100
M48
INCH
T100C0.035000
T101C0.015748
T102C0.038000
T103C0.039370
%
T100
X031863Y022970
X036863Y027970
X036863Y024970
X031863Y024970
X019563Y031070
X031863Y023970
X019563Y036070
X031863Y020970
X031863Y019970
X031863Y032570
X031863Y018970
X036863Y017970
X036863Y023970
X036863Y018970
X036863Y020970
X031863Y026970
X031863Y017970
X031863Y021970
X018563Y036070
X031863Y016970
X036863Y032570
X036863Y028970
X031863Y028970
X018563Y031070
X036863Y021970
X036863Y025970
X036863Y026970
X031863Y025970
X036863Y019970
X036863Y016970
X031863Y027970
X036863Y022970
T101
X028363Y015170
X024663Y031070
X027063Y031070
X026263Y031070
X025463Y031070
X027463Y036370
X028863Y015770
T102
X011863Y026070
X027863Y008070
X002863Y002070
X019863Y004070
X015863Y002070
X019863Y008070
X027863Y002070
X026863Y008070
X034863Y002070
X002863Y035070
X028863Y031070
X011863Y024070
X010863Y005070
X023863Y008070
X016263Y019070
X011863Y005070
X011863Y002070
X015863Y008070
X010863Y011070
X005863Y033070
X011863Y032070
X022863Y008070
X010863Y002070
X028863Y034070
X012863Y038070
X022863Y005070
X006863Y005070
X005863Y022070
X011863Y030070
X028863Y024070
X011863Y019070
X005863Y030070
X035863Y005070
X014863Y005070
X028863Y032070
X015863Y005070
X011863Y021070
X031863Y005070
X028863Y019070
X019863Y010070
X028863Y033070
X031863Y011070
X016263Y022070
X028863Y027070
X011863Y022070
X011863Y018070
X006863Y008070
X005863Y023070
X019863Y011070
X010863Y008070
X002863Y008070
X028863Y020070
X011863Y025070
X013863Y038070
X005863Y024070
X031863Y008070
X005863Y031070
X006863Y011070
X011863Y027070
X014863Y038070
X028863Y030070
X011863Y011070
X026863Y002070
X022863Y002070
X028863Y021070
X002863Y011070
X005863Y029070
X019863Y006070
X005863Y032070
X028863Y029070
X005863Y026070
X019863Y001070
X011863Y020070
X019863Y003070
X027863Y005070
X028863Y026070
X011863Y023070
X019863Y007070
X028863Y028070
X011863Y029070
X007863Y002070
X005863Y025070
X023863Y002070
X016263Y023070
X031863Y002070
X014863Y002070
X011863Y031070
X014863Y011070
X011863Y008070
X016263Y018070
X005863Y021070
X011863Y028070
X030863Y005070
X035863Y002070
X030863Y002070
X019863Y009070
X019863Y002070
X016263Y021070
X007863Y005070
X005863Y027070
X016263Y025070
X005863Y020070
X019863Y005070
X003863Y011070
X027863Y011070
X003863Y005070
X030863Y008070
X030863Y011070
X026863Y005070
X006863Y002070
X003863Y008070
X028863Y025070
X016263Y020070
X028863Y023070
X028863Y022070
X034863Y005070
X005863Y034070
X014863Y008070
X002863Y034070
X011863Y034070
X007863Y011070
X007863Y008070
X011863Y038070
X026863Y011070
X011863Y033070
X002863Y005070
X023863Y011070
X035863Y008070
X022863Y011070
X016263Y024070
X005863Y028070
X015863Y011070
X019863Y012070
X023863Y005070
X003863Y002070
X034863Y008070
X028863Y018070
T103
X022863Y032070
X022863Y021070
X022863Y030070
X022863Y020070
X022863Y027070
X022863Y029070
X022863Y022070
X022863Y031070
X022863Y024070
X022863Y028070
X035863Y011070
X022863Y023070
X022863Y025070
X022863Y026070
X022863Y033070
X022863Y034070
X034863Y011070
T00
M30
